<svg width="90" height="90" viewBox="0 0 90 90" fill="none" xmlns="http://www.w3.org/2000/svg">
<path fill-rule="evenodd" clip-rule="evenodd" d="M43.2705 9.65908C43.2554 12.1829 41.2862 14.1408 38.7284 14.1748C36.1631 14.2087 34.0392 12.081 34.092 9.53081C34.141 7.05604 36.2159 5.00379 38.6794 5.00002C41.3164 4.99248 43.2856 6.99191 43.2705 9.65908ZM75.673 5.15092C77.05 5.13961 77.8196 5.90543 78.3364 6.85987C79.4833 8.96871 81.2375 9.69681 83.5727 9.78735C86.6963 9.91184 87.7074 11.9679 85.8287 14.4804C84.3574 16.4534 83.9198 18.2793 84.5875 20.7126C85.3722 23.5721 83.7424 25.0887 80.9546 24.1342C78.4949 23.293 76.5105 23.4476 74.3074 24.9076C72.225 26.2921 70.1388 25.0208 70.2897 22.4932C70.4443 19.9166 69.6219 18.1774 67.5848 16.5741C65.2269 14.718 65.7438 12.3866 68.6335 11.5831C70.9197 10.9455 72.3494 9.78358 73.0134 7.49743C73.3944 6.18459 74.1942 5.10943 75.6655 5.14715L75.673 5.15092ZM82.4221 13.5485C82.456 12.8997 81.943 12.8884 81.5318 12.9034C79.5021 12.9638 77.8988 12.3263 76.8652 10.4362C76.2238 9.26674 75.5448 9.68549 75.2241 10.689C74.6431 12.5224 73.5302 13.6693 71.6025 14.039C70.6179 14.2276 70.4594 14.8425 71.2781 15.4197C72.9832 16.6231 73.6661 18.2001 73.451 20.2561C73.3643 21.0823 73.8471 21.5538 74.579 20.9653C76.3106 19.577 78.0837 19.5846 80.0039 20.456C80.4868 20.6748 81.2865 20.5843 81.0225 19.9241C80.0454 17.5021 80.8225 15.5668 82.3466 13.7372C82.3707 13.7083 82.3825 13.6686 82.3957 13.624C82.4032 13.5988 82.4112 13.572 82.4221 13.5448V13.5485ZM57.165 35.0782C58.5005 38.0245 60.7715 39.6618 63.8122 39.9146C67.4263 39.8693 70.399 37.2512 70.7612 33.9653C71.146 30.4757 69.105 27.4351 65.7362 26.5598C65.2666 26.4394 64.7763 26.4086 64.285 26.3778C64.0223 26.3614 63.7593 26.3449 63.4991 26.3146C63.3557 26.2976 63.1951 26.3134 63.0343 26.3294C62.662 26.3662 62.2881 26.4032 62.1221 26.0317C61.9082 25.5518 62.2591 25.2337 62.5927 24.9312C62.6945 24.839 62.7946 24.7482 62.8766 24.6547C63.8348 23.5607 64.9703 22.6666 66.1587 21.8404C67.1584 21.1463 68.06 20.3276 67.1395 19.0789C66.2983 17.9396 65.2156 18.4603 64.3026 19.1016C61.3374 21.1878 58.7495 23.6286 57.3725 27.0918C56.9651 28.1217 56.3615 28.9252 55.49 29.6043C51.6458 32.6072 49.4992 36.6211 48.5976 41.3557C48.3713 42.5402 48.3298 43.7852 49.8124 44.0681C51.461 44.3812 51.7326 43.1099 51.9174 41.8423C52.2947 39.2355 53.351 36.9079 54.9505 34.833C56.1766 33.2447 56.3539 33.29 57.165 35.0782ZM59.8133 32.0149C59.7944 30.5587 61.2921 29.5741 63.5858 29.5364H63.5896C65.7098 29.5024 67.5734 31.2453 67.547 33.2334C67.5243 34.8632 65.7814 36.508 64.0385 36.5382C62.0051 36.5759 59.8397 34.2558 59.8133 32.0149ZM6.29627 80.7672C5.96429 83.6381 7.17527 85.0377 10.431 84.9962V85C10.5107 84.987 10.6239 84.972 10.7618 84.9537L10.7625 84.9536L10.7635 84.9535C11.1872 84.8972 11.8438 84.8102 12.4832 84.6567C16.0331 83.8041 19.4699 82.578 22.8614 81.2463C35.9334 76.1063 48.6267 70.1268 61.3204 64.147L61.3206 64.1469L61.3212 64.1467L61.3217 64.1464L61.3219 64.1463C63.292 63.2182 65.2622 62.2901 67.2337 61.3652C69.0219 60.5239 69.784 58.8829 69.4595 56.8306C69.0785 54.4275 68.0411 52.2885 66.7999 50.2287C66.2114 49.2516 65.438 48.6103 64.3327 49.2214C63.2009 49.8477 63.4235 50.8512 63.929 51.8471C64.559 53.077 65.1853 54.3106 65.7247 55.5819L65.75 55.6418C66.0809 56.4245 66.4645 57.3321 65.7398 58.0567C65.1554 58.6411 64.4252 58.4111 63.7309 58.1924C63.6274 58.1599 63.5248 58.1275 63.4235 58.0982C61.7221 57.604 60.149 56.8117 58.6324 55.9139C50.646 51.1945 43.9309 44.9849 37.8949 38.0171C35.2202 34.9349 32.6699 31.7207 31.0176 27.9331C30.9348 27.7424 30.8364 27.5464 30.7362 27.347L30.7362 27.3469L30.7362 27.3469L30.7361 27.3469L30.7361 27.3469L30.7361 27.3468L30.7361 27.3468C30.3112 26.5008 29.8545 25.5916 30.4253 24.7491C31.0269 23.8597 31.9095 24.1101 32.77 24.3541C33.0373 24.43 33.3025 24.5052 33.5565 24.5454C34.5034 24.6963 35.3824 24.602 35.6993 23.5344C36.035 22.3988 35.4126 21.7575 34.3902 21.4029C31.0214 20.2372 27.3846 20.2598 26.5736 24.7001C26.5353 24.904 26.4385 25.0959 26.3414 25.2885L26.3413 25.2885C26.2947 25.381 26.248 25.4736 26.2076 25.5678C20.6394 38.4962 15.2032 51.4774 10.5743 64.7793L10.538 64.8837C8.73544 70.0702 6.92958 75.2661 6.29627 80.7672ZM38.4457 47.9727C37.5101 48.1765 37.1215 48.8442 37.1441 49.8892H37.1404C37.1775 50.021 37.2161 50.1622 37.2563 50.3098C37.3509 50.6565 37.4551 51.0386 37.5742 51.417C39.2341 56.6948 40.977 61.9424 43.2217 67.0051C43.7875 68.2802 43.5537 68.9479 42.2521 69.4459C40.6111 70.0721 39.0078 70.804 37.4195 71.5623C36.3406 72.0753 35.7181 71.8716 35.2202 70.7399C30.5196 60.0448 26.9584 49.0064 25.3475 37.4097C25.0842 35.5244 25.9753 33.8783 26.8532 32.2567C27.1576 31.6946 27.4603 31.1353 27.7129 30.5701C28.1049 29.6946 28.5082 30.4457 28.7734 30.9397C28.8145 31.0161 28.8522 31.0864 28.8861 31.1435C30.7082 34.237 32.7416 37.1796 35.1032 39.8882C42.0861 47.8973 49.7745 55.0575 59.3001 60.0108C59.3606 60.0418 59.4261 60.0709 59.4927 60.1005C59.7832 60.2297 60.0945 60.3681 60.1037 60.7088C60.1158 61.1481 59.7556 61.2857 59.4179 61.4147C59.3351 61.4463 59.2537 61.4774 59.1794 61.5123C57.974 62.0826 56.766 62.6465 55.5581 63.2104L55.5578 63.2105L55.5575 63.2107C53.1783 64.3213 50.7998 65.4317 48.4428 66.5901C47.2092 67.1975 46.6698 66.8617 46.1869 65.6772C44.1648 60.7314 42.3502 55.7102 40.7658 50.606C40.5998 50.0665 40.43 49.5232 40.2225 48.9989C39.9094 48.1953 39.3096 47.7841 38.4457 47.9727ZM22.5113 43.2107L22.5114 43.2107L22.5116 43.2105C22.5941 43.1533 22.7044 43.0767 22.8501 42.9628V42.9666C23.8008 47.1843 24.7326 51.202 25.9134 55.1556C27.6223 60.8823 29.7047 66.4656 32.1757 71.898C32.7605 73.1769 32.6284 73.7579 31.2703 74.2559C28.8559 75.1424 26.4906 76.1648 24.1327 77.1946C22.9406 77.7153 22.2088 77.5719 21.6165 76.2779C19.4209 71.4717 17.6025 66.526 15.8936 61.5387C15.6823 60.9238 15.6559 60.3013 15.8936 59.6939C18.025 54.2578 20.1603 48.8253 22.3031 43.3967C22.3279 43.3381 22.389 43.2957 22.5113 43.2107ZM12.7046 68.7449L12.7047 68.7444C12.98 67.8819 13.2553 67.0194 13.5282 66.1563C14.3917 68.0473 15.2018 69.9028 16.0002 71.7319C16.9109 73.8181 17.8066 75.8698 18.7494 77.9001C19.1681 78.8018 18.9682 79.2922 18.0062 79.5713C15.837 80.2051 13.6753 80.8729 11.5212 81.5557C9.87639 82.0763 9.48782 81.2991 9.6425 79.8467C9.82735 78.085 10.3216 76.3949 10.8308 74.7161C11.4358 72.7198 12.07 70.7327 12.7043 68.7458L12.7045 68.7452L12.7046 68.7449ZM49.0615 29.3403C51.774 23.2854 53.5056 16.9363 54.5354 10.6324V10.6286C54.6034 9.3158 54.4864 8.25195 53.1924 8.07087C51.8683 7.88602 51.5137 8.90083 51.3137 9.95336C51.2228 10.4349 51.1363 10.9176 51.0498 11.4005C50.8706 12.4006 50.6912 13.4014 50.4724 14.3936C48.9559 21.2483 46.4736 27.7408 43.1651 33.9277C42.6483 34.8897 42.403 35.9271 43.6216 36.5081C44.7307 37.0363 45.5531 36.4591 46.0661 35.4254C46.376 34.7999 46.6919 34.1774 47.0078 33.5548L47.0081 33.5543L47.0081 33.5543L47.0081 33.5542L47.0081 33.5542L47.0081 33.5542C47.7154 32.1604 48.4227 30.7666 49.0615 29.3403ZM69.5916 43.3249C71.1346 43.2306 72.8775 43.4494 74.6166 43.7399C75.7446 43.9285 76.5708 44.5019 76.3444 45.7506C76.1105 47.0258 75.1259 47.1653 74.0054 46.9729C68.3768 46.011 62.9972 46.7013 57.9157 49.41C56.9386 49.9306 55.8823 50.0438 55.3466 48.8441C54.8411 47.7161 55.4862 46.939 56.4972 46.4184C60.5338 44.3322 64.8005 43.2004 69.5954 43.3211L69.5916 43.3249ZM83.233 50.4249C85.67 50.4362 87.7147 48.3651 87.7562 45.8413C87.7977 43.4231 85.7191 41.269 83.2745 41.1936C80.7092 41.1181 78.5966 43.1779 78.5739 45.7847C78.5513 48.3538 80.6186 50.4136 83.233 50.4249ZM40.9016 29.5177C41.8787 27.224 42.1805 24.8096 42.1352 22.863H42.1314C42.1292 22.6802 42.1274 22.5025 42.1256 22.3295C42.1097 20.7607 42.0977 19.5769 41.7919 18.4114C41.558 17.5211 41.0978 16.8873 40.1131 16.9779C39.0493 17.0759 38.6456 17.8304 38.6192 18.8151C38.6117 19.1886 38.6645 19.5658 38.7173 19.9393C39.1323 22.7875 38.8795 25.5717 37.8534 28.2652C37.4611 29.2989 37.2536 30.3175 38.4381 30.8532C39.7019 31.4266 40.4376 30.608 40.9016 29.5177Z" fill="#2E2D2A"/>
</svg>
