<svg width="90" height="90" viewBox="0 0 90 90" fill="none" xmlns="http://www.w3.org/2000/svg">
<g clip-path="url(#clip0_29_8665)">
<path d="M52.1037 83.9974C47.4382 83.9974 42.7754 84.0054 38.1099 83.9947C35.7265 83.9894 35.2946 83.5482 35.292 81.2251C35.2893 79.0536 35.2573 76.8847 35.3053 74.7158C35.3266 73.7456 34.9827 73.3682 33.9963 73.3868C31.6422 73.432 29.2882 73.4081 26.9341 73.3974C21.005 73.3709 17.1553 69.5461 17.1473 63.6719C17.142 61.1469 17.1206 58.6218 17.1713 56.0994C17.1899 55.1851 16.87 54.7226 15.9769 54.5099C14.5106 54.1591 13.0577 53.7418 11.61 53.3192C8.05628 52.2826 6.94723 49.0531 9.10134 46.0284C11.5434 42.5996 13.9881 39.1682 16.4541 35.758C16.9153 35.1201 17.142 34.4662 17.1713 33.6742C17.7018 19.1351 29.7281 6.55762 44.3377 5.2313C51.0693 4.61996 57.6089 5.11434 63.8527 8.07266C80.5098 15.9588 86.2283 37.2039 75.6497 52.2002C74.106 54.3877 72.2105 56.2642 70.0831 57.8776C69.2406 58.5155 68.9474 59.2252 68.95 60.2405C68.9767 67.1486 68.966 74.0593 68.9607 80.9673C68.9607 83.5748 68.5421 83.9947 65.9641 83.9974C61.344 84.0027 56.7238 83.9974 52.1037 83.9974ZM52.149 80.7095C56.06 80.7095 59.9683 80.7095 63.8793 80.7095C65.6549 80.7095 65.6629 80.7015 65.6629 78.9366C65.6629 72.1163 65.6709 65.2933 65.6549 58.473C65.6549 57.5294 65.8522 56.7905 66.6973 56.1978C74.2767 50.8579 78.073 43.5644 77.6785 34.2935C77.2972 25.3308 73.181 18.3032 65.9055 13.1387C59.0806 8.29327 51.3119 7.5198 43.3353 8.68399C30.4879 10.5579 20.853 21.5592 20.4584 34.445C20.4264 35.4683 20.1492 36.3242 19.552 37.1508C17.006 40.6726 14.484 44.2077 11.9833 47.7614C10.9835 49.1807 11.2048 49.7575 12.8444 50.2306C14.7639 50.7861 16.6807 51.3549 18.6216 51.8307C19.9786 52.163 20.5038 52.9391 20.4824 54.3026C20.4318 57.4922 20.4344 60.6817 20.4558 63.8713C20.4798 67.6004 23.0045 70.0803 26.7662 70.0989C29.9653 70.1149 33.1645 70.0909 36.3637 70.1069C38.0566 70.1149 38.5845 70.6464 38.6005 72.3475C38.6218 74.5616 38.6778 76.781 38.5845 78.9898C38.5285 80.3055 38.9044 80.7759 40.2907 80.744C44.2417 80.6563 48.198 80.7122 52.1517 80.7122L52.149 80.7095Z" fill="#2E2D2A"/>
<path d="M67.0436 40.3934C67.0063 40.9596 66.785 41.3955 66.5424 41.8181C65.4387 43.7398 64.3243 45.6562 63.2233 47.5779C62.6048 48.657 61.7303 48.9095 60.6373 48.3593C60.0028 48.0404 59.3576 47.7188 58.7951 47.2961C57.806 46.5546 56.9609 46.6503 55.9078 47.2855C54.948 47.8649 54.4362 48.4789 54.5615 49.6006C54.6121 50.0392 54.5721 50.4857 54.5668 50.9296C54.5401 53.2659 54.0869 53.7204 51.7489 53.7284C49.7494 53.7337 47.7499 53.7523 45.7504 53.7204C44.2441 53.6939 43.6709 53.1038 43.5936 51.6153C43.5696 51.1741 43.519 50.7169 43.5963 50.289C43.9055 48.5587 43.1057 47.5726 41.5675 46.9187C40.9676 46.6635 40.5171 46.5918 39.9652 46.9373C39.2134 47.4078 38.4403 47.8463 37.6591 48.269C36.4568 48.9202 35.6303 48.7607 34.9372 47.6151C33.7001 45.5685 32.5138 43.4873 31.3514 41.3955C30.8156 40.4333 31.0742 39.5907 32.0046 38.9927C32.5271 38.6578 33.0443 38.2803 33.6175 38.0624C34.9905 37.5388 35.425 36.6085 35.3344 35.1679C35.2731 34.211 35.0198 33.5864 34.1694 33.1451C33.4229 32.7597 32.7057 32.3026 32.0046 31.8374C31.0901 31.2287 30.8395 30.3835 31.3807 29.4187C32.5484 27.3295 33.7428 25.2563 34.9665 23.199C35.561 22.1996 36.4594 22.0003 37.4938 22.5106C38.091 22.8057 38.7229 23.0768 39.2294 23.4914C40.3091 24.3818 41.2236 24.1798 42.3379 23.4701C43.239 22.896 43.6149 22.3139 43.6069 21.2481C43.583 17.1841 43.6149 17.1841 47.6299 17.1841C49.2295 17.1841 50.8291 17.1655 52.4287 17.192C53.959 17.216 54.4788 17.7449 54.5561 19.2892C54.5801 19.7756 54.6255 20.2726 54.5561 20.7484C54.3455 22.2156 54.8921 23.1193 56.273 23.7705C57.1048 24.1612 57.6913 24.2835 58.4485 23.7572C59.1016 23.3027 59.8081 22.9146 60.52 22.5558C61.717 21.9525 62.5301 22.1757 63.2179 23.3266C64.399 25.3041 65.5427 27.3083 66.6997 29.3017C67.3209 30.3729 67.1236 31.25 66.0572 31.9065C65.452 32.2786 64.8682 32.7013 64.223 32.9883C63.138 33.4694 62.8314 34.2216 62.818 35.3964C62.802 36.6776 63.1486 37.4909 64.3616 37.9773C65.0148 38.2378 65.5987 38.671 66.2092 39.0325C66.753 39.3515 67.0036 39.8459 67.0463 40.3961L67.0436 40.3934ZM62.8287 29.3389C62.7141 29.113 62.5648 28.7941 62.3968 28.4831C61.0905 26.1068 61.0691 26.0696 58.7284 27.4438C57.5394 28.1402 56.5076 28.1854 55.4492 27.2524C54.7134 26.6039 53.8976 26.0191 52.9592 25.7401C51.6102 25.3387 51.1144 24.4935 51.261 23.1539C51.309 22.7153 51.2263 22.2634 51.2743 21.8275C51.3916 20.7484 50.8664 20.456 49.8667 20.4667C46.3103 20.5092 46.9208 20.246 46.9154 23.3266C46.9154 24.5626 46.4942 25.3254 45.2759 25.7055C44.2548 26.0245 43.3404 26.6092 42.5299 27.3083C41.5968 28.1136 40.6957 28.1668 39.6133 27.5475C37.0833 26.0989 37.0993 26.152 35.6037 28.6612C35.0838 29.533 35.2064 30.0938 36.0995 30.4287C38.291 31.25 39.2907 32.6773 38.6189 35.0376C38.6082 35.0775 38.6082 35.128 38.6189 35.1705C39.1974 37.7833 38.5336 39.7183 35.7823 40.6592C34.8865 40.9649 35.2438 41.7516 35.665 42.1716C36.3901 42.8892 36.1182 44.6249 37.8298 44.3245C37.995 44.2953 38.147 44.1677 38.299 44.0773C38.5656 43.9205 38.8455 43.777 39.0961 43.5936C40.4344 42.6128 41.6848 42.6341 42.9218 43.8062C43.3324 44.1943 43.8469 44.585 44.3774 44.7126C46.6088 45.2495 47.2247 46.7061 46.9048 48.7819C46.8781 48.9547 46.9154 49.1355 46.9021 49.3135C46.8435 50.0897 47.1714 50.398 47.9792 50.4432C51.2077 50.6239 51.221 50.6478 51.269 47.4025C51.2823 46.4988 51.4183 45.7014 52.378 45.3505C53.7297 44.8561 54.9187 44.096 56.0571 43.2374C56.7316 42.7271 57.4327 42.7058 58.1659 43.155C58.6564 43.458 59.2083 43.6707 59.6748 44.0003C60.7572 44.7684 61.3384 44.4309 61.8956 43.3039C62.9913 41.0925 63.0713 41.0792 60.9119 39.8459C59.6215 39.1096 59.067 38.1793 59.4136 36.6829C59.5789 35.9652 59.5735 35.1811 59.5069 34.4396C59.2909 31.9836 59.2696 31.9863 61.3971 30.8088C61.7463 30.6148 62.0956 30.4181 62.4288 30.2028C62.6954 30.03 62.9193 29.8121 62.834 29.3416L62.8287 29.3389Z" fill="#2E2D2A"/>
<path d="M49.0881 41.5469C45.6277 41.5549 42.8684 38.8704 42.8497 35.4761C42.831 32.1112 45.633 29.2565 48.9788 29.2299C52.4179 29.2033 55.3292 32.0686 55.2812 35.4363C55.2332 38.8996 52.5566 41.5363 49.0854 41.5443L49.0881 41.5469ZM49.0321 38.2457C50.6984 38.259 51.8741 37.0895 51.8794 35.4097C51.8874 33.8122 50.5971 32.5178 49.0161 32.5311C47.6138 32.5417 46.2088 33.9372 46.1555 35.3698C46.0995 36.853 47.4805 38.2324 49.0321 38.2457Z" fill="#2E2D2A"/>
</g>
<defs>
<clipPath id="clip0_29_8665">
<rect width="73" height="79" fill="white" transform="translate(8 5)"/>
</clipPath>
</defs>
</svg>

