<svg width="90" height="90" viewBox="0 0 90 90" fill="none" xmlns="http://www.w3.org/2000/svg">
<g clip-path="url(#clip0_29_8655)">
<path d="M59.5653 70.2619C59.5653 67.3899 59.5987 64.5178 59.5486 61.6457C59.5253 60.2063 60.0324 59.3109 61.3204 58.5372C68.6679 54.1243 74.1301 47.8328 78.4946 40.4838C80.7102 36.7535 82.5587 32.8542 83.8701 28.7083C84.5341 26.6033 84.0369 25.2619 82.4453 24.3496C80.6535 23.319 79.6658 23.3933 78.3645 25.0389C76.7662 27.0561 75.3814 29.2422 73.8265 31.2966C69.2118 37.3887 63.9197 42.7105 57.0294 46.1738C56.045 46.6671 55.3977 47.5152 54.737 48.3498C52.6149 51.0259 50.5428 53.7493 48.3672 56.3814C47.4663 57.4694 47.4663 57.956 48.8043 58.6994C52.2979 60.6456 53.7694 63.8285 53.2021 67.7751C52.6849 71.377 50.5061 73.8165 47.0792 74.8741C43.3988 76.0094 40.2623 74.8741 37.7898 71.9581C34.3262 67.8764 35.5141 61.4971 40.3324 58.7365C41.617 57.9999 41.5603 57.5539 40.7361 56.5504C38.2169 53.4756 35.7544 50.3501 33.2952 47.2247C32.6178 46.363 31.7503 45.7852 30.816 45.2683C23.0614 40.9838 17.0353 34.8883 12.474 27.2689C11.9534 26.3972 11.4162 25.5457 10.7055 24.8226C9.55431 23.6535 8.27301 23.3663 6.7648 24.1435C5.26995 24.9138 4.7294 26.1201 4.92626 27.7555C5.12647 29.4179 5.94397 30.8438 6.59463 32.3305C10.8289 42.0279 16.8184 50.3603 25.2136 56.8173C25.3905 56.9525 25.5506 57.1383 25.7508 57.216C29.0509 58.4628 29.5013 61.0071 29.3378 64.2272C29.0909 69.1131 29.2711 74.0226 29.2744 78.922C29.2744 79.9087 29.3512 80.902 27.9297 80.9426C26.4315 80.9865 26.4248 79.9864 26.4248 78.9051C26.4349 73.5563 26.4015 68.2042 26.4449 62.8554C26.4549 61.7201 26.0812 61.0105 25.1502 60.3516C15.5871 53.5939 8.8169 44.5452 4.10209 33.8341C3.42473 32.2933 2.62725 30.8032 2.24353 29.1375C1.45606 25.7079 2.59388 22.9271 5.37672 21.5552C8.43984 20.0449 11.3128 20.7342 13.4983 23.6028C15.2968 25.9647 16.6115 28.661 18.5068 30.9688C22.2706 35.5641 26.5416 39.5512 31.7069 42.4672C41.8239 48.1775 52.4948 47.1875 61.6174 39.835C66.8527 35.6148 71.0403 30.4687 74.8209 24.9341C75.3247 24.1941 75.8386 23.4474 76.4458 22.7987C78.4112 20.6902 80.3598 20.2712 82.9325 21.3187C85.7186 22.4574 87.0233 24.3766 87.0033 27.2554C86.9933 28.6948 86.5795 30.0261 86.0723 31.3439C81.4209 43.3896 74.3637 53.5466 63.5127 60.6997C62.5817 61.3146 62.565 62.1188 62.565 63.0311C62.565 68.3258 62.575 73.6172 62.555 78.9119C62.555 79.6586 62.7552 80.5439 61.7041 80.8683C60.4562 81.2534 59.602 80.7162 59.582 79.3782C59.5386 76.3372 59.5686 73.2962 59.5686 70.2552L59.5653 70.2619ZM44.5433 72.2251C47.8634 72.2318 50.3859 69.7652 50.4393 66.4472C50.4927 63.2778 47.7699 60.4699 44.6534 60.4834C41.4368 60.4969 38.6473 63.3251 38.7074 66.5181C38.7641 69.674 41.3667 72.2183 44.5433 72.2251ZM50.4994 48.9546C50.4327 48.8262 50.3693 48.6978 50.3025 48.5661C46.2951 49.3196 42.301 49.2216 37.8231 48.2045C40.0621 51.0293 41.964 53.4182 43.8493 55.8172C44.3264 56.4254 44.7335 56.3544 45.174 55.7868C46.9458 53.506 48.7209 51.2286 50.4994 48.9513V48.9546Z" fill="#2E2D2A"/>
<path d="M44.5101 43.5619C36.4152 43.5619 29.8285 36.9055 29.8418 28.7421C29.8585 20.572 36.4385 13.9865 44.5735 14C52.5283 14.0135 59.2685 20.8119 59.1751 28.7354C59.0816 36.9832 52.5717 43.5653 44.5068 43.5619H44.5101ZM56.1853 28.8874C56.2554 22.3932 51.0735 16.9802 44.6936 16.889C38.237 16.7977 32.9216 22.0012 32.8549 28.4819C32.7848 35.3107 37.8333 40.602 44.4701 40.6595C50.8265 40.7135 56.1153 35.4019 56.182 28.8874H56.1853Z" fill="#2E2D2A"/>
</g>
<defs>
<clipPath id="clip0_29_8655">
<rect width="85" height="67" fill="white" transform="translate(2 14)"/>
</clipPath>
</defs>
</svg>
