<svg width="90" height="90" viewBox="0 0 90 90" fill="none" xmlns="http://www.w3.org/2000/svg">
<g clip-path="url(#clip0_1192_6318)">
<path d="M44.8426 11.4363C45.8203 11.4363 46.6129 10.6437 46.6129 9.66603V1.77029C46.6129 0.792598 45.8203 0 44.8426 0C43.8649 0 43.0723 0.792598 43.0723 1.77029V9.66603C43.0724 10.6437 43.865 11.4363 44.8426 11.4363Z" fill="#2E2D2A"/>
<path d="M88.1157 60.8177L84.9884 57.6991C83.8759 56.588 82.3931 55.9759 80.8132 55.9759C79.803 55.9759 78.8332 56.2273 77.9738 56.6982L72.0806 50.812L72.3676 50.5253C74.7584 48.1298 74.7576 44.2371 72.3675 41.8496C71.5133 40.9939 70.4476 40.4233 69.2858 40.1832C69.4458 39.6311 69.53 39.0528 69.53 38.4609C69.53 36.8165 68.8912 35.2745 67.7349 34.123C66.8806 33.2673 65.815 32.6967 64.6533 32.4566C64.8133 31.9045 64.8975 31.3263 64.8975 30.7343C64.8975 29.0897 64.2587 27.5479 63.1004 26.3946C62.2258 25.521 61.1505 24.968 60.0215 24.7326C60.6254 22.6501 60.1094 20.3071 58.4711 18.666C57.1074 17.3081 55.2569 16.7245 53.4736 16.9137L41.7956 14.7032C40.0146 14.3654 37.7904 14.1419 36.3864 15.4225C36.2979 15.5034 36.2075 15.5964 36.1186 15.6999C33.9417 14.9064 31.4027 15.3789 29.6595 17.1202C28.503 18.2753 27.866 19.8165 27.866 21.4601C27.866 22.0521 27.9498 22.6302 28.1096 23.1825C26.9491 23.4225 25.8847 23.9924 25.0334 24.8453C23.8747 25.9993 23.2357 27.5388 23.2345 29.1804C23.234 29.7738 23.3182 30.3539 23.4788 30.9076C22.3178 31.147 21.2527 31.7158 20.3988 32.5687C19.24 33.7263 18.602 35.2684 18.602 36.9111C18.602 38.1693 18.9776 39.368 19.6737 40.3805C18.7948 40.6784 17.9897 41.1743 17.3156 41.8477C14.9232 44.2371 14.9223 48.1299 17.3172 50.529L17.6032 50.8138L11.7092 56.697C9.51881 55.6657 6.82004 56.0521 5.01248 57.8573L1.88322 60.9778C0.770176 62.0894 0.157402 63.5723 0.157227 65.1531C0.157227 66.7341 0.770176 68.2172 1.88322 69.329L5.78855 73.2296C6.48025 73.9206 7.60121 73.9199 8.29203 73.2282C8.98303 72.5365 8.98232 71.4155 8.29062 70.7247L4.38529 66.8241C3.94197 66.3813 3.69781 65.7879 3.69781 65.1533C3.69781 64.5189 3.94197 63.9257 4.38424 63.4839L7.51367 60.3633C8.29555 59.5823 9.49226 59.4659 10.4011 60.0092C10.465 60.1054 10.539 60.1968 10.6238 60.2817C10.7755 60.4338 10.9486 60.5503 11.1325 60.6356L29.0785 78.5552C29.1638 78.741 29.2808 78.9159 29.4336 79.0689C29.5823 79.2177 29.7519 79.3329 29.9319 79.4176C30.3114 79.8467 30.5212 80.3948 30.5212 80.9794C30.5212 81.614 30.277 82.2073 29.8337 82.65L26.7074 85.7726C25.7837 86.6923 24.2811 86.6921 23.3602 85.7754L19.4548 81.8698C18.7635 81.1784 17.6427 81.1784 16.9514 81.8698C16.26 82.5611 16.26 83.6819 16.9514 84.3732L20.8595 88.2817C22.0098 89.4273 23.5205 89.9998 25.0319 89.9998C26.5436 89.9998 28.056 89.4264 29.2077 88.2798L32.3359 85.1553C33.449 84.0435 34.0619 82.5606 34.0619 80.9794C34.0619 79.8511 33.7481 78.7735 33.1647 77.8444L39.798 71.2192C39.805 71.212 39.8121 71.2048 39.8193 71.1975C40.5788 70.4123 42.694 70.5593 44.7396 70.7013C46.1929 70.8024 47.8133 70.9147 49.3964 70.7323L56.6604 77.9876C56.1898 78.8456 55.9386 79.8142 55.9386 80.8228C55.9386 82.4022 56.5515 83.8842 57.6646 84.996L60.793 88.1205C61.9053 89.2317 63.388 89.8437 64.9679 89.8437C66.5477 89.8437 68.0304 89.2318 69.1429 88.1205L88.1169 69.1696C89.23 68.0579 89.8429 66.575 89.8429 64.994C89.8428 63.4132 89.2298 61.9304 88.1157 60.8177ZM41.1364 18.1819L48.8158 19.6355L44.2193 24.2302C43.5082 23.8885 42.5337 23.2511 41.4646 22.2284C40.0012 20.8285 38.9544 19.2122 38.8592 18.2041C38.859 18.2035 38.859 18.203 38.859 18.2025C38.859 18.2023 38.8588 18.2021 38.8588 18.202C38.852 18.1295 38.8502 18.0717 38.8511 18.0276C39.0826 17.9713 39.6975 17.9089 41.1364 18.1819ZM32.1614 19.6253C33.0582 18.7293 34.4514 18.6259 35.4648 19.3122C36.0391 21.72 38.0931 23.9024 39.0172 24.7865C39.702 25.4419 41.8995 27.4066 44.1175 27.9466C44.4175 28.3767 44.5808 28.8895 44.5808 29.4305C44.5808 30.1275 44.3128 30.7791 43.8243 31.2671C43.3372 31.755 42.6845 32.0236 41.9863 32.0236C41.2879 32.0236 40.6353 31.755 40.1459 31.2648L40.1457 31.2646L40.1448 31.2637L32.1612 23.2945C31.6745 22.8085 31.4064 22.1569 31.4064 21.4601C31.4066 20.7631 31.6746 20.1115 32.1614 19.6253ZM27.5355 27.3503C28.0226 26.8625 28.6746 26.5938 29.3717 26.5938C30.0697 26.5938 30.7238 26.8631 31.2141 27.3528L37.6428 33.7686C38.6551 34.7825 38.6551 36.4324 37.6463 37.4428C37.1565 37.9306 36.5016 38.1992 35.8021 38.1992C35.1027 38.1992 34.4478 37.9306 33.9601 37.4449L33.96 37.4447L29.0829 32.5687C29.0754 32.5612 29.0671 32.5541 29.0594 32.5464L27.5336 31.0213C27.044 30.5323 26.7746 29.8795 26.7751 29.183C26.7758 28.4889 27.0444 27.8393 27.5355 27.3503ZM22.9009 35.0738C23.3883 34.5871 24.0417 34.319 24.7409 34.319C25.4344 34.319 26.0821 34.5832 26.5675 35.0615L31.4595 39.9512C31.9473 40.4371 32.216 41.088 32.216 41.7841C32.216 42.48 31.9473 43.1309 31.4575 43.6187C30.9703 44.1053 30.3176 44.3733 29.6196 44.3733C28.9205 44.3733 28.2657 44.1046 27.7777 43.6187L26.0043 41.8473C26.0039 41.8468 26.0034 41.8465 26.003 41.8461L22.901 38.7478C22.412 38.2593 22.1427 37.6068 22.1427 36.9107C22.1427 36.2148 22.412 35.5621 22.9009 35.0738ZM19.8177 44.3526C20.3072 43.8636 20.9615 43.5943 21.6598 43.5943C22.358 43.5943 23.0121 43.8634 23.5015 44.3521L25.2774 46.1259C25.7654 46.6117 26.034 47.2626 26.034 47.9587C26.034 48.6548 25.7652 49.3056 25.2737 49.7953C24.7866 50.2831 24.134 50.5519 23.4358 50.5519C22.7374 50.5519 22.0847 50.2833 21.5941 49.7918L21.3717 49.5703C21.3688 49.5673 21.3665 49.5641 21.3637 49.5613C21.3603 49.5582 21.3568 49.5554 21.3535 49.5522L19.8194 48.0241C18.8071 47.0097 18.8062 45.3628 19.8177 44.3526ZM55.8939 64.4722C55.2029 63.7803 54.082 63.7798 53.3905 64.4706L51.8155 66.0436C50.3189 67.5402 47.6071 67.3518 44.9846 67.1699C42.1368 66.9719 39.1919 66.7677 37.2863 68.7241L30.7657 75.2368L14.4597 58.9547L20.2302 53.1946C21.184 53.7792 22.2846 54.0926 23.4361 54.0926C25.0812 54.0926 26.6239 53.4549 27.7762 52.3005C28.9361 51.1453 29.5751 49.6035 29.5751 47.9589C29.5751 47.9436 29.574 47.9285 29.574 47.9132C29.5893 47.9134 29.6046 47.9143 29.6199 47.9143C31.2628 47.9143 32.8042 47.2785 33.958 46.126C35.118 44.9708 35.757 43.4289 35.757 41.7844C35.757 41.7691 35.7559 41.754 35.7559 41.7387C35.7714 41.7387 35.7869 41.7398 35.8025 41.7398C37.4448 41.7398 38.9871 41.1047 40.1487 39.9479C41.3546 38.7401 41.951 37.1499 41.9396 35.5632C41.9554 35.5633 41.9712 35.5642 41.987 35.5642C43.6321 35.564 45.1746 34.9265 46.3286 33.7704C47.4851 32.6153 48.1221 31.0741 48.1221 29.4305C48.1221 28.2811 47.8096 27.1823 47.2269 26.2304L52.2846 21.1748C52.6615 20.7995 53.1263 20.5639 53.6134 20.4667C53.6661 20.4611 53.7181 20.4527 53.7696 20.4425C54.5512 20.3347 55.3719 20.5759 55.9695 21.1711C56.9819 22.1852 56.9818 23.835 55.9732 24.8454L54.4328 26.3795C54.4277 26.3846 54.4223 26.3891 54.4172 26.3942L52.643 28.1654C51.9512 28.8562 51.9505 29.9772 52.6415 30.6689C53.3326 31.3608 54.4534 31.3613 55.1449 30.6705L56.6915 29.1261C56.6918 29.1257 56.6922 29.1254 56.6925 29.125L56.9263 28.8921C57.9414 27.8863 59.5861 27.8884 60.6001 28.9011C61.0881 29.3869 61.3569 30.0378 61.3569 30.7339C61.3569 31.4298 61.0881 32.0808 60.5963 32.5705L59.0471 34.1228C59.0469 34.123 59.0468 34.1232 59.0466 34.1235L57.2726 35.8903C56.5798 36.5802 56.5776 37.7012 57.2675 38.3938C57.9574 39.0865 59.0782 39.0886 59.771 38.3989L61.553 36.624C62.0401 36.136 62.6928 35.8674 63.391 35.8674C64.0894 35.8674 64.7422 36.136 65.2328 36.6275C65.7208 37.1136 65.9894 37.7645 65.9894 38.4606C65.9894 39.1565 65.7208 39.8074 65.23 40.2961L62.1416 43.3858C61.4504 44.0773 61.4506 45.1981 62.1419 45.8893C62.4877 46.2348 62.9405 46.4075 63.3935 46.4075C63.8466 46.4075 64.2998 46.2345 64.6454 45.8887L66.159 44.3746C66.1677 44.3663 66.177 44.3591 66.1856 44.3505C66.6727 43.8625 67.3253 43.5939 68.0236 43.5939C68.7219 43.5939 69.3746 43.8625 69.8635 44.3522C70.8747 45.3624 70.8738 47.0095 69.8635 48.0217L68.3245 49.5589C68.324 49.5594 68.3233 49.5599 68.3227 49.5605C68.3222 49.561 68.3217 49.5617 68.3212 49.5622L65.8785 52.0019C65.1868 52.6929 65.1861 53.8138 65.8769 54.5055C66.2227 54.8516 66.6762 55.0248 67.1295 55.0248C67.5822 55.0248 68.035 54.8522 68.3806 54.5071L69.5753 53.3137L75.3018 59.0335L58.9972 75.3182L53.1553 69.4833C53.5626 69.2214 53.9523 68.9134 54.3181 68.5476L55.8922 66.9755C56.5842 66.2848 56.5849 65.1639 55.8939 64.4722ZM85.6147 66.6645L66.6407 85.6155C66.1968 86.0588 65.6027 86.303 64.9678 86.303C64.3328 86.303 63.7387 86.0588 63.2947 85.6153L60.1663 82.4908C59.723 82.0482 59.4788 81.4558 59.4788 80.8228C59.4788 80.19 59.723 79.5976 60.1663 79.1548L79.1403 60.2038C79.5843 59.7603 80.1783 59.5162 80.8134 59.5162C81.4483 59.5162 82.0425 59.7603 82.4875 60.2049L85.6149 63.3234C86.0582 63.7662 86.3023 64.3593 86.3023 64.9939C86.3022 65.6286 86.058 66.2219 85.6147 66.6645Z" fill="#2E2D2A"/>
<path d="M21.3358 9.94393C21.6814 10.2888 22.1338 10.4611 22.5863 10.4611C23.0398 10.4611 23.4935 10.2878 23.8393 9.94129C24.5299 9.24924 24.5289 8.12846 23.8368 7.43782L17.386 0.99983C16.6941 0.309185 15.5732 0.310064 14.8825 1.00229C14.1919 1.69434 14.1929 2.81512 14.885 3.50577L21.3358 9.94393Z" fill="#2E2D2A"/>
<path d="M67.0993 10.4611C67.552 10.4611 68.0048 10.2885 68.3504 9.94343L74.7963 3.50526C75.488 2.81444 75.4887 1.69349 74.7977 1.00179C74.1069 0.310089 72.9861 0.309386 72.2942 1.00038L65.8483 7.43855C65.1566 8.12937 65.1559 9.25032 65.8469 9.94202C66.1927 10.2881 66.646 10.4611 67.0993 10.4611Z" fill="#2E2D2A"/>
<path d="M11.042 76.1491C10.3567 76.8463 10.3662 77.9672 11.0635 78.6526L11.0686 78.6575C11.4126 78.9957 11.8592 79.1641 12.3057 79.1641C12.764 79.1641 13.2222 78.9868 13.5694 78.6336C14.2548 77.9365 14.2427 76.8131 13.5455 76.1277C12.8485 75.4423 11.7278 75.452 11.042 76.1491Z" fill="#2E2D2A"/>
<path d="M60.224 61.9219C60.4933 61.9219 60.7665 61.8606 61.0229 61.7314C61.8959 61.2911 62.2465 60.2265 61.8064 59.3536C61.3661 58.4807 60.3013 58.1298 59.4286 58.5701L59.4188 58.5751C58.5458 59.0154 58.2001 60.0775 58.6402 60.9504C58.951 61.567 59.5761 61.9219 60.224 61.9219Z" fill="#2E2D2A"/>
</g>
<defs>
<clipPath id="clip0_1192_6318">
<rect width="90" height="90" fill="white"/>
</clipPath>
</defs>
</svg>
