<svg width="90" height="90" viewBox="0 0 90 90" fill="none" xmlns="http://www.w3.org/2000/svg">
<g clip-path="url(#clip0_29_8111)">
<path d="M40.1995 22.1218C41.698 20.9973 43.1847 19.8571 44.6949 18.7483C46.9718 17.0752 49.6479 17.2594 51.3967 19.1832C53.2121 21.1775 53.1221 23.6146 51.1072 25.8166C47.8952 29.3312 44.6166 32.787 41.4554 36.3486C39.7692 38.2489 37.8287 38.9855 35.3521 38.4448C34.2097 38.198 33.0321 38.1157 31.874 37.9237C30.6964 37.7278 30.0039 37.9903 30.0039 39.3891C30.0118 42.9781 29.957 46.5711 29.8866 50.1601C29.8631 51.3747 30.3521 51.7744 31.4124 51.1984C34.8357 49.3294 37.6565 50.3247 40.5438 52.6129C44.6792 55.8924 49.061 58.8584 53.3216 61.9772C56.0485 63.9755 56.5454 66.777 54.6949 69.4688C52.8952 72.09 50.1917 72.5994 47.3748 70.8832C44.3701 69.0495 41.3498 67.2354 38.3255 65.4291C37.8952 65.1705 37.4257 64.6494 36.9249 64.9511C36.3967 65.2646 36.7097 65.8993 36.7723 66.393C37.3161 70.7265 37.8756 75.06 38.4272 79.3974C38.8263 82.5436 37.054 85.0199 33.9163 85.7017C30.8607 86.3678 28.3334 84.9494 27.4492 81.8384C26.2872 77.7596 25.2113 73.6533 24.2684 69.5197C23.842 67.6507 22.8052 66.4008 21.3772 65.2724C20.6299 65.8758 20.9468 66.6438 20.9429 67.2942C20.9155 73.7591 20.9272 80.2202 20.9233 86.6851C20.9233 87.7626 20.9546 88.7657 19.3819 88.8479C17.7308 88.9381 17.3866 88.1153 17.3944 86.7204C17.4218 82.0186 17.3944 77.3168 17.4061 72.6189C17.4139 69.2258 17.4061 65.8288 17.5078 62.4357C17.5391 61.4444 17.1323 60.8096 16.475 60.2493C13.8967 58.0552 12.8795 55.2419 12.946 51.9076C12.9773 50.3482 12.6917 48.7848 12.6565 47.2215C12.6291 46.0382 12.6604 45.188 10.9546 45.2702C9.56574 45.3369 9.11582 43.605 10.1839 42.5119C10.9077 41.7674 11.7449 41.1248 12.59 40.5136C14.3193 39.2598 15.6103 39.8083 15.7864 41.9712C16.0368 45.09 16.2481 48.2245 16.2676 51.3512C16.2872 54.137 17.1127 56.3821 19.2606 58.255C21.2207 59.9633 22.8756 62.0243 24.82 63.76C26.3733 65.147 27.1323 66.8201 27.5978 68.7792C28.482 72.5249 29.464 76.2472 30.4108 79.9772C30.7708 81.4035 31.3067 82.6573 33.1416 82.3438C34.9726 82.0304 35.1017 80.6747 34.9296 79.2093C34.331 74.1588 33.6894 69.1122 33.1064 64.0578C32.9421 62.6198 32.3709 61.4522 31.3028 60.4884C30.8686 60.0965 30.579 59.5323 30.1174 59.1954C26.4593 56.5193 25.8255 52.8284 26.3733 48.6359C26.874 44.8079 26.5963 40.9407 26.7488 37.0931C26.8545 34.4365 27.5274 33.888 30.1682 34.2485C32.1049 34.511 34.0532 34.7187 35.9703 35.083C37.1949 35.3142 38.0634 35.0517 38.9085 34.1074C42.0423 30.6085 45.2387 27.1684 48.4116 23.7086C48.9906 23.0778 49.6909 22.4509 48.8067 21.5576C48.0321 20.7779 47.3122 21.0874 46.5571 21.6594C43.5877 23.8967 40.5438 26.036 37.6448 28.3595C36.2168 29.5036 34.867 29.7779 33.1338 29.2607C30.0744 28.3477 26.9679 27.5954 23.8811 26.7766C21.2989 26.0909 18.9046 26.4357 17.0188 28.4183C12.7934 32.8575 8.6659 37.3908 4.44055 41.834C3.56809 42.7509 3.57983 43.3895 4.38969 44.2985C6.25588 46.3908 8.05166 48.5458 9.867 50.6812C10.6651 51.6177 11.4672 52.6912 10.1995 53.7139C9.11582 54.5915 8.12991 53.898 7.34352 52.9733C5.27388 50.5402 3.15729 48.1423 1.13851 45.666C-0.422519 43.75 -0.356009 42.0299 1.29892 40.2315C5.62599 35.5297 9.95698 30.824 14.3545 26.1888C17.0579 23.3443 20.4499 22.545 24.2175 23.4226C26.9445 24.0574 29.6675 24.743 32.3513 25.5423C33.7794 25.9694 34.4875 25.558 35.0704 24.2415C37.8443 17.9764 40.6886 11.7465 43.5133 5.50098C43.8615 4.7291 44.2488 3.96898 44.5657 3.18535C44.9687 2.19406 45.4538 1.70821 46.6354 2.27242C47.8091 2.83272 48.1964 3.43611 47.6174 4.69776C45.1956 9.97551 42.8326 15.2807 40.4499 20.578C40.2661 20.9894 40.09 21.4087 39.9139 21.824C40.0118 21.9298 40.1096 22.0317 40.2074 22.1375L40.1995 22.1218ZM34.8553 53.5689C34.1315 53.8471 33.0399 54.2585 31.9601 54.6934C31.2246 54.9873 31.385 55.477 31.788 55.9198C33.1064 57.3577 34.2058 59.2228 35.8333 60.1122C40.3482 62.5806 44.6283 65.4291 49.1119 67.9446C50.2661 68.5911 51.1698 68.642 51.9445 67.447C52.7074 66.2637 52.3513 65.4174 51.2676 64.6455C46.4437 61.2054 41.6471 57.7339 36.8388 54.2742C36.3654 53.9333 35.9116 53.5415 34.8592 53.5728L34.8553 53.5689Z" fill="#2E2D2A"/>
<path d="M88.0478 1.44511e-05C89.065 -0.0195763 89.7145 0.344812 89.8749 1.26166C90.0666 2.35483 89.4484 2.9543 88.4938 3.32261C84.7223 4.77233 80.9547 6.23772 77.1832 7.68743C73.5955 9.07054 70.0157 10.4772 66.4046 11.7976C65.3131 12.1972 64.734 12.8555 64.3663 13.9369C61.9445 21.0405 59.4836 28.1284 56.9993 35.2125C56.2677 37.2969 57.2145 39.2129 57.5588 41.1485C59.0455 49.4981 60.6926 57.8202 62.3123 66.1463C62.5783 67.5176 62.324 68.6696 61.5181 69.8294C57.3475 75.828 53.2473 81.8777 49.0807 87.8842C48.306 89.0009 47.5314 90.8111 45.7904 89.5925C44.1628 88.4523 45.5087 87.128 46.2403 86.0505C50.0548 80.4397 53.8772 74.8328 57.7857 69.2887C58.7246 67.9565 59.0063 66.7183 58.6933 65.1158C56.9171 56.0884 55.2505 47.0414 53.4977 38.01C53.2395 36.6739 53.3295 35.4476 53.7755 34.1781C56.3929 26.6591 58.9829 19.1324 61.5728 11.6017C61.9484 10.5085 62.4805 9.65826 63.662 9.21159C71.4672 6.26122 79.2528 3.26384 87.0462 0.28604C87.4101 0.148904 87.7935 0.0744594 88.0556 1.44511e-05H88.0478Z" fill="#2E2D2A"/>
<path d="M14.8865 12.1032C14.8865 6.50809 19.2292 2.18245 24.8043 2.21379C30.1564 2.24514 34.5852 6.68832 34.6361 12.0719C34.683 17.4593 30.0625 22.1337 24.7182 22.1023C19.1783 22.071 14.8826 17.7023 14.8865 12.1032ZM24.6791 18.5603C28.255 18.5603 31.2715 15.6531 31.2715 12.2051C31.2715 8.64348 28.1963 5.63042 24.6048 5.66569C20.9937 5.70487 18.2081 8.54161 18.2237 12.1698C18.2394 15.8176 21.0015 18.5564 24.6752 18.5564L24.6791 18.5603Z" fill="#2E2D2A"/>
<path d="M90.0001 87.7863C90.0079 88.8991 89.7301 89.8316 88.4625 89.9021C87.1206 89.9766 86.7372 88.9735 86.5572 87.8647C85.5009 81.3018 84.4484 74.7389 83.3921 68.1799C83.2278 67.1494 83.0909 66.115 82.8991 65.0924C82.6801 63.9091 82.6488 62.7219 84.1042 62.4516C85.7082 62.1538 86.0447 63.4272 86.2442 64.634C86.9445 68.9439 87.6096 73.2617 88.306 77.5717C88.8577 80.9805 89.4367 84.3854 90.004 87.7903L90.0001 87.7863Z" fill="#2E2D2A"/>
<path d="M71.1033 72.4506C70.9859 72.7327 70.8059 73.2186 70.579 73.677C68.1338 78.5629 65.6807 83.4489 63.2277 88.3348C62.6995 89.3849 62.0462 90.3879 60.6925 89.7571C59.331 89.1263 59.6479 87.9822 60.176 86.9164C62.6878 81.8464 65.2073 76.7763 67.7308 71.7101C68.2003 70.7697 68.8498 70.0566 70.0274 70.3818C70.935 70.6326 71.162 71.3653 71.1033 72.4467V72.4506Z" fill="#2E2D2A"/>
</g>
<defs>
<clipPath id="clip0_29_8111">
<rect width="90" height="90" fill="white"/>
</clipPath>
</defs>
</svg>
