<svg width="90" height="90" viewBox="0 0 90 90" fill="none" xmlns="http://www.w3.org/2000/svg">
<path d="M2.82471 44.0373C2.84842 19.7142 20.0453 1.66757 42.0601 0.110329C60.3597 -1.18606 76.6792 9.05855 83.999 24.7021C84.3705 25.4966 84.8725 26.1448 85.493 26.7495C86.8487 28.0735 87.6392 29.6466 86.8803 31.5556C86.1451 33.4014 84.5089 33.8875 82.7066 33.9863C79.9478 34.1405 77.189 34.3499 74.4263 34.4053C72.5054 34.4408 71.4264 35.2867 70.7861 37.085C69.8139 39.8161 69.4226 42.5946 69.8415 45.4404C70.6241 50.7642 68.3396 54.519 63.9011 57.0999C62.4545 57.9418 61.4466 58.9655 60.7273 60.4476C58.9132 64.1787 57.0397 67.8781 55.1307 71.5617C54.4627 72.8502 54.2888 74.0834 54.5378 75.5418C54.9331 77.8777 54.9687 80.261 54.4351 82.6087C53.5102 86.6717 50.874 88.9523 46.8781 89.719C42.2933 90.6004 38.3765 89.5056 35.5308 85.5888C34.183 83.7351 33.5388 81.589 33.1791 79.3598C32.9933 78.2018 32.5467 77.269 31.6258 76.4983C28.3967 73.7948 25.1913 71.0558 22.0096 68.2971C21.318 67.6963 20.6856 67.3445 19.7133 67.5738C15.1522 68.6449 11.6939 66.6212 9.44892 62.9929C5.4491 56.5308 2.88004 49.5074 2.82471 44.0373ZM6.37791 41.3496C6.00639 48.8236 9.16435 55.6613 12.0536 60.8073C13.7491 63.8269 16.3775 64.7992 19.8081 64.0799C21.9978 63.6214 24.1874 63.1431 26.3415 62.5503C30.4717 61.4159 34.5901 60.1788 38.1591 57.7007C42.2222 54.8787 43.317 50.5429 43.7597 45.9897C44.1589 41.8476 46.2576 39.0098 49.9215 37.2431C54.6841 34.9467 59.6206 33.1603 64.8417 32.2077C70.4265 31.192 76.0705 30.8639 81.7264 30.6268C82.2916 30.6031 83.0504 30.86 83.3508 30.2276C83.663 29.5715 82.9951 29.1644 82.5682 28.7968C81.8963 28.2158 81.5327 27.4688 81.1454 26.6941C73.4342 11.2758 61.0988 3.14577 43.7083 3.52125C23.9147 3.95601 6.07753 20.2715 6.37791 41.3496ZM49.6962 56.6849C53.5656 56.3924 57.3915 56.2976 60.9921 54.7561C64.7666 53.1396 66.5729 50.5152 66.4306 46.5194C66.312 43.1598 66.1026 39.8042 67.3238 36.5593C67.7705 35.3697 67.1737 35.2116 66.1302 35.4171C60.9368 36.4526 55.9291 38.0178 51.2178 40.4682C48.9096 41.6698 47.4749 43.4681 47.1587 46.1478C46.7991 49.2149 46.4671 52.3057 44.8742 55.0723C44.4158 55.8668 44.7201 56.2936 45.6331 56.3529C47.0125 56.4438 48.3879 56.5743 49.6962 56.681V56.6849ZM51.4076 78.3678C51.3087 76.8896 51.1704 74.8501 50.3167 72.953C48.5342 68.9927 46.72 65.0521 44.9651 61.08C44.5422 60.1275 43.9138 59.6769 42.8901 59.5504C41.1906 59.337 38.997 60.9337 38.6453 62.8348C37.9062 66.8426 37.2935 70.878 36.5149 74.8778C36.0802 77.1069 36.4635 79.1899 37.1908 81.253C38.6769 85.4663 41.574 87.0986 46.1627 86.3476C49.6527 85.7785 51.4115 83.2885 51.4076 78.3678ZM35.0486 63.4C32.0527 64.3328 29.369 65.1786 26.6814 65.9968C25.2941 66.4197 25.8395 67.0283 26.5114 67.6133C28.3928 69.2496 30.3018 70.8582 32.1871 72.4906C32.9261 73.1308 33.4004 73.2297 33.5862 72.04C34.0249 69.2614 34.5229 66.4908 35.0486 63.4ZM57.3282 59.6097C54.4627 59.7757 51.9293 59.9219 49.3997 60.0761C48.6962 60.1196 48.4591 60.5029 48.7436 61.1432C49.8977 63.7558 51.0676 66.3604 52.4115 69.3642C54.1584 65.898 55.684 62.8783 57.3322 59.6097H57.3282Z" fill="#2E2D2A"/>
</svg>
