<svg width="90" height="90" viewBox="0 0 90 90" fill="none" xmlns="http://www.w3.org/2000/svg">
<g clip-path="url(#clip0_29_8002)">
<path d="M46.0668 0.00125249C53.4861 0.36749 60.0784 3.14775 66.2217 7.09367C73.4283 11.7169 79.5323 17.5531 84.2894 24.6691C87.3493 29.2451 88.9915 34.2071 86.605 39.7164C85.8017 41.5712 84.5297 43.0362 83.0962 44.4066C70.8568 56.0868 58.6213 67.771 46.3819 79.4512C44.4365 81.3061 42.4635 83.1333 40.5378 85.0078C34.4102 90.9661 27.2705 91.7773 20.5129 86.4491C11.7586 79.5497 5.54436 70.7088 2.83893 59.7177C1.67327 54.9724 2.24035 50.3373 4.64255 46.0015C4.89459 45.5447 5.32383 45.0643 5.14268 44.5523C4.11092 41.587 6.10356 39.6928 7.60002 37.6883C13.9166 29.2294 20.2923 20.8138 26.6404 12.3785C27.6801 10.9963 28.7631 9.75578 30.6494 9.46437C31.7875 9.29109 32.2167 8.12149 32.7759 7.27088C35.0206 3.86841 37.8363 1.27718 41.9397 0.332048C43.3062 0.0170046 44.6727 0.0681992 46.0629 -0.00268555L46.0668 0.00125249ZM15.2871 55.2717C15.2201 56.8823 15.5706 58.2764 16.1101 59.6271C18.5911 65.8138 22.2338 71.1932 27.3572 75.5014C29.3538 77.179 30.0941 77.1987 31.5827 75.781C45.3895 62.624 59.1962 49.4631 72.9951 36.2942C75.0626 34.3213 75.1217 33.8842 73.4441 31.4859C69.6045 25.9963 64.8473 21.4242 59.2199 17.8012C55.5614 15.4463 51.6273 13.6426 47.2797 12.9377C44.6727 12.5163 41.5774 15.2848 42.3532 17.4625C43.0463 19.404 42.5423 20.8965 41.4199 22.393C34.4023 31.7143 27.3966 41.0435 20.3711 50.3609C19.6544 51.31 18.851 52.3339 17.5948 52.3969C15.5234 52.5032 15.0469 53.6453 15.2831 55.2756L15.2871 55.2717ZM5.81609 55.1063C5.83972 56.5436 5.85547 57.985 6.2414 59.3948C8.91533 69.2438 14.5625 77.1869 22.3559 83.5389C27.5659 87.7841 33.0437 87.4297 37.4858 83.2003C51.6825 69.6731 65.757 56.016 80.1151 42.666C85.4551 37.7001 84.8801 31.8403 81.84 27.1186C79.1542 22.9482 75.8266 19.3331 72.1839 16.0173C66.0878 10.4686 59.2593 6.1761 51.1784 4.10863C43.5977 2.16718 39.636 3.56912 35.2923 9.58645C34.3984 10.823 34.5441 11.5279 35.7846 12.2131C36.1272 12.4021 36.4265 12.666 36.7494 12.8905C39.1359 14.5563 39.254 14.635 40.7701 12.2643C42.3729 9.75578 44.5192 8.92486 47.3152 9.49587C60.929 12.2801 70.526 20.5224 77.6342 32.0254C79.044 34.3095 78.5202 35.7311 76.248 37.901C62.3034 51.2155 48.2682 64.4434 34.4417 77.876C31.0511 81.1722 27.8691 80.3649 25.2346 78.1911C19.5362 73.489 15.5352 67.5544 12.8927 60.7101C11.9712 58.3276 11.1246 55.7088 12.0382 53.2239C12.9282 50.802 12.0382 49.5851 10.1046 48.5612C9.87621 48.4392 9.65962 48.2777 9.47059 48.0966C8.25373 46.9112 7.59214 47.5019 7.05657 48.7896C6.21383 50.8177 5.69401 52.8931 5.82396 55.1063H5.81609ZM31.1023 13.1661C30.3461 13.1346 30.0508 13.5954 29.7397 14.0089C22.8206 23.2278 15.9132 32.4586 8.96652 41.6579C8.19466 42.6778 8.45458 43.2291 9.38001 43.8671C11.4278 45.2809 13.4598 46.7222 15.4485 48.2147C16.5315 49.0259 17.2325 48.8527 18.0358 47.7776C24.8171 38.7043 31.626 29.6508 38.4625 20.6169C39.2855 19.53 39.191 18.8251 38.0647 18.0532C36.0091 16.6513 34.0282 15.147 32.0041 13.6978C31.693 13.4733 31.3385 13.3 31.1023 13.1622V13.1661Z" fill="#2E2D2A"/>
</g>
<defs>
<clipPath id="clip0_29_8002">
<rect width="90" height="90" fill="white"/>
</clipPath>
</defs>
</svg>
