<svg width="90" height="90" viewBox="0 0 90 90" fill="none" xmlns="http://www.w3.org/2000/svg">
<g clip-path="url(#clip0_29_8650)">
<path d="M49.9291 51.3016C49.5616 53.4101 50.343 55.7071 51.3467 58.0134C53.6476 63.2969 55.8373 68.6299 58.0486 73.9536C58.9319 76.0745 58.5675 78.1242 57.153 79.3577C54.9046 81.3209 51.9335 80.7366 50.4017 77.9789C47.5263 72.8067 44.651 67.6313 41.8559 62.4158C41.1641 61.1236 40.3858 60.394 38.8324 60.2981C36.7353 60.1683 34.6537 59.7756 32.5752 59.4325C31.8772 59.3181 31.5591 59.5159 31.3182 60.1652C30.2372 63.0527 29.6473 66.1134 28.2575 68.8896C28.0383 69.3286 28.3811 69.5543 28.6189 69.8047C29.0791 70.2901 29.5269 70.794 30.0303 71.2299C30.7314 71.8359 30.9321 72.3244 30.1415 73.0973C29.3848 73.8362 28.8999 73.7496 28.2606 73.0231C27.6522 72.3275 26.9542 71.7091 26.3026 71.0506C25.9289 70.6735 25.5212 70.4602 24.9622 70.3983C21.6112 70.0335 20.3326 68.2775 20.9904 64.8829C21.6668 61.3987 22.5316 57.9485 23.1215 54.4519C23.9615 49.4559 25.3698 48.2378 30.404 49.1499C31.766 49.3972 33.1651 49.4528 34.5394 49.6476C35.2189 49.7434 35.4999 49.5178 35.4968 48.8438C35.4876 47.0414 35.4752 45.239 35.503 43.4366C35.5154 42.6235 34.9471 42.4257 34.3727 42.1783C32.5289 41.39 30.6758 40.6233 28.8474 39.8009C26.3643 38.6849 25.6416 37.5657 25.8702 34.8482C26.2099 30.8477 26.6268 26.8534 27.087 22.8683C27.3742 20.3889 28.9586 19.0533 31.2101 19.2079C33.5326 19.3655 34.91 20.933 34.9656 23.4403C35.0243 26.065 35.1479 28.6898 35.1602 31.3176C35.1633 32.1987 35.4876 32.6006 36.3091 32.8294C41.612 34.2886 46.9086 35.7602 52.193 37.2875C53.0423 37.5317 53.4036 37.1885 53.8237 36.5919C55.2752 34.5298 56.7268 32.4646 58.2401 30.4489C59.7318 28.4641 62.3261 28.2075 64.2255 29.8058C65.3652 30.7642 65.6678 32.007 65.3435 33.4323C64.9822 35.0121 64.1699 36.394 63.4071 37.7914C62.0729 40.2276 60.6738 42.6297 59.3458 45.0721C58.4841 46.658 57.1684 47.3815 55.4142 47.2145C54.0337 47.0847 52.6593 46.8652 51.3004 46.5993C50.272 46.3984 49.8766 46.7415 49.923 47.771C49.9662 48.8005 49.9322 49.83 49.9322 51.3047L49.9291 51.3016ZM47.4584 50.6647C47.4584 48.4233 47.4676 46.8776 47.4584 45.3318C47.4491 44.0426 48.0637 43.5788 49.3176 43.7921C51.2417 44.1199 53.1782 44.3795 55.1054 44.7103C55.9485 44.8557 56.6465 44.7536 57.0912 43.9467C58.9536 40.5676 61.0321 37.306 62.6134 33.7723C62.9809 32.95 63.3114 32.0689 62.2057 31.5155C61.1494 30.9868 60.507 31.5217 59.9079 32.3873C58.4131 34.5452 56.7824 36.6104 55.3463 38.8023C54.5155 40.0699 53.6075 40.2739 52.2208 39.872C46.4948 38.2118 40.7441 36.6382 35.0027 35.0275C32.7327 34.3906 32.7049 34.3535 32.6709 31.9483C32.6308 29.1164 32.6184 26.2814 32.569 23.4495C32.5505 22.4386 32.0687 21.7708 30.997 21.7182C29.9932 21.6719 29.6906 22.3551 29.5701 23.196C29.5269 23.5021 29.4404 23.802 29.4095 24.108C29.0667 27.6417 28.7887 31.1847 28.3687 34.7091C28.1834 36.2703 28.7702 37.1112 30.16 37.6646C32.3096 38.521 34.4066 39.5072 36.5531 40.3698C37.6001 40.7902 38.0695 41.4054 38.0355 42.5741C37.9645 45.1988 38.0232 47.8267 38.0077 50.4545C37.9954 52.1796 37.5599 52.5506 35.8551 52.3311C33.7148 52.059 31.5776 51.7221 29.4311 51.5118C26.3798 51.2119 26.3736 51.2521 25.7528 54.1768C25.6447 54.6807 25.5459 55.1846 25.444 55.6886C24.7552 59.0646 24.0573 62.4406 23.3809 65.8197C23.1894 66.7781 23.3932 67.6159 24.4557 67.8972C25.5366 68.1847 26.2284 67.6499 26.596 66.642C26.6855 66.4009 26.7442 66.1505 26.8245 65.9062C27.6707 63.3155 28.5386 60.7278 29.3601 58.1278C29.7369 56.9407 30.4133 56.5295 31.6795 56.7428C34.8236 57.2715 37.98 57.7135 41.1394 58.1247C42.0598 58.2453 42.6064 58.641 43.0419 59.4448C45.1266 63.2908 47.2638 67.1089 49.3794 70.9363C50.4758 72.918 51.5537 74.9089 52.6686 76.8783C53.1813 77.7841 53.9626 78.2602 54.9911 77.7687C56.0381 77.2678 56.3037 76.3898 55.8929 75.3078C55.7292 74.8749 55.5779 74.4359 55.3988 74.0093C53.9843 70.6395 52.4709 67.3098 51.1707 63.8967C49.4535 59.3892 46.4145 55.2125 47.4615 50.6586L47.4584 50.6647Z" fill="#2E2D2A"/>
<path d="M58.1198 15.4886C58.1198 18.9945 58.1692 22.0242 58.0858 25.0509C58.0642 25.8393 59.0556 26.099 58.8147 26.7822C58.6078 27.3696 58.4873 28.3187 57.7368 28.3063C56.8906 28.294 56.0042 27.8766 55.7417 26.8935C55.612 26.4081 55.6336 25.8733 55.6336 25.3601C55.6274 21.5481 55.5657 17.7362 55.6645 13.9274C55.7016 12.5084 55.1642 12.0601 53.8516 11.9581C46.1645 11.3552 38.4804 10.6936 30.7902 10.0722C30.049 10.0134 29.2769 9.9918 28.863 9.31166C27.118 6.45194 24.2612 6.05931 21.3148 5.70687C18.7144 5.39771 16.1417 4.86287 13.5412 4.54134C12.346 4.39295 12.5004 3.70662 12.5684 2.9059C12.6518 1.93514 13.1953 1.93205 13.9705 2.0588C17.9762 2.7204 21.982 3.38818 26.0031 3.94158C27.1767 4.10234 28.0631 4.54443 28.6931 5.48428C29.8667 7.23411 31.5036 7.70094 33.5513 7.83697C41.0932 8.3409 48.6198 9.04887 56.1525 9.65791C57.1624 9.7383 57.8573 10.1464 58.4009 11.0244C60.0316 13.6461 61.7673 16.2028 63.3825 18.8337C64.1052 20.0147 64.9916 20.9113 66.2146 21.5667C67.8453 22.4416 69.3988 23.4587 71.0171 24.3615C71.8201 24.8067 72.1753 25.4219 72.2803 26.3215C74.1581 42.5245 76.0482 58.7244 77.9785 74.9212C78.1051 75.9755 77.7469 76.263 76.8141 76.4176C75.8042 76.5876 75.5942 76.1393 75.4923 75.2706C74.7233 68.5742 73.9079 61.884 73.1296 55.1877C72.0641 46.0397 71.0079 36.8886 69.964 27.7406C69.8682 26.8997 69.5378 26.2845 68.744 25.9382C64.3399 24.0121 61.0754 20.8989 58.9722 16.5645C58.8456 16.3017 58.6047 16.0946 58.1198 15.4917V15.4886Z" fill="#2E2D2A"/>
<path d="M45.3398 18.8461C49.4845 18.8677 52.8169 22.1819 52.8169 26.2844C52.8169 30.5539 49.4258 33.899 45.136 33.8588C40.9573 33.8217 37.7361 30.455 37.77 26.1577C37.8009 22.0335 41.1272 18.8244 45.3398 18.8461ZM50.2906 26.3555C50.2999 23.5916 48.0978 21.2977 45.38 21.2451C42.6467 21.1926 40.2346 23.5484 40.2099 26.2999C40.1852 29.073 42.5046 31.3639 45.3275 31.3484C48.1163 31.333 50.2844 29.1534 50.2937 26.3555H50.2906Z" fill="#2E2D2A"/>
<path d="M35.4784 65.9124C36.8589 65.594 37.628 66.3452 38.1561 67.8756C39.9844 73.1776 41.9302 78.4395 43.8759 83.6983C44.2249 84.6412 44.2002 85.1606 43.1161 85.5502C41.995 85.9552 41.8066 85.3492 41.5194 84.5516C39.7497 79.6112 37.9368 74.6863 36.1795 69.7429C35.8676 68.868 35.4969 68.2868 34.4561 68.4259C33.474 68.5588 32.9304 68.262 32.9552 67.0934C32.9799 65.9433 33.613 65.863 34.4623 65.9062C34.7187 65.9186 34.9781 65.9062 35.4815 65.9062L35.4784 65.9124Z" fill="#2E2D2A"/>
<path d="M21.6545 47.1989C21.7996 48.2191 21.0275 48.2036 20.3851 48.3458C19.471 48.5499 19.227 48.0119 19.1127 47.2607C18.6865 44.4721 18.2171 41.6897 17.8186 38.898C17.6642 37.8128 17.3986 37.0677 16.0428 37.2285C15.1873 37.3305 12.3089 35.018 12.0494 34.1709C11.8085 33.3764 12.5961 33.16 12.942 32.7024C13.2508 32.2974 13.677 32.2912 13.9828 32.6901C15.1904 34.2699 16.713 35.0428 18.7452 34.8387C19.2609 34.7862 19.6902 35.2437 19.786 35.8157C20.4191 39.609 21.0368 43.4055 21.6607 47.202L21.6545 47.1989Z" fill="#2E2D2A"/>
<path d="M64.7599 70.5034C64.8989 71.0754 64.0897 71.0043 63.5462 71.1588C62.876 71.3505 62.3973 71.2949 62.2305 70.4045C61.4769 66.3112 60.6616 62.2303 59.8647 58.1464C59.7103 57.3549 60.0624 57.0272 60.8283 56.9314C61.6005 56.8324 62.2089 56.7521 62.3911 57.8094C62.9748 61.1514 63.6326 64.481 64.2596 67.8137C64.4017 68.5712 64.5407 69.3286 64.7568 70.5065L64.7599 70.5034Z" fill="#2E2D2A"/>
<path d="M22.7632 22.3085C20.9719 22.7939 19.857 21.8201 19.2393 19.8322C18.7853 18.3699 18.1027 16.9755 17.4573 15.5781C17.0743 14.7465 17.5067 14.4837 18.1614 14.2395C18.7884 14.0045 19.3999 13.5995 19.7736 14.5888C20.1195 15.4978 20.6353 16.3572 20.8823 17.2909C21.4012 19.254 22.4451 20.2712 24.5885 19.8322C25.549 19.6374 25.9844 20.0795 25.9536 21.109C25.9289 21.9468 25.6602 22.358 24.7923 22.3147C24.2302 22.2869 23.665 22.3085 22.7663 22.3085H22.7632Z" fill="#2E2D2A"/>
<path d="M62.4931 80.5045C63.0304 80.4211 63.1972 80.755 63.3208 81.1971C63.7161 82.6347 64.1207 84.0691 64.553 85.4944C64.8156 86.3569 64.4295 86.6877 63.645 86.8918C62.8915 87.0896 62.3757 87.102 62.1502 86.1745C61.8352 84.876 61.3997 83.6085 61.06 82.3162C60.7419 81.1136 61.2268 80.5262 62.4931 80.5045Z" fill="#2E2D2A"/>
</g>
<defs>
<clipPath id="clip0_29_8650">
<rect width="66" height="85" fill="white" transform="translate(12 2)"/>
</clipPath>
</defs>
</svg>
