<svg width="88" height="90" viewBox="0 0 88 90" fill="none" xmlns="http://www.w3.org/2000/svg">
<path d="M48.1917 51.1236L48.1921 51.1236C48.2211 51.1253 48.2504 51.1262 48.2796 51.1262C49.0218 51.1262 49.6453 50.5481 49.6913 49.7972L49.8781 46.7503C50.1314 42.6183 53.573 39.3813 57.7127 39.3813H60.7149C61.4535 39.3813 62.0677 38.8135 62.1262 38.0774L62.1262 38.0774L62.5061 33.2814H62.6542C63.436 33.2814 64.0698 32.6478 64.0698 31.8658C64.0698 31.0838 63.436 30.4502 62.6542 30.4502H58.36C56.6667 30.4502 55.289 29.0725 55.289 27.3792C55.289 25.6859 56.6667 24.3082 58.36 24.3082H64.9409C67.2832 24.3082 69.4606 25.6692 70.4871 27.7745C70.8953 28.6118 71.1111 29.5469 71.1111 30.4782V42.8492C71.1111 43.823 70.7714 44.7742 70.1549 45.5278L66.809 49.6168C66.3137 50.2219 66.403 51.1139 67.0081 51.609C67.2712 51.8243 67.5885 51.9289 67.9038 51.9289C68.3133 51.9291 68.7201 51.7519 68.9998 51.41L72.3457 47.3211C73.3753 46.0631 73.9422 44.4751 73.9422 42.8494V30.4784C73.9422 29.1196 73.6275 27.7556 73.032 26.5341C72.1378 24.7001 70.6455 23.2549 68.8618 22.387V17.481C68.8618 14.058 66.0772 11.2734 62.6542 11.2734C60.7258 11.2734 59.0014 12.1584 57.8623 13.5418C56.7232 12.1584 54.9989 11.2734 53.0703 11.2734C51.1418 11.2734 49.4175 12.1584 48.2783 13.5418C47.1392 12.1584 45.4149 11.2734 43.4864 11.2734C41.558 11.2734 39.8336 12.1584 38.6945 13.5418C37.5554 12.1584 35.8311 11.2734 33.9025 11.2734C30.4795 11.2734 27.6949 14.058 27.6949 17.481V27.0741C27.6949 28.1692 27.9814 29.1982 28.481 30.0922V42.009C28.481 42.791 29.1148 43.4246 29.8966 43.4246C30.6784 43.4246 31.3122 42.791 31.3122 42.009V32.7138C32.101 33.0777 32.9783 33.2814 33.9024 33.2814C35.8307 33.2814 37.5552 32.3964 38.6944 31.0131C39.8335 32.3964 41.5578 33.2814 43.4864 33.2814C45.4147 33.2814 47.1391 32.3964 48.2782 31.0131C49.4173 32.3964 51.1416 33.2814 53.0702 33.2814C54.0075 33.2814 54.9194 33.0716 55.752 32.6717C56.5389 33.0612 57.4239 33.2814 58.3598 33.2814H59.666L59.4071 36.5501H57.7127C52.0794 36.5501 47.397 40.9543 47.0522 46.577L46.8654 49.624C46.8174 50.4043 47.4113 51.0756 48.1917 51.1236ZM33.9024 30.4503C32.0406 30.4503 30.526 28.9357 30.526 27.0741V17.481C30.526 15.6193 32.0406 14.1046 33.9024 14.1046C35.7641 14.1046 37.2787 15.6195 37.2787 17.481V27.0741C37.2787 28.9358 35.7641 30.4503 33.9024 30.4503ZM43.4864 30.4503C41.6246 30.4503 40.11 28.9357 40.11 27.0741V17.481C40.11 15.6193 41.6246 14.1046 43.4864 14.1046C45.3479 14.1046 46.8626 15.6195 46.8626 17.481V27.0741C46.8626 28.9358 45.3479 30.4503 43.4864 30.4503ZM52.4576 27.3795C52.4576 28.4996 52.7725 29.547 53.3165 30.44C53.2345 30.4466 53.1525 30.4503 53.0702 30.4503C51.2085 30.4503 49.6938 28.9357 49.6938 27.0741V17.481C49.6938 15.6193 51.2085 14.1046 53.0702 14.1046C54.9319 14.1046 56.4465 15.6195 56.4465 17.481V21.797C54.1288 22.5937 52.4576 24.7943 52.4576 27.3795ZM59.2778 21.4771V17.481C59.2778 15.6193 60.7925 14.1046 62.6542 14.1046C64.5157 14.1046 66.0304 15.6195 66.0304 17.481V21.5453C65.6712 21.5006 65.3076 21.477 64.9407 21.477L59.2778 21.4771Z" fill="#2E2D2A" stroke="#2E2D2A" stroke-width="0.2"/>
<path d="M65.2445 53.7641L65.2445 53.7641C65.8494 54.2591 65.9387 55.151 65.4436 55.7559L65.2445 53.7641ZM65.2445 53.7641C64.6395 53.2691 63.7477 53.3582 63.2524 53.9634L63.2524 53.9634L61.0155 56.6972C61.0155 56.6972 61.0155 56.6972 61.0155 56.6972C60.5297 57.2904 60.2623 58.0394 60.2623 58.8062V88.6846C60.2623 89.4665 60.8961 90.1002 61.6779 90.1002C62.4597 90.1002 63.0935 89.4665 63.0935 88.6846V58.8061C63.0935 58.6915 63.1336 58.5791 63.2063 58.4901C63.2064 58.4901 63.2064 58.4901 63.2064 58.4901L65.4436 55.7559L65.2445 53.7641Z" fill="#2E2D2A" stroke="#2E2D2A" stroke-width="0.2"/>
<path d="M34.0363 56.8322L34.0363 56.8322C32.3053 55.1706 31.3123 52.8408 31.3123 50.4414V47.62C31.3123 46.838 30.6785 46.2044 29.8967 46.2044C29.1149 46.2044 28.4811 46.838 28.4811 47.62V50.4414C28.4811 53.608 29.7911 56.6817 32.0755 58.8747L33.0077 59.7695C33.0077 59.7695 33.0077 59.7695 33.0077 59.7695C33.2273 59.9804 33.3534 60.2764 33.3534 60.5807V88.5391C33.3534 89.3211 33.9872 89.9548 34.769 89.9548C35.5508 89.9548 36.1846 89.3211 36.1846 88.5391V60.5807C36.1846 59.5091 35.7415 58.4693 34.9682 57.727L34.0363 56.8322Z" fill="#2E2D2A" stroke="#2E2D2A" stroke-width="0.2"/>
<path d="M67.9044 62.4259L67.9044 62.4259C67.4866 62.9707 67.4157 63.692 67.7192 64.3076C68.0227 64.9233 68.6384 65.3061 69.3248 65.3061H71.7062V88.5663C71.7062 89.3483 72.3401 89.9819 73.1219 89.9819C73.9037 89.9819 74.5375 89.3483 74.5375 88.5663V63.8905C74.5375 63.1085 73.9037 62.4749 73.1219 62.4749H71.4358L77.6786 54.3402L83.9215 62.4749H82.2357C81.454 62.4749 80.8201 63.1085 80.8201 63.8905V88.55C80.8201 89.332 81.454 89.9656 82.2357 89.9656C83.0175 89.9656 83.6514 89.332 83.6514 88.55V65.3061H86.0328C86.7192 65.3061 87.3349 64.9231 87.6386 64.3077C87.9422 63.6922 87.871 62.9704 87.453 62.4258L79.0992 51.5407C78.7579 51.0958 78.2397 50.8401 77.6788 50.8401C77.118 50.8401 76.5998 51.0956 76.2584 51.5405L67.9044 62.4259Z" fill="#2E2D2A" stroke="#2E2D2A" stroke-width="0.2"/>
<path d="M0.546118 62.4259L0.546105 62.4259C0.128251 62.9706 0.0572263 63.692 0.360874 64.3076C0.664522 64.9233 1.28027 65.3061 1.96667 65.3061H4.3481V75.9492C4.3481 76.7312 4.98192 77.3648 5.76371 77.3648C6.5455 77.3648 7.17933 76.7312 7.17933 75.9492V63.8905C7.17933 63.1085 6.5455 62.4749 5.76371 62.4749H4.07764L10.3205 54.3402L16.5633 62.4749H14.8772C14.0955 62.4749 13.4616 63.1085 13.4616 63.8905V88.55C13.4616 89.332 14.0955 89.9656 14.8772 89.9656C15.659 89.9656 16.2929 89.332 16.2929 88.55V65.3061H18.6741C19.3605 65.3061 19.9763 64.9231 20.2799 64.3075C20.5836 63.692 20.5124 62.9703 20.0943 62.4257L11.7407 51.5407C11.7407 51.5407 11.7407 51.5407 11.7407 51.5407C11.3994 51.0958 10.8812 50.8401 10.3203 50.8401C9.75946 50.8401 9.24143 51.0956 8.90009 51.5405L0.546118 62.4259Z" fill="#2E2D2A" stroke="#2E2D2A" stroke-width="0.2"/>
<path d="M5.76386 80.1446C4.98207 80.1446 4.34824 80.7783 4.34824 81.5602V88.5662C4.34824 89.3481 4.98207 89.9818 5.76386 89.9818C6.54565 89.9818 7.17947 89.3481 7.17947 88.5662V81.5602C7.17947 80.7784 6.54566 80.1446 5.76386 80.1446Z" fill="#2E2D2A" stroke="#2E2D2A" stroke-width="0.2"/>
<path d="M5.676 11.4857L5.67599 11.4857C5.25813 12.0304 5.18711 12.7517 5.49076 13.3674C5.79441 13.983 6.41015 14.3658 7.09656 14.3658H9.47781V37.6261C9.47781 38.408 10.1116 39.0417 10.8934 39.0417C11.6752 39.0417 12.309 38.408 12.309 37.6261V12.9502C12.309 12.1682 11.6752 11.5346 10.8934 11.5346H9.20752L15.4504 3.39996L21.6932 11.5346H20.0073C19.2255 11.5346 18.5917 12.1682 18.5917 12.9502V37.6098C18.5917 38.3917 19.2255 39.0254 20.0073 39.0254C20.7891 39.0254 21.4229 38.3917 21.4229 37.6098V14.3658H23.804C24.4904 14.3658 25.1062 13.9828 25.4098 13.3672C25.7134 12.7517 25.6422 12.03 25.2242 11.4855C25.2242 11.4855 25.2242 11.4855 25.2242 11.4855L16.8706 0.600642C16.5292 0.155476 16.011 -0.1 15.4502 -0.1C14.8894 -0.1 14.3713 0.155474 14.03 0.600433C14.03 0.600439 14.03 0.600445 14.03 0.60045L5.676 11.4857Z" fill="#2E2D2A" stroke="#2E2D2A" stroke-width="0.2"/>
</svg>
