<svg width="90" height="90" viewBox="0 0 90 90" fill="none" xmlns="http://www.w3.org/2000/svg">
<g clip-path="url(#clip0_1192_6340)">
<mask id="path-1-outside-1_1192_6340" maskUnits="userSpaceOnUse" x="-0.296875" y="-0.297058" width="90" height="90" fill="black">
<rect fill="white" x="-0.296875" y="-0.297058" width="90" height="90"/>
<path d="M27.9684 86.8359H12.0962V73.1867C12.0962 66.23 8.98488 63.5976 6.4851 61.4825C4.51951 59.8196 3.09938 58.6181 3.16652 55.6819L3.4984 41.1367C3.52055 40.1604 4.29803 39.7234 5.05863 39.7234C5.83594 39.7234 6.46857 40.3372 6.46857 41.0919V50.8173C6.46857 53.6843 6.74279 56.5219 8.73211 57.8621C10.019 58.7292 11.7448 58.7334 13.8635 57.8746C17.9225 56.2196 22.7248 56.1384 26.3962 57.6627C27.0241 57.9231 27.7439 57.6258 28.0044 56.9983C28.2649 56.3708 27.9675 55.6506 27.3398 55.3901C26.0601 54.8587 24.6646 54.4959 23.213 54.2981C26.2313 53.2185 28.3973 50.3311 28.3973 46.9462C28.3973 42.6421 24.8955 39.1402 20.5912 39.1402C16.2868 39.1402 12.7851 42.6421 12.7851 46.9462C12.7851 50.3212 14.9386 53.2023 17.9434 54.2892C16.2283 54.5094 14.5301 54.9452 12.9366 55.595C12.035 55.9605 10.8123 56.2964 10.1069 55.8213C8.92934 55.0278 8.92934 51.9688 8.92934 50.8173V41.0919C8.92934 38.9802 7.19297 37.2625 5.05846 37.2625C2.81602 37.2625 1.08756 38.9039 1.03799 41.0806L0.706113 55.6256C0.612246 59.7375 2.78982 61.5797 4.89551 63.3614C7.22566 65.333 9.63527 67.3713 9.63527 73.1869V88.0666C9.63527 88.7461 10.1862 89.297 10.8657 89.297H27.9684C28.6479 89.297 29.1988 88.7461 29.1988 88.0666C29.1988 87.387 28.6479 86.8361 27.9684 86.8361V86.8359ZM15.2462 46.9461C15.2462 43.9986 17.644 41.6009 20.5914 41.6009C23.5387 41.6009 25.9365 43.9987 25.9365 46.9461C25.9365 49.8934 23.5387 52.2912 20.5914 52.2912C17.644 52.2912 15.2462 49.8934 15.2462 46.9461ZM88.9622 41.0804C88.9124 38.9037 87.184 37.2623 84.9417 37.2623C82.8072 37.2623 81.0708 38.98 81.0708 41.0917V50.8171C81.0708 51.9687 81.0708 55.0276 79.8933 55.8211C79.188 56.2962 77.9651 55.9603 77.066 55.5959C75.4647 54.9429 73.7817 54.5034 72.0881 54.2784C75.0767 53.183 77.2151 50.3095 77.2151 46.9461C77.2151 42.6419 73.7133 39.14 69.4092 39.14C65.105 39.14 61.6031 42.6419 61.6031 46.9461C61.6031 50.3205 63.7559 53.2012 66.7598 54.2886C65.3801 54.4834 64.0457 54.8307 62.8001 55.3333C62.17 55.5877 61.8653 56.3047 62.1195 56.9348C62.3739 57.5648 63.0905 57.8696 63.7211 57.6153C67.3731 56.1415 72.1304 56.2407 76.1393 57.8754C78.2559 58.7333 79.9815 58.7287 81.2684 57.8619C83.2577 56.5218 83.532 53.6839 83.532 50.8171V41.0917C83.532 40.337 84.1644 39.7232 84.9419 39.7232C85.7025 39.7232 86.4798 40.1602 86.5021 41.1367L86.834 55.6815C86.901 58.6179 85.4808 59.8194 83.5153 61.4823C81.0153 63.5975 77.9041 66.2298 77.9041 73.1865V86.8358H62.032C61.3524 86.8358 60.8015 87.3867 60.8015 88.0662C60.8015 88.7458 61.3524 89.2967 62.032 89.2967H79.1346C79.8142 89.2967 80.3651 88.7458 80.3651 88.0662V73.1865C80.3651 67.3711 82.7747 65.3324 85.1048 63.361C87.2105 61.5793 89.3881 59.7371 89.2942 55.6253L88.9624 41.0802L88.9622 41.0804ZM64.0638 46.9461C64.0638 43.9986 66.4617 41.6009 69.409 41.6009C72.3563 41.6009 74.754 43.9987 74.754 46.9461C74.754 49.8934 72.3561 52.2912 69.409 52.2912C66.4618 52.2912 64.0638 49.8934 64.0638 46.9461ZM63.2623 81.646V66.2154C63.2623 60.9572 61.2594 57.1017 57.3093 54.7559C54.3403 52.9926 50.3271 52.1044 45.0403 52.0404C38.1976 51.9558 33.3868 53.3816 30.3372 56.3943C27.949 58.7537 26.7381 62.0582 26.7381 66.2156V81.6462C26.7381 84.4404 29.0113 86.7136 31.8055 86.7136C32.3139 86.7136 32.8112 86.6385 33.2849 86.4939V88.0664C33.2849 88.746 33.8358 89.2969 34.5154 89.2969H55.485C56.1646 89.2969 56.7155 88.746 56.7155 88.0664V86.4937C57.1892 86.6385 57.6865 86.7136 58.1948 86.7136C60.9891 86.7136 63.2623 84.4402 63.2623 81.6462V81.646ZM60.8013 81.646C60.8013 83.0834 59.6322 84.2525 58.1948 84.2525C57.6599 84.2525 57.1488 84.0879 56.7155 83.7856V66.9538C56.7155 66.2743 56.1646 65.7234 55.485 65.7234C54.8054 65.7234 54.2545 66.2743 54.2545 66.9538V86.8358H35.7458V66.9538C35.7458 66.2743 35.1949 65.7234 34.5154 65.7234C33.8358 65.7234 33.2849 66.2743 33.2849 66.9538V83.7856C32.8516 84.0879 32.3406 84.2525 31.8055 84.2525C30.3683 84.2525 29.199 83.0834 29.199 81.646V66.2154C29.199 62.6911 30.137 60.0513 32.0667 58.1447C34.5885 55.6534 38.9463 54.4256 45.0102 54.501C55.7835 54.6314 60.8012 58.3539 60.8012 66.2156V81.6462L60.8013 81.646ZM45.0002 50.9794C49.7719 50.9794 53.6541 47.0972 53.6541 42.3257C53.6541 37.5541 49.7719 33.6716 45.0002 33.6716C40.2284 33.6716 36.3463 37.5539 36.3463 42.3257C36.3463 47.0974 40.2284 50.9794 45.0002 50.9794ZM45.0002 36.1324C48.4149 36.1324 51.1931 38.9106 51.1931 42.3255C51.1931 45.7404 48.4149 48.5183 45.0002 48.5183C41.5854 48.5183 38.8072 45.74 38.8072 42.3255C38.8072 38.9109 41.5854 36.1324 45.0002 36.1324ZM45.3609 27.759C46.0405 27.759 46.5914 27.2081 46.5914 26.5285V14.0129H59.8379C60.3028 14.0129 60.728 13.7508 60.937 13.3355C61.1459 12.9201 61.1028 12.4225 60.8258 12.0491L58.0762 8.34609L61.5029 4.57909C61.8305 4.21874 61.9149 3.69896 61.718 3.25353C61.5212 2.8081 61.0798 2.5207 60.5927 2.5207H46.5912V1.93341C46.5912 1.25384 46.0403 0.702942 45.3607 0.702942C44.6811 0.702942 44.1302 1.25384 44.1302 1.93341V26.5287C44.1302 27.2083 44.6811 27.7592 45.3607 27.7592L45.3609 27.759ZM57.8101 4.98163L55.5746 7.43888C55.179 7.87394 55.1463 8.52802 55.497 9.00034L57.3917 11.5522H46.5912V4.98163H57.8101ZM12.2806 22.8516C12.063 23.5213 12.247 24.2364 12.7603 24.7173L15.4361 27.2268L14.7466 30.8296C14.6141 31.5211 14.8857 32.2077 15.4547 32.6208C16.024 33.0347 16.7607 33.0813 17.3777 32.7415L20.5912 30.9725L23.805 32.7417C24.0794 32.8925 24.3772 32.9672 24.6737 32.9672C25.0439 32.9672 25.4118 32.8507 25.728 32.6208C26.2971 32.207 26.5685 31.5207 26.4363 30.8299L25.7467 27.2268L28.4219 24.7176C28.9357 24.2362 29.1197 23.5208 28.902 22.8516C28.6845 22.182 28.1153 21.7118 27.4173 21.6241L23.7774 21.1665L22.2175 17.8462C21.9182 17.2092 21.295 16.8135 20.5914 16.8135C19.8877 16.8135 19.2646 17.2092 18.9652 17.8462L17.4053 21.1665L13.7658 21.6241C13.0674 21.7118 12.4982 22.1822 12.2806 22.8516ZM18.3843 23.5237C18.8026 23.471 19.1651 23.2079 19.3444 22.8261L20.5912 20.1719L21.8382 22.8261C22.0175 23.2079 22.3799 23.4712 22.7983 23.5237L25.7077 23.8894L23.5689 25.8954C23.2613 26.184 23.1228 26.6098 23.2022 27.0241L23.7535 29.9043L21.1846 28.4901C20.9999 28.3883 20.7956 28.3375 20.5912 28.3375C20.3868 28.3375 20.1825 28.3883 19.9978 28.4901L17.4291 29.9043L17.9803 27.0241C18.0596 26.6099 17.9213 26.184 17.6136 25.8954L15.4749 23.8894L18.3843 23.5237ZM61.0982 22.8516C60.8806 23.5213 61.0646 24.2364 61.5779 24.7173L64.2537 27.2268L63.5643 30.8296C63.4317 31.5213 63.7033 32.2079 64.2721 32.6206C64.8413 33.0347 65.578 33.0811 66.1954 32.7415L69.409 30.9725L72.6228 32.7417C72.8972 32.8925 73.195 32.9672 73.4915 32.9672C73.8617 32.9672 74.2296 32.8507 74.5458 32.6208C75.1148 32.207 75.3863 31.5207 75.2541 30.8299L74.5645 27.2268L77.24 24.7175C77.7535 24.236 77.9372 23.5209 77.7197 22.8516C77.5023 22.1822 76.9333 21.7118 76.2351 21.6241L72.5952 21.1665L71.0353 17.8464C70.7361 17.2093 70.113 16.8135 69.409 16.8135C68.705 16.8135 68.0818 17.2093 67.7827 17.8462L66.2228 21.1665L62.5832 21.6241C61.8848 21.7118 61.3158 22.1822 61.0982 22.8516ZM68.8078 18.8928L68.8087 18.8947C68.8087 18.8947 68.8082 18.8935 68.8078 18.8928ZM67.2017 23.5239C67.6201 23.4712 67.9825 23.208 68.1618 22.8262L69.4088 20.1721L70.6556 22.8262C70.8349 23.208 71.1974 23.4714 71.6157 23.5239L74.5253 23.8895L72.3865 25.8956C72.0789 26.1842 71.9404 26.6099 72.0199 27.0243L72.5711 29.9044L70.0024 28.4903C69.6328 28.2867 69.1852 28.2867 68.8156 28.4903L66.2469 29.9044L66.7981 27.0243C66.8774 26.6101 66.739 26.1842 66.4314 25.8956L64.2927 23.8895L67.202 23.5239H67.2017ZM1.93359 9.47126C4.73291 9.47126 7.01033 11.7487 7.01033 14.5482C7.01033 15.2277 7.56123 15.7786 8.2408 15.7786C8.92037 15.7786 9.47127 15.2277 9.47127 14.5482C9.47127 11.7487 11.7487 9.47126 14.548 9.47126C15.2276 9.47126 15.7785 8.92036 15.7785 8.24079C15.7785 7.56122 15.2276 7.01032 14.548 7.01032C11.7487 7.01032 9.47127 4.7329 9.47127 1.93341C9.47127 1.25384 8.92037 0.702942 8.2408 0.702942C7.56123 0.702942 7.01033 1.25384 7.01033 1.93341C7.01033 4.7329 4.73291 7.01032 1.93359 7.01032C1.25402 7.01032 0.703125 7.56122 0.703125 8.24079C0.703125 8.92036 1.25402 9.47126 1.93359 9.47126ZM8.2408 6.05689C8.81086 6.92577 9.55564 7.67073 10.4247 8.24079C9.55564 8.81085 8.81086 9.55564 8.2408 10.4247C7.67074 9.55581 6.92596 8.81085 6.05689 8.24079C6.92596 7.67073 7.67074 6.92595 8.2408 6.05689ZM75.4518 9.47126C78.2513 9.47126 80.5287 11.7487 80.5287 14.5482C80.5287 15.2277 81.0796 15.7786 81.7592 15.7786C82.4388 15.7786 82.9897 15.2277 82.9897 14.5482C82.9897 11.7487 85.2671 9.47126 88.0664 9.47126C88.746 9.47126 89.2969 8.92036 89.2969 8.24079C89.2969 7.56122 88.746 7.01032 88.0664 7.01032C85.2671 7.01032 82.9897 4.7329 82.9897 1.93341C82.9897 1.25384 82.4388 0.702942 81.7592 0.702942C81.0796 0.702942 80.5287 1.25384 80.5287 1.93341C80.5287 4.7329 78.2513 7.01032 75.4518 7.01032C74.7722 7.01032 74.2213 7.56122 74.2213 8.24079C74.2213 8.92036 74.7722 9.47126 75.4518 9.47126ZM81.7592 6.05689C82.3293 6.92577 83.074 7.67073 83.9429 8.24079C83.074 8.81085 82.3291 9.55564 81.7592 10.4247C81.1891 9.55581 80.4444 8.81085 79.5753 8.24079C80.4444 7.67073 81.1891 6.92595 81.7592 6.05689Z"/>
</mask>
<path d="M27.9684 86.8359H12.0962V73.1867C12.0962 66.23 8.98488 63.5976 6.4851 61.4825C4.51951 59.8196 3.09938 58.6181 3.16652 55.6819L3.4984 41.1367C3.52055 40.1604 4.29803 39.7234 5.05863 39.7234C5.83594 39.7234 6.46857 40.3372 6.46857 41.0919V50.8173C6.46857 53.6843 6.74279 56.5219 8.73211 57.8621C10.019 58.7292 11.7448 58.7334 13.8635 57.8746C17.9225 56.2196 22.7248 56.1384 26.3962 57.6627C27.0241 57.9231 27.7439 57.6258 28.0044 56.9983C28.2649 56.3708 27.9675 55.6506 27.3398 55.3901C26.0601 54.8587 24.6646 54.4959 23.213 54.2981C26.2313 53.2185 28.3973 50.3311 28.3973 46.9462C28.3973 42.6421 24.8955 39.1402 20.5912 39.1402C16.2868 39.1402 12.7851 42.6421 12.7851 46.9462C12.7851 50.3212 14.9386 53.2023 17.9434 54.2892C16.2283 54.5094 14.5301 54.9452 12.9366 55.595C12.035 55.9605 10.8123 56.2964 10.1069 55.8213C8.92934 55.0278 8.92934 51.9688 8.92934 50.8173V41.0919C8.92934 38.9802 7.19297 37.2625 5.05846 37.2625C2.81602 37.2625 1.08756 38.9039 1.03799 41.0806L0.706113 55.6256C0.612246 59.7375 2.78982 61.5797 4.89551 63.3614C7.22566 65.333 9.63527 67.3713 9.63527 73.1869V88.0666C9.63527 88.7461 10.1862 89.297 10.8657 89.297H27.9684C28.6479 89.297 29.1988 88.7461 29.1988 88.0666C29.1988 87.387 28.6479 86.8361 27.9684 86.8361V86.8359ZM15.2462 46.9461C15.2462 43.9986 17.644 41.6009 20.5914 41.6009C23.5387 41.6009 25.9365 43.9987 25.9365 46.9461C25.9365 49.8934 23.5387 52.2912 20.5914 52.2912C17.644 52.2912 15.2462 49.8934 15.2462 46.9461ZM88.9622 41.0804C88.9124 38.9037 87.184 37.2623 84.9417 37.2623C82.8072 37.2623 81.0708 38.98 81.0708 41.0917V50.8171C81.0708 51.9687 81.0708 55.0276 79.8933 55.8211C79.188 56.2962 77.9651 55.9603 77.066 55.5959C75.4647 54.9429 73.7817 54.5034 72.0881 54.2784C75.0767 53.183 77.2151 50.3095 77.2151 46.9461C77.2151 42.6419 73.7133 39.14 69.4092 39.14C65.105 39.14 61.6031 42.6419 61.6031 46.9461C61.6031 50.3205 63.7559 53.2012 66.7598 54.2886C65.3801 54.4834 64.0457 54.8307 62.8001 55.3333C62.17 55.5877 61.8653 56.3047 62.1195 56.9348C62.3739 57.5648 63.0905 57.8696 63.7211 57.6153C67.3731 56.1415 72.1304 56.2407 76.1393 57.8754C78.2559 58.7333 79.9815 58.7287 81.2684 57.8619C83.2577 56.5218 83.532 53.6839 83.532 50.8171V41.0917C83.532 40.337 84.1644 39.7232 84.9419 39.7232C85.7025 39.7232 86.4798 40.1602 86.5021 41.1367L86.834 55.6815C86.901 58.6179 85.4808 59.8194 83.5153 61.4823C81.0153 63.5975 77.9041 66.2298 77.9041 73.1865V86.8358H62.032C61.3524 86.8358 60.8015 87.3867 60.8015 88.0662C60.8015 88.7458 61.3524 89.2967 62.032 89.2967H79.1346C79.8142 89.2967 80.3651 88.7458 80.3651 88.0662V73.1865C80.3651 67.3711 82.7747 65.3324 85.1048 63.361C87.2105 61.5793 89.3881 59.7371 89.2942 55.6253L88.9624 41.0802L88.9622 41.0804ZM64.0638 46.9461C64.0638 43.9986 66.4617 41.6009 69.409 41.6009C72.3563 41.6009 74.754 43.9987 74.754 46.9461C74.754 49.8934 72.3561 52.2912 69.409 52.2912C66.4618 52.2912 64.0638 49.8934 64.0638 46.9461ZM63.2623 81.646V66.2154C63.2623 60.9572 61.2594 57.1017 57.3093 54.7559C54.3403 52.9926 50.3271 52.1044 45.0403 52.0404C38.1976 51.9558 33.3868 53.3816 30.3372 56.3943C27.949 58.7537 26.7381 62.0582 26.7381 66.2156V81.6462C26.7381 84.4404 29.0113 86.7136 31.8055 86.7136C32.3139 86.7136 32.8112 86.6385 33.2849 86.4939V88.0664C33.2849 88.746 33.8358 89.2969 34.5154 89.2969H55.485C56.1646 89.2969 56.7155 88.746 56.7155 88.0664V86.4937C57.1892 86.6385 57.6865 86.7136 58.1948 86.7136C60.9891 86.7136 63.2623 84.4402 63.2623 81.6462V81.646ZM60.8013 81.646C60.8013 83.0834 59.6322 84.2525 58.1948 84.2525C57.6599 84.2525 57.1488 84.0879 56.7155 83.7856V66.9538C56.7155 66.2743 56.1646 65.7234 55.485 65.7234C54.8054 65.7234 54.2545 66.2743 54.2545 66.9538V86.8358H35.7458V66.9538C35.7458 66.2743 35.1949 65.7234 34.5154 65.7234C33.8358 65.7234 33.2849 66.2743 33.2849 66.9538V83.7856C32.8516 84.0879 32.3406 84.2525 31.8055 84.2525C30.3683 84.2525 29.199 83.0834 29.199 81.646V66.2154C29.199 62.6911 30.137 60.0513 32.0667 58.1447C34.5885 55.6534 38.9463 54.4256 45.0102 54.501C55.7835 54.6314 60.8012 58.3539 60.8012 66.2156V81.6462L60.8013 81.646ZM45.0002 50.9794C49.7719 50.9794 53.6541 47.0972 53.6541 42.3257C53.6541 37.5541 49.7719 33.6716 45.0002 33.6716C40.2284 33.6716 36.3463 37.5539 36.3463 42.3257C36.3463 47.0974 40.2284 50.9794 45.0002 50.9794ZM45.0002 36.1324C48.4149 36.1324 51.1931 38.9106 51.1931 42.3255C51.1931 45.7404 48.4149 48.5183 45.0002 48.5183C41.5854 48.5183 38.8072 45.74 38.8072 42.3255C38.8072 38.9109 41.5854 36.1324 45.0002 36.1324ZM45.3609 27.759C46.0405 27.759 46.5914 27.2081 46.5914 26.5285V14.0129H59.8379C60.3028 14.0129 60.728 13.7508 60.937 13.3355C61.1459 12.9201 61.1028 12.4225 60.8258 12.0491L58.0762 8.34609L61.5029 4.57909C61.8305 4.21874 61.9149 3.69896 61.718 3.25353C61.5212 2.8081 61.0798 2.5207 60.5927 2.5207H46.5912V1.93341C46.5912 1.25384 46.0403 0.702942 45.3607 0.702942C44.6811 0.702942 44.1302 1.25384 44.1302 1.93341V26.5287C44.1302 27.2083 44.6811 27.7592 45.3607 27.7592L45.3609 27.759ZM57.8101 4.98163L55.5746 7.43888C55.179 7.87394 55.1463 8.52802 55.497 9.00034L57.3917 11.5522H46.5912V4.98163H57.8101ZM12.2806 22.8516C12.063 23.5213 12.247 24.2364 12.7603 24.7173L15.4361 27.2268L14.7466 30.8296C14.6141 31.5211 14.8857 32.2077 15.4547 32.6208C16.024 33.0347 16.7607 33.0813 17.3777 32.7415L20.5912 30.9725L23.805 32.7417C24.0794 32.8925 24.3772 32.9672 24.6737 32.9672C25.0439 32.9672 25.4118 32.8507 25.728 32.6208C26.2971 32.207 26.5685 31.5207 26.4363 30.8299L25.7467 27.2268L28.4219 24.7176C28.9357 24.2362 29.1197 23.5208 28.902 22.8516C28.6845 22.182 28.1153 21.7118 27.4173 21.6241L23.7774 21.1665L22.2175 17.8462C21.9182 17.2092 21.295 16.8135 20.5914 16.8135C19.8877 16.8135 19.2646 17.2092 18.9652 17.8462L17.4053 21.1665L13.7658 21.6241C13.0674 21.7118 12.4982 22.1822 12.2806 22.8516ZM18.3843 23.5237C18.8026 23.471 19.1651 23.2079 19.3444 22.8261L20.5912 20.1719L21.8382 22.8261C22.0175 23.2079 22.3799 23.4712 22.7983 23.5237L25.7077 23.8894L23.5689 25.8954C23.2613 26.184 23.1228 26.6098 23.2022 27.0241L23.7535 29.9043L21.1846 28.4901C20.9999 28.3883 20.7956 28.3375 20.5912 28.3375C20.3868 28.3375 20.1825 28.3883 19.9978 28.4901L17.4291 29.9043L17.9803 27.0241C18.0596 26.6099 17.9213 26.184 17.6136 25.8954L15.4749 23.8894L18.3843 23.5237ZM61.0982 22.8516C60.8806 23.5213 61.0646 24.2364 61.5779 24.7173L64.2537 27.2268L63.5643 30.8296C63.4317 31.5213 63.7033 32.2079 64.2721 32.6206C64.8413 33.0347 65.578 33.0811 66.1954 32.7415L69.409 30.9725L72.6228 32.7417C72.8972 32.8925 73.195 32.9672 73.4915 32.9672C73.8617 32.9672 74.2296 32.8507 74.5458 32.6208C75.1148 32.207 75.3863 31.5207 75.2541 30.8299L74.5645 27.2268L77.24 24.7175C77.7535 24.236 77.9372 23.5209 77.7197 22.8516C77.5023 22.1822 76.9333 21.7118 76.2351 21.6241L72.5952 21.1665L71.0353 17.8464C70.7361 17.2093 70.113 16.8135 69.409 16.8135C68.705 16.8135 68.0818 17.2093 67.7827 17.8462L66.2228 21.1665L62.5832 21.6241C61.8848 21.7118 61.3158 22.1822 61.0982 22.8516ZM68.8078 18.8928L68.8087 18.8947C68.8087 18.8947 68.8082 18.8935 68.8078 18.8928ZM67.2017 23.5239C67.6201 23.4712 67.9825 23.208 68.1618 22.8262L69.4088 20.1721L70.6556 22.8262C70.8349 23.208 71.1974 23.4714 71.6157 23.5239L74.5253 23.8895L72.3865 25.8956C72.0789 26.1842 71.9404 26.6099 72.0199 27.0243L72.5711 29.9044L70.0024 28.4903C69.6328 28.2867 69.1852 28.2867 68.8156 28.4903L66.2469 29.9044L66.7981 27.0243C66.8774 26.6101 66.739 26.1842 66.4314 25.8956L64.2927 23.8895L67.202 23.5239H67.2017ZM1.93359 9.47126C4.73291 9.47126 7.01033 11.7487 7.01033 14.5482C7.01033 15.2277 7.56123 15.7786 8.2408 15.7786C8.92037 15.7786 9.47127 15.2277 9.47127 14.5482C9.47127 11.7487 11.7487 9.47126 14.548 9.47126C15.2276 9.47126 15.7785 8.92036 15.7785 8.24079C15.7785 7.56122 15.2276 7.01032 14.548 7.01032C11.7487 7.01032 9.47127 4.7329 9.47127 1.93341C9.47127 1.25384 8.92037 0.702942 8.2408 0.702942C7.56123 0.702942 7.01033 1.25384 7.01033 1.93341C7.01033 4.7329 4.73291 7.01032 1.93359 7.01032C1.25402 7.01032 0.703125 7.56122 0.703125 8.24079C0.703125 8.92036 1.25402 9.47126 1.93359 9.47126ZM8.2408 6.05689C8.81086 6.92577 9.55564 7.67073 10.4247 8.24079C9.55564 8.81085 8.81086 9.55564 8.2408 10.4247C7.67074 9.55581 6.92596 8.81085 6.05689 8.24079C6.92596 7.67073 7.67074 6.92595 8.2408 6.05689ZM75.4518 9.47126C78.2513 9.47126 80.5287 11.7487 80.5287 14.5482C80.5287 15.2277 81.0796 15.7786 81.7592 15.7786C82.4388 15.7786 82.9897 15.2277 82.9897 14.5482C82.9897 11.7487 85.2671 9.47126 88.0664 9.47126C88.746 9.47126 89.2969 8.92036 89.2969 8.24079C89.2969 7.56122 88.746 7.01032 88.0664 7.01032C85.2671 7.01032 82.9897 4.7329 82.9897 1.93341C82.9897 1.25384 82.4388 0.702942 81.7592 0.702942C81.0796 0.702942 80.5287 1.25384 80.5287 1.93341C80.5287 4.7329 78.2513 7.01032 75.4518 7.01032C74.7722 7.01032 74.2213 7.56122 74.2213 8.24079C74.2213 8.92036 74.7722 9.47126 75.4518 9.47126ZM81.7592 6.05689C82.3293 6.92577 83.074 7.67073 83.9429 8.24079C83.074 8.81085 82.3291 9.55564 81.7592 10.4247C81.1891 9.55581 80.4444 8.81085 79.5753 8.24079C80.4444 7.67073 81.1891 6.92595 81.7592 6.05689Z" fill="#2E2D2A"/>
<path d="M27.9684 86.8359H12.0962V73.1867C12.0962 66.23 8.98488 63.5976 6.4851 61.4825C4.51951 59.8196 3.09938 58.6181 3.16652 55.6819L3.4984 41.1367C3.52055 40.1604 4.29803 39.7234 5.05863 39.7234C5.83594 39.7234 6.46857 40.3372 6.46857 41.0919V50.8173C6.46857 53.6843 6.74279 56.5219 8.73211 57.8621C10.019 58.7292 11.7448 58.7334 13.8635 57.8746C17.9225 56.2196 22.7248 56.1384 26.3962 57.6627C27.0241 57.9231 27.7439 57.6258 28.0044 56.9983C28.2649 56.3708 27.9675 55.6506 27.3398 55.3901C26.0601 54.8587 24.6646 54.4959 23.213 54.2981C26.2313 53.2185 28.3973 50.3311 28.3973 46.9462C28.3973 42.6421 24.8955 39.1402 20.5912 39.1402C16.2868 39.1402 12.7851 42.6421 12.7851 46.9462C12.7851 50.3212 14.9386 53.2023 17.9434 54.2892C16.2283 54.5094 14.5301 54.9452 12.9366 55.595C12.035 55.9605 10.8123 56.2964 10.1069 55.8213C8.92934 55.0278 8.92934 51.9688 8.92934 50.8173V41.0919C8.92934 38.9802 7.19297 37.2625 5.05846 37.2625C2.81602 37.2625 1.08756 38.9039 1.03799 41.0806L0.706113 55.6256C0.612246 59.7375 2.78982 61.5797 4.89551 63.3614C7.22566 65.333 9.63527 67.3713 9.63527 73.1869V88.0666C9.63527 88.7461 10.1862 89.297 10.8657 89.297H27.9684C28.6479 89.297 29.1988 88.7461 29.1988 88.0666C29.1988 87.387 28.6479 86.8361 27.9684 86.8361V86.8359ZM15.2462 46.9461C15.2462 43.9986 17.644 41.6009 20.5914 41.6009C23.5387 41.6009 25.9365 43.9987 25.9365 46.9461C25.9365 49.8934 23.5387 52.2912 20.5914 52.2912C17.644 52.2912 15.2462 49.8934 15.2462 46.9461ZM88.9622 41.0804C88.9124 38.9037 87.184 37.2623 84.9417 37.2623C82.8072 37.2623 81.0708 38.98 81.0708 41.0917V50.8171C81.0708 51.9687 81.0708 55.0276 79.8933 55.8211C79.188 56.2962 77.9651 55.9603 77.066 55.5959C75.4647 54.9429 73.7817 54.5034 72.0881 54.2784C75.0767 53.183 77.2151 50.3095 77.2151 46.9461C77.2151 42.6419 73.7133 39.14 69.4092 39.14C65.105 39.14 61.6031 42.6419 61.6031 46.9461C61.6031 50.3205 63.7559 53.2012 66.7598 54.2886C65.3801 54.4834 64.0457 54.8307 62.8001 55.3333C62.17 55.5877 61.8653 56.3047 62.1195 56.9348C62.3739 57.5648 63.0905 57.8696 63.7211 57.6153C67.3731 56.1415 72.1304 56.2407 76.1393 57.8754C78.2559 58.7333 79.9815 58.7287 81.2684 57.8619C83.2577 56.5218 83.532 53.6839 83.532 50.8171V41.0917C83.532 40.337 84.1644 39.7232 84.9419 39.7232C85.7025 39.7232 86.4798 40.1602 86.5021 41.1367L86.834 55.6815C86.901 58.6179 85.4808 59.8194 83.5153 61.4823C81.0153 63.5975 77.9041 66.2298 77.9041 73.1865V86.8358H62.032C61.3524 86.8358 60.8015 87.3867 60.8015 88.0662C60.8015 88.7458 61.3524 89.2967 62.032 89.2967H79.1346C79.8142 89.2967 80.3651 88.7458 80.3651 88.0662V73.1865C80.3651 67.3711 82.7747 65.3324 85.1048 63.361C87.2105 61.5793 89.3881 59.7371 89.2942 55.6253L88.9624 41.0802L88.9622 41.0804ZM64.0638 46.9461C64.0638 43.9986 66.4617 41.6009 69.409 41.6009C72.3563 41.6009 74.754 43.9987 74.754 46.9461C74.754 49.8934 72.3561 52.2912 69.409 52.2912C66.4618 52.2912 64.0638 49.8934 64.0638 46.9461ZM63.2623 81.646V66.2154C63.2623 60.9572 61.2594 57.1017 57.3093 54.7559C54.3403 52.9926 50.3271 52.1044 45.0403 52.0404C38.1976 51.9558 33.3868 53.3816 30.3372 56.3943C27.949 58.7537 26.7381 62.0582 26.7381 66.2156V81.6462C26.7381 84.4404 29.0113 86.7136 31.8055 86.7136C32.3139 86.7136 32.8112 86.6385 33.2849 86.4939V88.0664C33.2849 88.746 33.8358 89.2969 34.5154 89.2969H55.485C56.1646 89.2969 56.7155 88.746 56.7155 88.0664V86.4937C57.1892 86.6385 57.6865 86.7136 58.1948 86.7136C60.9891 86.7136 63.2623 84.4402 63.2623 81.6462V81.646ZM60.8013 81.646C60.8013 83.0834 59.6322 84.2525 58.1948 84.2525C57.6599 84.2525 57.1488 84.0879 56.7155 83.7856V66.9538C56.7155 66.2743 56.1646 65.7234 55.485 65.7234C54.8054 65.7234 54.2545 66.2743 54.2545 66.9538V86.8358H35.7458V66.9538C35.7458 66.2743 35.1949 65.7234 34.5154 65.7234C33.8358 65.7234 33.2849 66.2743 33.2849 66.9538V83.7856C32.8516 84.0879 32.3406 84.2525 31.8055 84.2525C30.3683 84.2525 29.199 83.0834 29.199 81.646V66.2154C29.199 62.6911 30.137 60.0513 32.0667 58.1447C34.5885 55.6534 38.9463 54.4256 45.0102 54.501C55.7835 54.6314 60.8012 58.3539 60.8012 66.2156V81.6462L60.8013 81.646ZM45.0002 50.9794C49.7719 50.9794 53.6541 47.0972 53.6541 42.3257C53.6541 37.5541 49.7719 33.6716 45.0002 33.6716C40.2284 33.6716 36.3463 37.5539 36.3463 42.3257C36.3463 47.0974 40.2284 50.9794 45.0002 50.9794ZM45.0002 36.1324C48.4149 36.1324 51.1931 38.9106 51.1931 42.3255C51.1931 45.7404 48.4149 48.5183 45.0002 48.5183C41.5854 48.5183 38.8072 45.74 38.8072 42.3255C38.8072 38.9109 41.5854 36.1324 45.0002 36.1324ZM45.3609 27.759C46.0405 27.759 46.5914 27.2081 46.5914 26.5285V14.0129H59.8379C60.3028 14.0129 60.728 13.7508 60.937 13.3355C61.1459 12.9201 61.1028 12.4225 60.8258 12.0491L58.0762 8.34609L61.5029 4.57909C61.8305 4.21874 61.9149 3.69896 61.718 3.25353C61.5212 2.8081 61.0798 2.5207 60.5927 2.5207H46.5912V1.93341C46.5912 1.25384 46.0403 0.702942 45.3607 0.702942C44.6811 0.702942 44.1302 1.25384 44.1302 1.93341V26.5287C44.1302 27.2083 44.6811 27.7592 45.3607 27.7592L45.3609 27.759ZM57.8101 4.98163L55.5746 7.43888C55.179 7.87394 55.1463 8.52802 55.497 9.00034L57.3917 11.5522H46.5912V4.98163H57.8101ZM12.2806 22.8516C12.063 23.5213 12.247 24.2364 12.7603 24.7173L15.4361 27.2268L14.7466 30.8296C14.6141 31.5211 14.8857 32.2077 15.4547 32.6208C16.024 33.0347 16.7607 33.0813 17.3777 32.7415L20.5912 30.9725L23.805 32.7417C24.0794 32.8925 24.3772 32.9672 24.6737 32.9672C25.0439 32.9672 25.4118 32.8507 25.728 32.6208C26.2971 32.207 26.5685 31.5207 26.4363 30.8299L25.7467 27.2268L28.4219 24.7176C28.9357 24.2362 29.1197 23.5208 28.902 22.8516C28.6845 22.182 28.1153 21.7118 27.4173 21.6241L23.7774 21.1665L22.2175 17.8462C21.9182 17.2092 21.295 16.8135 20.5914 16.8135C19.8877 16.8135 19.2646 17.2092 18.9652 17.8462L17.4053 21.1665L13.7658 21.6241C13.0674 21.7118 12.4982 22.1822 12.2806 22.8516ZM18.3843 23.5237C18.8026 23.471 19.1651 23.2079 19.3444 22.8261L20.5912 20.1719L21.8382 22.8261C22.0175 23.2079 22.3799 23.4712 22.7983 23.5237L25.7077 23.8894L23.5689 25.8954C23.2613 26.184 23.1228 26.6098 23.2022 27.0241L23.7535 29.9043L21.1846 28.4901C20.9999 28.3883 20.7956 28.3375 20.5912 28.3375C20.3868 28.3375 20.1825 28.3883 19.9978 28.4901L17.4291 29.9043L17.9803 27.0241C18.0596 26.6099 17.9213 26.184 17.6136 25.8954L15.4749 23.8894L18.3843 23.5237ZM61.0982 22.8516C60.8806 23.5213 61.0646 24.2364 61.5779 24.7173L64.2537 27.2268L63.5643 30.8296C63.4317 31.5213 63.7033 32.2079 64.2721 32.6206C64.8413 33.0347 65.578 33.0811 66.1954 32.7415L69.409 30.9725L72.6228 32.7417C72.8972 32.8925 73.195 32.9672 73.4915 32.9672C73.8617 32.9672 74.2296 32.8507 74.5458 32.6208C75.1148 32.207 75.3863 31.5207 75.2541 30.8299L74.5645 27.2268L77.24 24.7175C77.7535 24.236 77.9372 23.5209 77.7197 22.8516C77.5023 22.1822 76.9333 21.7118 76.2351 21.6241L72.5952 21.1665L71.0353 17.8464C70.7361 17.2093 70.113 16.8135 69.409 16.8135C68.705 16.8135 68.0818 17.2093 67.7827 17.8462L66.2228 21.1665L62.5832 21.6241C61.8848 21.7118 61.3158 22.1822 61.0982 22.8516ZM68.8078 18.8928L68.8087 18.8947C68.8087 18.8947 68.8082 18.8935 68.8078 18.8928ZM67.2017 23.5239C67.6201 23.4712 67.9825 23.208 68.1618 22.8262L69.4088 20.1721L70.6556 22.8262C70.8349 23.208 71.1974 23.4714 71.6157 23.5239L74.5253 23.8895L72.3865 25.8956C72.0789 26.1842 71.9404 26.6099 72.0199 27.0243L72.5711 29.9044L70.0024 28.4903C69.6328 28.2867 69.1852 28.2867 68.8156 28.4903L66.2469 29.9044L66.7981 27.0243C66.8774 26.6101 66.739 26.1842 66.4314 25.8956L64.2927 23.8895L67.202 23.5239H67.2017ZM1.93359 9.47126C4.73291 9.47126 7.01033 11.7487 7.01033 14.5482C7.01033 15.2277 7.56123 15.7786 8.2408 15.7786C8.92037 15.7786 9.47127 15.2277 9.47127 14.5482C9.47127 11.7487 11.7487 9.47126 14.548 9.47126C15.2276 9.47126 15.7785 8.92036 15.7785 8.24079C15.7785 7.56122 15.2276 7.01032 14.548 7.01032C11.7487 7.01032 9.47127 4.7329 9.47127 1.93341C9.47127 1.25384 8.92037 0.702942 8.2408 0.702942C7.56123 0.702942 7.01033 1.25384 7.01033 1.93341C7.01033 4.7329 4.73291 7.01032 1.93359 7.01032C1.25402 7.01032 0.703125 7.56122 0.703125 8.24079C0.703125 8.92036 1.25402 9.47126 1.93359 9.47126ZM8.2408 6.05689C8.81086 6.92577 9.55564 7.67073 10.4247 8.24079C9.55564 8.81085 8.81086 9.55564 8.2408 10.4247C7.67074 9.55581 6.92596 8.81085 6.05689 8.24079C6.92596 7.67073 7.67074 6.92595 8.2408 6.05689ZM75.4518 9.47126C78.2513 9.47126 80.5287 11.7487 80.5287 14.5482C80.5287 15.2277 81.0796 15.7786 81.7592 15.7786C82.4388 15.7786 82.9897 15.2277 82.9897 14.5482C82.9897 11.7487 85.2671 9.47126 88.0664 9.47126C88.746 9.47126 89.2969 8.92036 89.2969 8.24079C89.2969 7.56122 88.746 7.01032 88.0664 7.01032C85.2671 7.01032 82.9897 4.7329 82.9897 1.93341C82.9897 1.25384 82.4388 0.702942 81.7592 0.702942C81.0796 0.702942 80.5287 1.25384 80.5287 1.93341C80.5287 4.7329 78.2513 7.01032 75.4518 7.01032C74.7722 7.01032 74.2213 7.56122 74.2213 8.24079C74.2213 8.92036 74.7722 9.47126 75.4518 9.47126ZM81.7592 6.05689C82.3293 6.92577 83.074 7.67073 83.9429 8.24079C83.074 8.81085 82.3291 9.55564 81.7592 10.4247C81.1891 9.55581 80.4444 8.81085 79.5753 8.24079C80.4444 7.67073 81.1891 6.92595 81.7592 6.05689Z" stroke="#2E2D2A" stroke-width="0.4" mask="url(#path-1-outside-1_1192_6340)"/>
</g>
<defs>
<clipPath id="clip0_1192_6340">
<rect width="90" height="90" fill="white"/>
</clipPath>
</defs>
</svg>
