<svg width="90" height="90" viewBox="0 0 90 90" fill="none" xmlns="http://www.w3.org/2000/svg">
<g clip-path="url(#clip0_29_8352)">
<path d="M75.6335 24.2059C74.878 23.5613 73.9611 23.265 73.0488 23.3693C72.153 23.4736 71.3413 23.957 70.7636 24.7368C69.6175 26.282 68.5017 27.8864 67.4141 29.4506C67.1217 29.8725 66.9392 30.0407 66.434 29.8938C62.343 28.697 58.2333 27.5428 54.4019 26.4763C53.8686 26.327 53.7072 26.1113 53.7049 25.5449C53.6979 24.2628 53.6581 22.964 53.6183 21.7056C53.5949 20.9709 53.5739 20.2362 53.5575 19.5015C53.5107 17.4539 52.3669 16.1551 50.4957 16.0248C48.6455 15.8968 47.352 17.051 47.1251 19.0394C46.7462 22.3478 46.4444 25.3553 46.2012 28.2325C46.0211 30.3796 46.6012 31.3608 48.5917 32.2638C49.6139 32.7283 50.6618 33.1786 51.6746 33.6123C52.0441 33.7711 52.4114 33.9275 52.7809 34.0886L52.8441 34.1147C53.2768 34.2996 53.5014 34.4157 53.4967 34.8304C53.478 36.0984 53.485 37.3876 53.4897 38.6319V38.9802C53.492 39.158 53.4639 39.2765 53.4101 39.3239C53.3517 39.3737 53.223 39.3879 53.0336 39.3594C52.5891 39.2954 52.1377 39.2504 51.7026 39.2078C51.1109 39.1485 50.5004 39.0893 49.9133 38.9802C47.9064 38.6129 46.6901 38.7101 45.848 39.312C44.9872 39.9235 44.489 41.0611 44.1264 43.2391C43.8621 44.8246 43.5183 46.4267 43.1861 47.9766C42.9569 49.0407 42.723 50.1428 42.5125 51.2306C42.2458 52.6218 42.3815 53.6645 42.9312 54.4206C43.4715 55.1624 44.3837 55.5937 45.724 55.7406C46.0796 55.7809 46.3415 55.9089 46.5965 56.172C46.7696 56.3497 46.9473 56.5227 47.1228 56.6957C47.4432 57.0086 47.7754 57.3332 48.0701 57.6745C48.2783 57.9139 48.5613 58.1912 48.9309 58.2054C49.2186 58.2196 49.5039 58.0703 49.8337 57.7456C50.1542 57.4304 50.2992 57.1484 50.2899 56.8593C50.2782 56.4872 50.0045 56.198 49.7378 55.9634C49.4338 55.698 49.1507 55.3899 48.8747 55.0913L48.6853 54.8874C48.6572 54.859 48.6268 54.8282 48.5987 54.7998C48.4139 54.6173 48.3952 54.5722 48.4514 54.4561C49.1133 53.1194 49.5414 51.6833 49.9577 50.2968C50.2103 49.4531 50.47 48.581 50.7811 47.7444C50.9284 47.3462 51.0641 47.2656 51.4758 47.3344C51.7214 47.3747 51.967 47.4173 52.2126 47.46C53.5271 47.6851 54.8861 47.9174 56.2381 48.0027C57.3608 48.0714 57.8731 48.6284 58.3362 49.5029C60.3922 53.3873 62.5418 57.3048 64.6189 61.092L64.8084 61.438C65.4189 62.5519 66.3404 63.2676 67.4 63.4549C67.5801 63.4857 67.7626 63.5023 67.9427 63.5023C68.7637 63.5023 69.5777 63.1752 70.2771 62.5566C71.4326 61.5352 71.7156 59.8454 71.0162 58.1438L70.0782 55.8568C68.7403 52.5933 67.3556 49.2185 65.9381 45.9219C65.2247 44.2653 64.6049 42.5115 64.8809 40.9118L64.8856 40.8715C64.8856 40.5018 64.8879 40.17 64.8902 39.8619C64.8949 39.2338 64.8996 38.6887 64.8785 38.1531C64.8645 37.8356 64.9113 37.6294 65.0142 37.5417C65.1195 37.4516 65.33 37.435 65.6457 37.499C66.8059 37.7289 67.8328 37.883 68.7848 37.973C70.2092 38.1034 71.2875 37.5132 71.9893 36.2074C72.5155 35.2262 73.0676 34.2356 73.6009 33.2781C74.085 32.4107 74.5833 31.5149 75.0651 30.6261L75.2195 30.3417C75.7505 29.3677 76.2978 28.3604 76.5551 27.2252C76.8358 25.9857 76.5247 24.9714 75.6312 24.2106L75.6335 24.2059ZM62.9605 35.103C62.6775 35.3471 62.5418 35.7358 62.5465 36.2951C62.5512 37.0961 62.5512 37.8948 62.5488 38.8594V40.3548C61.9547 43.0163 63.0681 45.4408 64.247 48.0051C64.6376 48.8559 65.0423 49.7328 65.3721 50.6144C66.0434 52.4014 66.8036 54.1836 67.538 55.9089C67.8866 56.7289 68.2351 57.5489 68.5766 58.3737C68.6655 58.587 68.7473 58.8121 68.8269 59.0301C68.8666 59.1415 68.9064 59.2505 68.9485 59.3619C69.2292 60.1108 69.0444 60.6299 68.3824 60.9498C67.7953 61.2342 67.3065 61.0375 66.9299 60.3644C66.3475 59.3264 65.7697 58.2599 65.2107 57.2313C64.9534 56.7573 64.6961 56.2834 64.4388 55.8117C64.0014 55.0107 63.5616 54.2073 63.1219 53.4062C61.9734 51.3112 60.7875 49.145 59.6391 47.0026C59.2671 46.3082 58.783 45.9669 58.0228 45.8674C55.2416 45.5024 52.9657 45.1658 50.8653 44.8104C50.6922 44.7819 50.5308 44.7653 50.3811 44.7653C49.5975 44.7653 49.118 45.1706 48.8467 46.0333C48.4139 47.4173 47.9578 48.818 47.5181 50.1736C47.3216 50.7803 47.1228 51.387 46.9263 51.9937C46.9006 52.0743 46.8772 52.1549 46.8538 52.2378C46.8234 52.3421 46.793 52.4487 46.7555 52.5507C46.4959 53.2711 46.0562 53.5389 45.4129 53.3659C45.0434 53.2664 44.5755 53.0223 44.7673 52.0482C45.1393 50.1641 45.5205 48.28 45.9018 46.3982L46.3907 43.9714C46.4468 43.6894 46.5029 43.4073 46.5637 43.1206C46.7789 42.092 46.8982 41.5232 47.1742 41.3194C47.4479 41.118 47.9906 41.1606 49.0969 41.2696C50.1635 41.3763 51.2489 41.5256 52.2968 41.6725C52.8488 41.7507 53.4031 41.8266 53.9551 41.8977C54.5142 41.9688 55.0826 41.9925 55.4381 41.6773C55.7258 41.4237 55.8451 41.0018 55.8498 40.2245C55.8545 39.4756 55.8498 38.7267 55.8498 37.9801C55.8451 36.7359 55.8404 35.4514 55.8732 34.1882C55.8989 33.2165 55.52 32.643 54.6031 32.2732C53.8031 31.9486 52.9985 31.5954 52.2219 31.2542C51.4196 30.901 50.5893 30.5361 49.7612 30.2019C48.7671 29.8014 48.4256 29.235 48.5496 28.1851C48.7695 26.3199 48.9402 24.4192 49.1063 22.5825C49.1811 21.7388 49.2583 20.895 49.3379 20.0537C49.3496 19.9328 49.3753 19.812 49.401 19.6816C49.4221 19.575 49.4431 19.4707 49.4595 19.3641C49.5577 18.6625 49.7823 18.409 50.2969 18.4327C50.9354 18.4635 51.2535 18.8213 51.2652 19.5252C51.2863 20.7766 51.298 22.0279 51.312 23.2816C51.3214 24.2011 51.3307 25.1207 51.3424 26.0402C51.3682 27.9884 51.4594 28.1092 53.2792 28.6259C54.5703 28.9932 55.8591 29.3558 57.1503 29.7208C60.1583 30.5692 63.2669 31.4438 66.3171 32.3396C67.531 32.6951 68.2912 32.4297 68.9461 31.4224C69.58 30.446 70.2747 29.4838 70.9484 28.5524C71.4302 27.8864 71.9261 27.1992 72.3986 26.5095C72.8945 25.7843 73.2734 25.6302 73.8418 25.917C74.4219 26.2109 74.3728 26.5924 74.0429 27.339C73.2149 29.2089 72.1857 31.0148 71.1916 32.7638C70.7542 33.5341 70.3005 34.328 69.8701 35.1196C69.6245 35.5699 69.2713 35.7002 68.6093 35.5865C67.8749 35.4585 67.1264 35.3447 66.4036 35.2333C65.6878 35.1243 64.9487 35.0082 64.2259 34.8849C63.6599 34.7878 63.2459 34.8589 62.9582 35.1077L62.9605 35.103Z" fill="#2E2D2A"/>
<path d="M87.9696 74.8991L81.9302 22.7102C81.86 22.1035 81.7734 21.3474 81.3571 20.7597C80.9969 20.2478 80.4612 19.9444 79.9443 19.6505L79.8203 19.5794C77.1842 18.0698 74.8943 15.8942 73.1961 13.2896C72.7704 12.6355 72.3821 11.9529 72.0406 11.2609C71.9518 11.0784 71.8699 10.8769 71.7857 10.6636C71.6103 10.2181 71.4278 9.75832 71.1237 9.40045C70.4314 8.58992 69.1846 8.54963 68.2724 8.52119H68.2256C66.9321 8.47854 65.5872 8.33634 64.2843 8.19651C61.005 7.84576 57.6133 7.48315 54.4299 8.6468C54.1328 8.75582 53.796 8.92646 53.4405 9.10658C52.5423 9.56161 51.5271 10.0783 50.8722 9.74173C50.3646 9.48103 49.9155 9.12554 49.4407 8.75108C48.9518 8.36478 48.4466 7.96662 47.8689 7.67749C45.8339 6.6584 43.2796 7.00679 41.0248 7.31725C40.5804 7.37887 40.1453 7.43812 39.7266 7.48552C36.7162 7.8268 33.7176 8.29131 30.8172 8.7416C30.74 8.75345 30.6675 8.77241 30.5973 8.79611C29.3412 8.90039 28.0875 9.00941 26.8314 9.11606C24.9134 9.27958 22.993 9.44548 21.075 9.6019C20.2212 9.67063 19.6412 10.0285 19.1921 10.7584C18.6237 11.6827 18.0295 12.6118 17.4541 13.51C16.7781 14.5646 16.0811 15.6548 15.4192 16.7473C14.8695 17.655 14.2169 18.2949 13.3631 18.7594C12.6848 19.1292 12.0135 19.5368 11.3656 19.9302C10.8299 20.2549 10.2779 20.5914 9.72356 20.9019C9.07097 21.2692 8.74116 21.7883 8.64994 22.5846C7.84998 29.5712 6.33193 41.9543 4.86301 53.9297C3.73091 63.1797 2.65962 71.9177 2.01872 77.3497C1.90177 78.3498 2.34151 78.6318 3.09468 78.7598C3.21398 78.7811 3.32391 78.7906 3.42215 78.7906C3.65138 78.7906 3.82915 78.7361 3.97417 78.6271C4.23146 78.4304 4.31801 78.1033 4.36713 77.672C4.66887 75.0082 5.60917 67.5925 6.51906 60.421C7.37983 53.6406 8.19148 47.2369 8.47451 44.7698C9.25341 38.0012 10.0604 30.9221 10.872 23.7269C10.9422 23.1036 11.1761 22.7481 11.6556 22.5348C15.0402 21.037 17.5711 18.5817 19.1733 15.2353C19.2108 15.1547 19.2763 15.0741 19.3745 14.958V15.3822L19.8189 14.4674C19.8938 14.3134 19.971 14.1593 20.0481 14.0053C20.144 13.8157 20.24 13.6237 20.3312 13.4341C20.661 12.7421 21.3019 12.2302 22.1416 11.9956L22.1743 11.9837C22.3404 11.9102 22.565 11.8605 22.8597 11.8391C26.4946 11.55 29.7856 11.2206 32.9246 10.8319C34.1293 10.6826 35.3479 10.5049 36.5291 10.3318C38.5922 10.0285 40.7277 9.71803 42.8352 9.5545C44.8632 9.40045 46.428 9.38623 48.1285 10.6471C48.2992 10.7727 48.4723 10.9125 48.6501 11.0571C49.2629 11.5524 49.9576 12.1117 50.7295 12.2823C51.6768 12.4909 52.6756 12.0074 53.5551 11.5808C53.7726 11.4742 53.9831 11.3723 54.182 11.2869C57.7443 9.75358 61.5476 10.2323 65.2246 10.6945C65.9801 10.7893 66.7614 10.8864 67.5263 10.967C67.9403 11.0097 68.3613 11.0736 68.5695 11.3509C68.7332 11.569 68.7473 11.8865 68.7449 12.2468L68.7168 20.7526C68.7145 21.5536 68.7496 22.3191 69.2151 22.9069C69.5098 23.279 70.0361 23.4875 70.5226 23.4259C70.8992 23.3785 71.1986 23.1676 71.3389 22.85C71.491 22.5111 71.4395 22.1485 71.3927 21.8285C71.0325 19.333 70.9506 16.7995 71.1448 14.2849C72.6043 17.1716 74.9294 19.5676 77.762 21.0915L77.914 21.1721C78.4871 21.4778 79.0812 21.793 79.3712 22.3286C79.5584 22.6746 79.6075 23.0941 79.6543 23.4994L85.5791 74.8423C85.6539 75.5011 85.9837 76.3496 86.5287 76.6624C86.7907 76.8117 87.0761 76.8259 87.3568 76.6979C87.7965 76.4965 88.014 76.0249 87.9977 75.2949C87.9953 75.1693 87.986 75.0342 87.9696 74.8897V74.8991Z" fill="#2E2D2A"/>
<path d="M61.0823 27.7372C62.7009 27.7372 64.2096 27.1186 65.3323 25.9905C66.4597 24.8577 67.0796 23.3314 67.0773 21.6938C67.0773 18.4351 64.4294 15.7712 61.1805 15.7546H61.1477C57.8427 15.7546 55.2393 18.3142 55.2136 21.5966C55.1878 25.0117 57.7398 27.7087 61.0261 27.7395C61.0448 27.7395 61.0635 27.7395 61.0846 27.7395L61.0823 27.7372ZM58.5631 24.2486C57.8871 23.5613 57.5199 22.6583 57.5269 21.7056C57.5363 20.7576 57.9456 19.8168 58.652 19.12C59.3373 18.4469 60.2402 18.063 61.1407 18.063C61.1618 18.063 61.1828 18.063 61.2039 18.063C63.1336 18.1009 64.7008 19.7528 64.6938 21.7435C64.6867 23.7462 63.1383 25.3246 61.1665 25.3364H61.1454C60.17 25.3364 59.2531 24.9501 58.5608 24.2462L58.5631 24.2486Z" fill="#2E2D2A"/>
<path d="M60.2447 65.505C58.8109 61.5779 57.3303 57.5206 55.9596 53.4987C55.6625 52.6313 55.1082 51.5151 53.686 51.8326C53.5597 51.8326 53.4545 51.8326 53.3632 51.8326C53.1925 51.8326 53.0732 51.835 52.9516 51.8303C52.5797 51.8113 52.161 51.8137 51.8756 52.0815C51.6745 52.2711 51.5715 52.5626 51.5645 52.9726C51.5552 53.4608 51.6651 53.8021 51.899 54.0154C52.1376 54.231 52.4767 54.2998 52.9656 54.2334C53.5784 54.1505 53.7913 54.442 54.0182 55.0866C54.762 57.2053 55.5316 59.3525 56.2754 61.4286C56.8742 63.0971 57.4706 64.7679 58.0624 66.4387L58.0764 66.4766C58.2121 66.863 58.3408 67.2256 58.6729 67.3843C58.7782 67.4341 58.8951 67.4602 59.0238 67.4602C59.1828 67.4602 59.3629 67.4223 59.5711 67.3464C59.9991 67.19 60.2541 66.9957 60.3757 66.7326C60.5325 66.3913 60.4272 65.9979 60.2892 65.6211L60.2471 65.5026L60.2447 65.505Z" fill="#2E2D2A"/>
<path d="M37.612 26.4598C37.4553 26.2537 37.2518 26.1399 37.0366 26.1399C36.8191 26.1399 36.6109 26.256 36.4519 26.4693C36.3911 26.5499 36.2975 26.6257 36.1993 26.7063C35.9326 26.9244 35.5654 27.223 35.7408 27.806C35.963 28.5454 38.2506 30.4035 39.0155 30.3181C39.7967 30.2233 39.9792 30.5196 40.1031 31.3965C40.2903 32.726 40.5031 34.0745 40.7066 35.378C40.8329 36.1885 40.9616 36.9991 41.0832 37.812C41.1347 38.1532 41.2282 38.5324 41.5253 38.7386C41.661 38.8334 41.82 38.8784 42.0071 38.8784C42.1054 38.8784 42.213 38.8666 42.3299 38.8405C42.3907 38.8263 42.4539 38.8145 42.517 38.8026C42.9217 38.7268 43.5977 38.6012 43.4714 37.6911L43.1229 35.5439C42.7673 33.3493 42.4118 31.1571 42.0516 28.9625C41.9533 28.3724 41.5066 27.9695 41.0084 28.0169C39.619 28.1567 38.5079 27.6519 37.612 26.4622V26.4598Z" fill="#2E2D2A"/>
<path d="M75.9703 54.7382C75.8814 54.2547 75.8113 53.8684 75.7388 53.4797C75.6031 52.7474 75.4651 52.0151 75.3247 51.2804C74.9856 49.4887 74.6371 47.6378 74.3236 45.8129C74.1459 44.782 73.4488 44.8744 72.8804 44.9455C72.4828 44.9976 72.2255 45.1232 72.0688 45.3413C71.9238 45.5475 71.884 45.8129 71.9518 46.1589L72.3612 48.2753C72.8243 50.6595 73.3015 53.1242 73.7435 55.5534C73.809 55.9137 73.9424 56.153 74.1529 56.2834C74.2839 56.3663 74.4265 56.3948 74.5692 56.3948C74.7306 56.3948 74.892 56.3569 75.0324 56.3166C75.1236 56.2905 75.2335 56.2715 75.3411 56.255C75.6218 56.2099 75.9118 56.1625 76.0569 55.9421C76.1083 55.8615 76.1621 55.7265 76.1177 55.5416L75.9703 54.7334V54.7382Z" fill="#2E2D2A"/>
<path d="M41.1885 16.8163C41.7078 18.5085 42.6083 18.973 43.441 18.973C43.6726 18.973 43.8995 18.9374 44.1123 18.8805C44.3322 18.8805 44.524 18.8805 44.6994 18.8758C45.0526 18.8734 45.331 18.8687 45.6046 18.8829C45.9648 18.8995 46.2315 18.8237 46.4186 18.6506C46.6829 18.4042 46.7227 18.006 46.7297 17.7287C46.7438 17.2287 46.6315 16.885 46.3859 16.6741C46.1567 16.4798 45.8315 16.4253 45.4152 16.5106C44.0398 16.795 43.282 16.2641 42.882 14.7331C42.7627 14.2781 42.5662 13.8467 42.3744 13.4296C42.2575 13.1713 42.1335 12.9059 42.0352 12.6404C41.9206 12.3371 41.7686 12.1451 41.5651 12.0574C41.2657 11.9271 40.9523 12.0574 40.6763 12.1688C40.6225 12.1901 40.5663 12.2138 40.5125 12.2352C40.2178 12.3465 39.895 12.4911 39.7687 12.7992C39.6798 13.0149 39.7079 13.2732 39.8482 13.5813L40.0424 14.0031C40.4611 14.9132 40.8938 15.8541 41.1885 16.8139V16.8163Z" fill="#2E2D2A"/>
<path d="M75.0228 63.7227C74.9573 63.4833 74.8053 62.9264 74.1504 63.0188C73.5937 63.0306 73.2007 63.1871 72.9785 63.4833C72.761 63.7724 72.7212 64.1848 72.8569 64.7062C72.9715 65.1423 73.1001 65.5831 73.2264 66.0073C73.3855 66.5477 73.5492 67.1046 73.6826 67.6592C73.7668 68.0052 73.9071 68.2351 74.1153 68.3631C74.2486 68.4436 74.3983 68.4745 74.548 68.4745C74.7328 68.4745 74.9223 68.4318 75.1 68.3844C75.3924 68.3062 75.7503 68.1782 75.9234 67.8654C76.0473 67.6402 76.0567 67.3629 75.9514 67.0146C75.617 65.9007 75.3059 64.7749 75.0205 63.725L75.0228 63.7227Z" fill="#2E2D2A"/>
<path d="M43.4551 67.4768C43.123 65.9268 42.7792 64.3271 42.5148 62.7416C42.1523 60.5636 41.6541 59.426 40.7933 58.8122C39.9512 58.2126 38.7349 58.1131 36.728 58.4804C36.1409 58.5894 35.5281 58.6487 34.9387 58.7079C34.5012 58.7506 34.0498 58.7956 33.6077 58.8596C33.4183 58.888 33.2896 58.8738 33.2311 58.8241C33.1773 58.7767 33.1493 58.6582 33.1493 58.4804V58.1202C33.1586 56.8783 33.1656 55.5938 33.1446 54.3306C33.1376 53.9159 33.3645 53.7997 33.7972 53.6149L33.8603 53.5888C34.2299 53.43 34.5971 53.2712 34.9667 53.1124C35.9795 52.6787 37.0274 52.2284 38.0496 51.7639C40.0401 50.8586 40.6226 49.8774 40.4401 47.7326C40.1992 44.8555 39.8951 41.8504 39.5162 38.5395C39.2893 36.5511 37.9958 35.3993 36.1456 35.5249C34.2744 35.6553 33.1282 36.954 33.0838 39.0017C33.0674 39.7364 33.044 40.4734 33.023 41.2081C32.9832 42.4642 32.9434 43.7629 32.9364 45.0427C32.9341 45.6068 32.7703 45.8248 32.2394 45.9741C28.4057 47.043 24.296 48.1971 20.2073 49.3916C19.7021 49.5385 19.5196 49.3703 19.2272 48.9484L19.2132 48.9295C18.1349 47.3795 17.0215 45.7774 15.8777 44.2346C15.3 43.4572 14.4883 42.9714 13.5924 42.8671C12.6802 42.7604 11.7633 43.0591 11.0078 43.7013C10.1143 44.4621 9.80317 45.4764 10.0839 46.7159C10.3412 47.8511 10.8885 48.8584 11.4195 49.8348L11.5738 50.1192C12.0533 51.0079 12.5539 51.9038 13.0381 52.7712C13.5714 53.7286 14.1234 54.7193 14.6497 55.7004C15.3514 57.0063 16.4297 57.5988 17.8542 57.4661C18.8062 57.376 19.833 57.2196 20.9932 56.9921C21.3066 56.9305 21.5195 56.9447 21.6248 57.0347C21.7277 57.1248 21.7721 57.331 21.7604 57.6462C21.737 58.1818 21.7417 58.7269 21.7487 59.3549C21.7511 59.663 21.7534 59.9948 21.7534 60.3645L21.7581 60.4048C22.0341 62.0045 21.4142 63.7583 20.7008 65.4149C19.281 68.7139 17.8963 72.0911 16.5584 75.3593L15.6227 77.6368C14.9234 79.3385 15.2064 81.0282 16.3619 82.0497C17.0636 82.6683 17.8752 82.9953 18.6963 82.9953C18.8764 82.9953 19.0588 82.9787 19.2389 82.9479C20.2985 82.7607 21.2201 82.0426 21.8306 80.9311L22.0201 80.5874C24.0995 76.8002 26.2491 72.8827 28.3051 68.9983C28.7682 68.1238 29.2805 67.5692 30.4032 67.4981C31.7552 67.4128 33.1165 67.1805 34.4311 66.9554C34.6767 66.9127 34.9223 66.8725 35.1655 66.8298C35.5772 66.7611 35.7129 66.8416 35.8602 67.2398C36.169 68.074 36.431 68.9462 36.6836 69.7899C37.0976 71.1787 37.528 72.6125 38.1899 73.9492C38.2484 74.0653 38.2274 74.1103 38.0426 74.2928C38.0122 74.3212 37.9841 74.3521 37.956 74.3829L37.7666 74.5867C37.4906 74.8853 37.2075 75.1934 36.9035 75.4588C36.6368 75.6911 36.3631 75.9802 36.3514 76.3523C36.3421 76.6414 36.4871 76.9211 36.8076 77.2387C37.1374 77.5634 37.4251 77.7127 37.7104 77.6984C38.0777 77.6842 38.363 77.4069 38.5712 77.1676C38.8659 76.8263 39.1981 76.504 39.5185 76.1888C39.6963 76.0158 39.8717 75.8428 40.0448 75.665C40.3021 75.402 40.5617 75.274 40.9173 75.2337C42.2576 75.0867 43.1721 74.653 43.7101 73.9136C44.2598 73.16 44.3954 72.1172 44.1288 70.7236C43.9206 69.6335 43.6844 68.5338 43.4551 67.4673V67.4768ZM24.0925 59.855V58.3572C24.0901 57.395 24.0878 56.5939 24.0925 55.7952C24.0971 55.2359 23.9615 54.8449 23.6784 54.6031C23.3907 54.3567 22.9767 54.2832 22.4107 54.3804C21.6879 54.506 20.9488 54.6197 20.233 54.7288C19.5102 54.8401 18.7618 54.9563 18.0273 55.0819C17.3653 55.1956 17.0121 55.0653 16.7665 54.615C16.3362 53.8234 15.8824 53.0271 15.445 52.2593C14.4509 50.5126 13.4217 48.7043 12.5937 46.8344C12.2639 46.0902 12.2147 45.7063 12.7948 45.4124C13.3656 45.1257 13.7421 45.2797 14.238 46.0049C14.7105 46.6946 15.2087 47.3842 15.6906 48.0502C16.3642 48.9816 17.0589 49.9438 17.6905 50.9202C18.3431 51.9275 19.1056 52.1929 20.3196 51.8374C23.3673 50.9416 26.476 50.067 29.484 49.2186C30.7751 48.8536 32.0663 48.491 33.3574 48.1237C35.1772 47.607 35.2685 47.4861 35.2942 45.538C35.3059 44.6161 35.3152 43.6918 35.3246 42.7699C35.3363 41.5209 35.3503 40.272 35.3714 39.0254C35.3831 38.3191 35.6988 37.9613 36.3397 37.9328C36.8497 37.9068 37.0789 38.1603 37.1771 38.8642C37.1912 38.9709 37.2145 39.0775 37.2356 39.1818C37.2613 39.3098 37.2871 39.433 37.2988 39.5515C37.3783 40.3952 37.4555 41.2366 37.5303 42.0803C37.6964 43.9194 37.8671 45.8201 38.087 47.6829C38.211 48.7328 37.8718 49.2992 36.8754 49.6997C36.0474 50.0339 35.217 50.3988 34.4124 50.752C33.6358 51.0932 32.8312 51.4487 32.0312 51.771C31.1143 52.1431 30.7354 52.7167 30.7611 53.6883C30.7938 54.9492 30.7892 56.2337 30.7845 57.4779C30.7821 58.2268 30.7775 58.9757 30.7845 59.7246C30.7892 60.502 30.9085 60.9238 31.1962 61.1774C31.5517 61.4926 32.1178 61.4689 32.6791 61.3978C33.2335 61.3267 33.7855 61.2485 34.3375 61.1727C35.3854 61.0258 36.4684 60.8764 37.5373 60.7698C38.6414 60.6608 39.1864 60.6157 39.46 60.8196C39.736 61.0258 39.8553 61.5922 40.0729 62.6278C40.1314 62.9051 40.1875 63.1848 40.2436 63.4644L40.7372 65.9102C41.1184 67.7896 41.4974 69.669 41.8693 71.5508C42.0611 72.5248 41.5933 72.7689 41.2237 72.8685C40.5804 73.0415 40.143 72.776 39.8834 72.0532C39.846 71.9513 39.8156 71.8446 39.7852 71.7404C39.7618 71.6598 39.7384 71.5768 39.7127 71.4963C39.5185 70.8919 39.322 70.2899 39.1256 69.6856C38.6835 68.3276 38.225 66.9222 37.7923 65.5358C37.4718 64.5072 36.8497 64.128 35.776 64.3105C33.6756 64.666 31.3997 65.0026 28.6185 65.3675C27.8583 65.4671 27.3741 65.806 27.0022 66.5027C25.8538 68.6452 24.6655 70.8137 23.517 72.9111C23.0796 73.7098 22.6399 74.5108 22.2025 75.3119C21.9475 75.7788 21.6926 76.248 21.44 76.7149C20.8786 77.7506 20.2962 78.8218 19.7114 79.867C19.3348 80.54 18.846 80.7367 18.2589 80.4523C17.5992 80.1324 17.4145 79.611 17.6928 78.8621C17.7349 78.7531 17.7747 78.6417 17.8144 78.5327C17.894 78.3146 17.9758 78.0895 18.0647 77.8762C18.4062 77.0538 18.7547 76.2338 19.1033 75.4162C19.8377 73.6908 20.5979 71.9039 21.2692 70.1169C21.6014 69.2353 22.0037 68.356 22.3943 67.5076C23.5732 64.9433 24.6866 62.5188 24.0925 59.8574V59.855Z" fill="#2E2D2A"/>
<path d="M19.564 41.1915C19.564 42.8315 20.1838 44.3578 21.3089 45.4882C22.4316 46.6163 23.938 47.2349 25.559 47.2349C25.5777 47.2349 25.5987 47.2349 25.6174 47.2349C28.9015 47.2041 31.4557 44.5071 31.43 41.092C31.4043 37.8096 28.8009 35.25 25.4958 35.25H25.4631C22.2141 35.2666 19.5686 37.9304 19.5663 41.1891L19.564 41.1915ZM21.9451 41.2436C21.9381 39.2529 23.5053 37.601 25.435 37.5631C26.3519 37.537 27.2852 37.9304 27.9869 38.6201C28.6933 39.3169 29.105 40.2577 29.112 41.2057C29.1213 42.1561 28.7541 43.059 28.0758 43.7463C27.3858 44.4502 26.4665 44.8365 25.4911 44.8365H25.4724C23.5006 44.8247 21.9521 43.2486 21.9451 41.2436Z" fill="#2E2D2A"/>
<path d="M25.4185 29.4744C25.6267 29.5503 25.8068 29.5882 25.9658 29.5882C26.0968 29.5882 26.2114 29.5621 26.3167 29.5123C26.6488 29.3536 26.7775 28.9886 26.9132 28.6047L26.9272 28.5667C27.519 26.8912 28.1178 25.2203 28.7166 23.5495C29.4604 21.4758 30.2276 19.3286 30.9714 17.2146C31.1983 16.57 31.4135 16.2785 32.024 16.3614C32.5152 16.4278 32.8543 16.3614 33.0906 16.1434C33.3268 15.9301 33.4368 15.5888 33.4251 15.1006C33.4157 14.6906 33.3151 14.3991 33.114 14.2095C32.8286 13.9417 32.4099 13.9417 32.038 13.9583C31.9164 13.9654 31.7971 13.963 31.6263 13.9606C31.5351 13.9606 31.4299 13.9606 31.3036 13.9606C29.8814 13.6454 29.3247 14.7593 29.03 15.6267C27.6593 19.6486 26.1763 23.7083 24.7448 27.633L24.7027 27.7515C24.5647 28.1283 24.4595 28.5241 24.6162 28.863C24.7355 29.126 24.9928 29.3204 25.4208 29.4768L25.4185 29.4744Z" fill="#2E2D2A"/>
<path d="M20.3662 25.9053C20.268 25.8247 20.1744 25.7489 20.1136 25.6683C19.9545 25.455 19.7464 25.3389 19.5288 25.3389C19.3136 25.3389 19.1101 25.4526 18.9534 25.6588C18.0576 26.8485 16.9465 27.3557 15.5571 27.2135C15.0612 27.1637 14.6121 27.569 14.5139 28.1591C14.1513 30.3537 13.7982 32.5507 13.4426 34.7453L13.0941 36.8924C12.9678 37.7978 13.6438 37.9234 14.0484 37.9992C14.1116 38.0111 14.1747 38.0229 14.2356 38.0371C14.3502 38.0632 14.4578 38.0751 14.5583 38.0751C14.7455 38.0751 14.9069 38.0277 15.0402 37.9352C15.3373 37.729 15.4308 37.3522 15.4823 37.0086C15.6039 36.1957 15.7326 35.3851 15.8589 34.5722C16.0624 33.2688 16.2752 31.9226 16.4623 30.5931C16.5863 29.7162 16.7688 29.4199 17.55 29.5147C18.3149 29.6072 20.6025 27.742 20.8247 27.0026C21.0001 26.4219 20.6329 26.121 20.3662 25.9029V25.9053Z" fill="#2E2D2A"/>
</g>
<defs>
<clipPath id="clip0_29_8352">
<rect width="86" height="76" fill="white" transform="translate(2 7)"/>
</clipPath>
</defs>
</svg>
