<svg width="90" height="90" viewBox="0 0 90 90" fill="none" xmlns="http://www.w3.org/2000/svg">
<g clip-path="url(#clip0_29_8313)">
<path d="M28.076 36.7964C29.9388 36.8712 31.2387 37.8811 32.3305 39.2855C34.0614 41.5139 35.7218 41.4527 37.3117 39.1019C40.1912 34.8207 43.1492 30.5872 45.9094 26.2279C48.8128 21.6407 54.2375 21.6849 57.1887 26.1293C64.3739 36.946 71.7399 47.6437 79.0343 58.389C82.0606 62.8469 85.0971 67.2981 88.1301 71.7492C88.3212 72.0315 88.5293 72.3035 88.6828 72.6061C89.0649 73.3678 89.2424 74.1431 88.3792 74.7076C87.5603 75.2414 86.8336 74.9592 86.2843 74.2587C85.6907 73.5004 85.1551 72.6979 84.6126 71.8988C74.8071 57.4437 65.0051 42.9885 55.1996 28.5334C54.9779 28.2035 54.7663 27.8669 54.5275 27.5507C52.6852 25.0718 50.5255 24.9969 48.6968 27.4792C47.083 29.6691 45.6296 31.9746 44.1148 34.2393C41.689 37.8675 39.2837 41.5127 36.8477 45.1376C35.4659 47.1948 34.6232 47.2118 33.1357 45.2736C32.136 43.9678 31.1398 42.6587 30.1367 41.3563C28.4956 39.2311 27.3527 39.2413 25.7969 41.4753C23.627 44.5969 21.5151 47.7525 19.3794 50.8945C14.4118 58.2156 9.45451 65.5435 4.46308 72.8476C3.83531 73.7657 3.23484 75.2924 1.74048 74.3165C0.266589 73.3542 1.33789 72.2389 1.99295 71.2698C9.15086 60.7081 16.3224 50.1566 23.4701 39.5881C24.5892 37.9355 26.0085 36.861 28.0726 36.7998L28.076 36.7964Z" fill="#2E2D2A"/>
<path d="M27.414 14.0001C32.8831 14.1735 38.707 16.9074 43.2651 22.2733C43.8451 22.9568 44.5582 23.6369 43.4152 24.5346C42.3508 25.3677 41.7401 25.0922 40.9008 24.1231C33.04 15.0236 19.9661 14.4795 11.6379 22.8514C4.42203 30.101 4.1218 41.9379 10.9556 49.5446C11.539 50.1941 12.4022 50.7313 11.4571 51.8059C10.6554 52.724 10.0412 52.9416 9.1337 51.9385C3.60662 45.8143 1.83932 38.7177 3.86932 30.7981C6.44181 20.7601 15.4489 13.9729 27.414 14.0001Z" fill="#2E2D2A"/>
<path d="M61.8593 54.533C62.6099 57.8314 63.3571 61.1332 64.1179 64.4316C64.5888 66.4718 65.1005 68.5053 65.5406 70.5523C65.7556 71.5589 65.9739 72.715 64.5478 73.0176C63.2377 73.2931 62.9272 72.2628 62.7021 71.2902C60.8495 63.2925 59.0037 55.2913 57.1579 47.2935C56.9532 46.406 56.9327 45.5423 57.9187 45.1207C58.9184 44.6956 59.5223 45.3621 60.034 46.083C63.8006 51.4046 67.5604 56.7297 71.3202 62.0581C73.4457 65.0675 75.5713 68.0768 77.6934 71.0896C77.9561 71.4603 78.2188 71.8309 78.4645 72.2117C79.0274 73.0857 79.4061 74.0412 78.3416 74.7417C77.3591 75.3911 76.6289 74.7213 76.0592 73.9392C75.329 72.9292 74.633 71.8921 73.9132 70.8754C70.0271 65.3735 66.1377 59.8784 62.2483 54.3766C62.1186 54.431 61.9924 54.482 61.8628 54.5364L61.8593 54.533Z" fill="#2E2D2A"/>
</g>
<defs>
<clipPath id="clip0_29_8313">
<rect width="88" height="61" fill="white" transform="translate(1 14)"/>
</clipPath>
</defs>
</svg>
