<svg width="409" height="328" viewBox="0 0 409 328" fill="none" xmlns="http://www.w3.org/2000/svg">
<g clip-path="url(#clip0_120_974)">
<path d="M0 268.223H39.9914V255.462H15.9149V241.15H37.1892V228.879H15.9149V215.656H39.9914V202.922H0V268.223Z" fill="#2E2D2A"/>
<path d="M108.82 268.223L87.2192 235.844L107.977 202.922H89.9397L78.4048 222.648L65.292 202.922H46.7654L68.1757 235.001L47.2551 268.223H65.292L76.9901 248.224L90.2934 268.223H108.82Z" fill="#2E2D2A"/>
<path d="M113.282 215.656H130.557V268.223H146.472V215.656H163.774V202.922H113.282V215.656Z" fill="#2E2D2A"/>
<path d="M187.66 216.118H197.508C200.419 216.118 202.623 216.825 204.065 218.268C205.507 219.71 206.241 221.641 206.241 224.117C206.241 226.729 205.507 228.743 204.065 230.158C202.596 231.6 200.419 232.307 197.508 232.307H187.66V216.118ZM187.66 243.572H191.469L205.044 268.223H222.999L207.928 242.374C212.689 240.96 216.307 238.538 218.755 235.11C221.204 231.709 222.428 227.818 222.428 223.492C222.428 219.655 221.53 216.172 219.735 213.016C217.939 209.887 215.219 207.411 211.601 205.616C207.982 203.82 203.575 202.922 198.433 202.922H171.745V268.223H187.66V243.572Z" fill="#2E2D2A"/>
<path d="M232.412 268.223H272.404V255.462H248.3V241.15H269.602V228.879H248.3V215.656H272.404V202.922H232.412V268.223Z" fill="#2E2D2A"/>
<path d="M356.658 268.223V202.922H337.968L319.822 248.115L301.513 202.922H282.714V268.223H298.602V228.961L313.32 268.223H326.134L340.743 229.069V268.223H356.658Z" fill="#2E2D2A"/>
<path d="M408.075 215.656V202.922H368.084V268.223H408.075V255.462H383.999V241.15H405.273V228.879H383.999V215.656H408.075Z" fill="#2E2D2A"/>
<path d="M21.1655 308.41C19.0163 310.396 15.8061 311.403 11.5349 311.403H3.86308V327.619H0.0543823V289.582H11.5349C15.7789 289.582 18.9891 290.588 21.1383 292.574C23.2875 294.561 24.3757 297.227 24.3757 300.519C24.3757 303.812 23.3147 306.424 21.1655 308.41ZM20.4581 300.519C20.4581 297.989 19.7508 296.057 18.3361 294.751C16.9215 293.445 14.6635 292.792 11.5349 292.792H3.86308V308.138H11.5349C17.4928 308.138 20.4581 305.607 20.4581 300.519Z" fill="#2E2D2A"/>
<path d="M37.3796 292.683V306.886H51.7983V310.042H37.3796V324.463H53.4306V327.619H33.5709V289.527H53.4306V292.683H37.3796Z" fill="#2E2D2A"/>
<path d="M92.497 327.619H88.6882L67.6316 295.622V327.619H63.8229V289.582H67.6316L88.6882 321.524V289.582H92.497V327.619Z" fill="#2E2D2A"/>
<path d="M121.606 289.582V318.368C121.606 321.28 120.709 323.592 118.94 325.361C117.172 327.129 114.778 328 111.813 328C108.847 328 106.263 327.075 104.44 325.198C102.617 323.32 101.692 320.79 101.692 317.606H105.555C105.583 319.674 106.099 321.361 107.106 322.667C108.113 323.973 109.663 324.626 111.813 324.626C113.853 324.626 115.349 324.028 116.329 322.83C117.308 321.633 117.798 320.137 117.798 318.368V289.582H121.606Z" fill="#2E2D2A"/>
<path d="M156.048 318.586H138.745L135.426 327.619H131.4L145.275 290.071H149.573L163.393 327.619H159.367L156.048 318.586ZM154.905 315.43L147.397 294.86L139.888 315.43H154.905Z" fill="#2E2D2A"/>
<path d="M173.024 298.533C174.656 295.567 176.887 293.282 179.716 291.622C182.546 289.962 185.701 289.146 189.184 289.146C193.428 289.146 197.073 290.153 200.093 292.166C203.113 294.18 205.316 297.009 206.704 300.683H202.242C201.154 298.098 199.494 296.084 197.263 294.642C195.033 293.2 192.339 292.466 189.184 292.466C186.381 292.466 183.879 293.119 181.648 294.425C179.417 295.731 177.676 297.608 176.397 300.057C175.119 302.506 174.493 305.335 174.493 308.573C174.493 311.811 175.119 314.641 176.397 317.062C177.676 319.484 179.417 321.361 181.648 322.667C183.879 323.973 186.381 324.626 189.184 324.626C192.339 324.626 195.033 323.919 197.263 322.477C199.494 321.035 201.154 319.048 202.242 316.518H206.704C205.316 320.137 203.112 322.966 200.066 324.953C197.019 326.939 193.4 327.946 189.184 327.946C185.701 327.946 182.546 327.129 179.716 325.47C176.887 323.81 174.656 321.524 173.024 318.586C171.391 315.647 170.575 312.301 170.575 308.573C170.575 304.846 171.391 301.499 173.024 298.533ZM197.073 282.29L189.782 286.752L182.491 282.29V279.242L189.782 283.759L197.073 279.242V282.29Z" fill="#2E2D2A"/>
<path d="M237.391 327.619L220.905 310.042V327.619H217.096V289.582H220.905V307.376L237.391 289.582H242.233L224.441 308.573L242.397 327.619H237.391Z" fill="#2E2D2A"/>
<path d="M254.639 289.582V327.619H250.83V289.582H254.639Z" fill="#2E2D2A"/>
<path d="M304.261 327.619L287.774 310.042V327.619H283.966V289.582H287.774V307.376L304.261 289.582H309.103L291.311 308.573L309.266 327.619H304.261Z" fill="#2E2D2A"/>
<path d="M321.509 324.517H335.166V327.619H317.7V289.582H321.509V324.517Z" fill="#2E2D2A"/>
<path d="M347.136 289.582V313.525C347.136 317.307 348.034 320.082 349.829 321.905C351.625 323.728 354.073 324.626 357.202 324.626C360.33 324.626 362.752 323.728 364.52 321.933C366.288 320.137 367.159 317.334 367.159 313.525V289.582H370.967V313.471C370.967 318.287 369.689 321.933 367.131 324.354C364.574 326.776 361.255 328 357.147 328C353.039 328 349.72 326.776 347.163 324.354C344.606 321.933 343.327 318.287 343.327 313.471V289.582H347.136Z" fill="#2E2D2A"/>
<path d="M405.518 311.24C407.014 313.008 407.749 315.076 407.749 317.443C407.749 319.375 407.259 321.089 406.307 322.64C405.355 324.191 403.94 325.388 402.09 326.286C400.24 327.184 398.036 327.619 395.452 327.619H382.285V289.582H395.071C398.907 289.582 401.845 290.479 403.858 292.248C405.871 294.017 406.878 296.329 406.878 299.159C406.878 301.526 406.252 303.431 404.974 304.9C403.695 306.369 402.063 307.403 400.077 307.975C402.226 308.383 404.021 309.471 405.518 311.24ZM386.093 306.396H394.962C397.547 306.396 399.533 305.798 400.92 304.574C402.308 303.349 403.015 301.689 403.015 299.54C403.015 297.39 402.308 295.785 400.92 294.588C399.533 293.391 397.492 292.792 394.799 292.792H386.093V306.396ZM401.627 322.45C403.178 321.144 403.94 319.348 403.94 317.062C403.94 314.777 403.124 312.954 401.519 311.593C399.913 310.233 397.737 309.553 395.017 309.553H386.093V324.409H395.18C397.928 324.409 400.077 323.756 401.627 322.45Z" fill="#2E2D2A"/>
<path d="M212.226 13.8765C212.226 13.8765 212.172 13.9578 212.145 14.0121C212.199 13.9307 212.226 13.8765 212.226 13.8765Z" fill="#2E2D2A"/>
<path d="M208.662 26.3926C208.662 26.3926 208.635 26.5014 208.608 26.583C208.662 26.583 208.717 26.6375 208.662 26.3926Z" fill="#2E2D2A"/>
<path d="M261.086 65.7634C261.086 65.7634 260.842 65.5729 260.678 65.4097C260.869 65.6001 260.978 65.709 261.086 65.7634Z" fill="#2E2D2A"/>
<path d="M213.695 173.781C213.695 173.781 213.777 173.781 213.831 173.781C213.723 173.781 213.614 173.727 213.505 173.727L213.695 173.809V173.781Z" fill="#2E2D2A"/>
<path d="M213.831 173.782C214.593 173.918 215.355 173.945 216.144 173.863C216.144 173.727 215.11 173.727 214.566 173.646C214.675 173.7 214.076 173.754 213.831 173.782Z" fill="#2E2D2A"/>
<path d="M125.932 174.407L126.122 174.135C125.959 174.244 125.932 174.326 125.932 174.407Z" fill="#2E2D2A"/>
<path d="M115.05 154.926L115.159 154.817C114.996 154.654 114.914 154.871 115.05 154.926Z" fill="#2E2D2A"/>
<path d="M122.994 146.546C122.994 146.546 123.048 146.491 123.103 146.437C123.103 146.301 123.103 146.138 123.13 146.029L122.967 146.546H122.994Z" fill="#2E2D2A"/>
<path d="M126.803 43.833C126.803 43.833 126.748 43.8602 126.694 43.8874C126.775 43.8874 126.884 43.8602 126.966 43.833H126.803Z" fill="#2E2D2A"/>
<path d="M126.258 44.2141C126.258 44.2141 126.558 43.9692 126.721 43.8604C126.122 43.9692 125.551 44.2141 125.034 44.5134C125.089 44.6494 125.85 44.2957 126.258 44.1869" fill="#2E2D2A"/>
<path d="M208.798 25.7394V25.8479C208.988 25.875 208.934 25.7123 208.798 25.7394Z" fill="#2E2D2A"/>
<path d="M103.488 148.342C103.488 148.342 103.488 148.287 103.515 148.26C103.433 148.151 103.379 148.069 103.325 147.988L103.488 148.342Z" fill="#2E2D2A"/>
<path d="M83.6826 101.733C83.6826 101.733 83.6826 101.76 83.6826 101.787C83.7368 101.76 83.7639 101.706 83.8181 101.679L83.7097 101.733H83.6826Z" fill="#2E2D2A"/>
<path d="M83.6282 102.141C83.6282 102.141 83.6282 101.896 83.6282 101.788C83.3562 102.06 83.1929 102.359 83.1113 102.74C83.2474 102.794 83.4378 102.359 83.601 102.169" fill="#2E2D2A"/>
<path d="M95.1631 181.781C95.1631 181.781 94.9999 181.59 94.9455 181.509C95.0543 181.699 95.1359 181.754 95.1631 181.781Z" fill="#2E2D2A"/>
<path d="M251.456 181.781H251.347C251.347 181.781 251.184 181.971 251.102 182.053L251.456 181.781Z" fill="#2E2D2A"/>
<path d="M376 161.592L375.919 161.51C375.783 161.51 375.647 161.51 375.565 161.51L376 161.592Z" fill="#2E2D2A"/>
<path d="M362.588 147.144C362.588 147.144 362.561 147.09 362.534 147.036C362.507 147.09 362.425 147.117 362.588 147.144Z" fill="#2E2D2A"/>
<path d="M350.21 134.437C350.21 134.437 350.291 134.329 350.318 134.274L350.21 134.437Z" fill="#2E2D2A"/>
<path d="M282.334 83.9658C282.334 83.9658 282.306 84.0202 282.279 84.0747L282.66 84.2379C282.524 84.1019 282.415 84.0202 282.334 83.9658Z" fill="#2E2D2A"/>
<path d="M330.949 131.662L327.956 131.608C327.956 131.608 327.875 131.662 327.875 131.69C328.283 131.798 329.425 131.907 330.84 131.989L330.949 131.662Z" fill="#2E2D2A"/>
<path d="M243.621 181.536C243.621 181.536 243.866 181.536 244.002 181.536C243.92 181.672 243.811 181.672 243.621 181.536ZM211.029 11.7268C211.029 11.7268 211.22 11.6724 211.301 11.8085C211.709 12.7063 211.791 13.4138 212.009 14.23C211.845 13.5498 211.873 13.4138 211.845 13.3321C211.845 13.2505 211.845 13.2233 212.036 13.1689C212.063 13.6042 212.036 13.6314 212.009 13.9852C212.009 14.4749 212.09 13.7131 212.226 13.8763C212.362 13.6586 212.58 13.4138 212.825 13.2777C212.934 13.1961 213.07 13.1417 213.151 13.1417C213.206 13.1417 213.233 13.1145 213.314 13.1417C213.396 13.1961 213.478 13.2505 213.532 13.3049C213.532 13.3049 213.505 13.2505 213.45 13.1961C213.423 13.1417 213.342 13.0056 213.342 12.9784C213.342 12.8968 213.287 12.788 213.287 12.788L213.45 12.8696C213.45 12.8696 213.668 13.0601 213.75 13.1417L214.43 13.7675C214.892 14.2028 215.328 14.6382 215.79 15.1007C216.688 16.0258 217.586 17.0597 218.429 18.1481L218.157 18.2569L220.252 20.352L220.143 20.7057L223.081 23.753L222.755 23.2633C223.462 23.9707 225.747 26.2835 226.863 27.7799L226.672 27.8616C229.801 32.1061 233.256 34.7998 237.472 39.2892L236.656 38.9355C237.799 40.7312 237.472 38.9627 239.023 40.9489L238.778 41.357C240.71 42.5814 240.601 43.5337 241.472 44.8125V43.8874L243.267 46.0913C245.226 48.5401 244.002 48.0231 243.458 47.8871L245.253 49.1387L245.144 49.7917C246.641 50.5263 246.124 51.0161 248.218 52.8119C248.218 53.1112 247.674 52.6758 248.218 53.4377L251.81 56.2674L249.742 54.4716L250.531 54.1995C252.871 55.8864 253.061 57.0836 254.584 58.444L253.469 57.5734C255.836 59.8861 255.727 60.2398 256.842 61.7363C256.57 61.2193 256.108 60.4031 257.087 61.3282C257.767 62.0356 257.251 61.8995 257.822 62.6614C258.339 62.4709 260.161 64.049 261.413 65.7904C261.331 65.8176 261.25 65.8448 261.141 65.7632C261.576 66.1169 261.848 66.2257 262.419 67.0148H261.631L263.263 67.9671C263.97 68.9738 265.494 70.0077 265.086 70.1438L264.541 69.7084L267.616 73.1911C267.779 73.3544 267.915 73.5448 268.078 73.7081L268.214 73.8713C268.214 73.8713 268.35 74.0618 268.432 74.1434C268.541 74.2795 268.622 74.3883 268.622 74.3883L268.051 74.4427C268.269 74.4427 268.405 74.4971 268.513 74.5788C268.323 74.7964 267.724 74.8781 268.296 75.1501C268.105 75.1501 268.024 75.2046 267.833 75.3406C267.289 75.8031 266.718 76.3201 266.174 76.7554C265.14 77.6533 264.324 78.2791 264.433 77.6261C259.726 81.4898 257.74 84.265 251.782 88.7C249.279 89.8156 243.893 94.6587 240.193 97.6517C236.738 100.753 233.881 103.338 231.025 105.923C229.583 107.202 228.141 108.508 226.618 109.868C225.856 110.549 225.067 111.256 224.251 111.991C222.891 113.188 221.449 114.412 219.952 115.718C219.626 115.963 219.3 116.181 218.946 116.426C219.272 117.568 219.708 118.82 220.17 120.153C220.415 120.806 220.66 121.486 220.905 122.167C221.068 122.602 221.231 123.037 221.394 123.5C221.993 125.051 222.7 126.629 223.408 128.234C224.822 131.418 226.291 134.628 227.107 137.485L228.114 138.9C228.985 142.954 232.059 148.45 233.555 154.028C233.773 154.436 233.963 154.763 234.099 155.035C234.426 156.232 234.698 157.347 234.834 158.272L235.487 158.572C235.704 159.225 235.514 160.368 236.058 160.667C236.656 162.136 237.962 164.694 238.125 165.973L238.207 165.32C238.561 166.462 238.615 166.054 238.778 166.19L239.295 167.605C239.295 167.605 239.295 167.632 239.295 167.659L238.942 167.006C239.078 167.279 239.186 167.523 239.322 167.768C239.35 167.877 239.404 167.986 239.458 168.068C239.812 168.775 240.166 169.482 240.465 170.163C240.465 170.19 240.465 170.217 240.492 170.244L240.411 170.952C240.655 172.149 240.982 172.775 241.417 173.482C241.417 173.537 241.472 173.564 241.499 173.618C241.145 173.618 240.792 173.564 240.492 173.537L239.812 173.482H239.622H239.05C238.67 173.482 238.261 173.482 237.881 173.482C234.725 173.455 231.379 173.509 227.325 173.89C229.012 173.264 224.822 174.217 224.659 173.537C221.476 172.693 218.755 173.727 216.117 173.945C216.117 173.972 216.089 174.026 215.926 174.081L211.356 173.999C214.103 173.156 208.064 174.707 210.567 173.999C198.651 173.346 183.062 173.999 169.27 173.727L169.868 173.945C166.359 173.89 162.006 174.162 159.367 173.809C156.701 173.455 153.545 174.38 152.511 174.407C149.927 174.734 147.56 174.19 147.914 174.081C144.894 174.217 142.01 174.951 137.821 174.598C136.351 173.89 126.041 175.305 125.905 174.489L125.85 174.543C120.328 173.972 115.104 174.951 109.146 174.434C109.146 174.434 109.255 174.38 109.473 174.326L106.344 174.951C120.763 161.265 124.599 157.402 132.488 149.865C140.405 142.274 148.403 134.737 156.864 127.2C166.467 119.337 176.125 108.617 186.953 99.393C187.442 99.0937 188.748 97.951 190.571 96.2912C191.469 95.475 192.475 94.5227 193.591 93.4888C195.06 92.1011 196.638 90.6047 198.27 89.081C198.76 86.3873 199.249 83.5848 199.712 80.864C200.066 78.6873 200.419 76.6194 200.746 74.742C201.371 71.0144 201.807 68.1847 201.861 67.4501L200.637 70.6063C202.269 60.0494 203.82 55.2606 204.963 46.173L205.017 46.6899C205.126 46.3634 205.099 46.0641 205.099 45.5744C205.697 43.0984 206.296 40.8401 206.867 39.1259L206.54 38.1736C206.812 36.922 207.873 35.1535 207.302 34.4188V34.174C207.656 32.9768 208.064 31.698 208.499 30.2559H208.554C208.635 29.7662 208.499 29.7389 208.853 28.7866L208.009 31.2082C208.091 30.1471 208.091 29.1404 208.2 27.9704C208.282 27.6439 208.363 27.3446 208.499 26.9637C208.499 26.9637 208.581 26.7188 208.635 26.5827H208.581C208.662 26.2562 208.717 25.9842 208.771 25.7665H208.826L209.615 20.8145L210.295 19.3725C210.322 18.3929 209.941 18.2569 209.968 17.223L210.512 16.2163C210.648 15.7265 210.784 15.2912 210.866 14.883C210.92 14.6926 210.948 14.4749 211.002 14.3117C211.002 14.2028 211.029 14.1212 211.056 14.0124C211.056 13.8763 211.056 13.7403 211.029 13.5498C210.975 13.1689 210.893 12.5431 211.029 11.7268ZM282.225 84.1834C282.225 84.1834 282.252 84.129 282.279 84.0746L282.17 84.0201C282.17 84.0201 282.252 83.9113 282.334 83.9657C282.388 83.9113 282.497 83.9113 282.742 84.265H282.66C283.15 84.7276 283.857 85.6527 284.156 86.0608L283.911 86.2785C285.163 86.8226 288.4 93.1078 289.434 94.3866C290.169 95.9103 291.855 97.1347 292.998 98.8216C295.011 101.379 293.678 100.373 294.521 101.787C295.664 103.474 294.521 101.243 295.093 101.842L296.317 103.991C295.365 102.93 295.718 103.638 295.8 103.91C297.106 105.569 298.793 108.481 299.69 108.59C301.268 110.957 301.078 111.147 301.84 112.099C301.676 111.719 301.214 111.011 301.323 110.929C301.84 111.991 301.731 111.31 301.486 110.929C302.819 112.099 306.356 118.602 307.145 118.439L307.036 118.521C307.689 118.521 307.661 117.677 308.668 118.412L308.994 119.174L309.947 119.963C310.327 120.697 309.947 120.48 309.947 120.507C311.416 121.867 312.966 124.18 314.435 126.085L313.891 123.228C314.408 124.098 315.143 125.377 315.796 126.384C315.959 126.629 316.122 126.874 316.285 127.119C316.367 127.227 316.449 127.336 316.503 127.445C316.612 127.554 316.693 127.69 316.775 127.799C317.129 128.207 317.401 128.479 317.537 128.479L318.135 129.785L318.38 129.894C319.006 130.057 319.55 130.166 320.04 130.248C320.502 130.329 320.992 130.384 321.182 130.411C321.672 130.438 321.944 130.411 322.162 130.329C322.57 130.166 322.706 129.921 323.495 130.112L325.508 130.765L323.495 130.629C325.508 131.037 326.297 131.254 327.902 131.69C327.902 131.69 327.711 131.608 327.711 131.581H327.984C328.256 131.336 329.317 131.227 330.731 131.336C332.744 131.554 334.377 131.282 337.587 132.043L338.43 131.554L340.852 132.043V132.479C338.43 132.288 333.941 132.152 330.867 131.962L330.813 132.152C332.636 132.261 334.703 132.234 335.9 132.343C336.417 132.452 337.641 132.887 337.097 133.132L337.995 132.86C341.015 133.05 342.565 133.132 344.116 133.268C344.905 133.349 345.694 133.431 346.673 133.567C347.163 133.621 347.707 133.703 348.333 133.785C348.632 133.839 348.959 133.866 349.312 133.921H349.584L349.666 133.975L349.802 134.03L349.693 133.812C349.884 133.758 350.074 133.73 350.237 133.73C350.373 133.839 350.482 134.002 350.4 134.193L350.564 134.383L351.053 134.9C351.38 135.254 351.706 135.608 352.006 135.961C352.631 136.669 353.257 137.349 353.828 138.029C354.971 139.39 355.95 140.669 356.63 141.73H357.365C357.909 142.355 358.236 143.743 358.997 143.525L360.358 144.587C361.092 145.403 361.772 145.675 362.452 146.763C362.452 146.763 362.534 146.899 362.588 146.981C362.588 146.981 362.588 146.981 362.588 146.954C364.193 148.886 362.888 146.627 364.683 148.858C365.064 149.756 365.853 149.13 366.751 150.192L367.213 151.688C368.682 153.756 369.498 153.565 372.083 156.15C373.144 157.565 373.307 158.599 372.083 158.164C373.661 158.844 372.899 158.381 374.613 159.66C374.64 160.068 374.45 159.959 373.96 159.796C375.048 161.347 374.939 160.449 375.946 161.456C376.599 161.401 377.497 161.157 377.85 161.456L377.578 160.966C378.83 161.837 380.081 162.925 381.115 164.34L380.897 164.476L382.285 165.7L382.122 166.027L384.053 167.823L383.863 167.496C384.325 167.904 385.849 169.265 386.556 170.217L386.393 170.326C386.529 170.489 386.638 170.652 386.746 170.816L386.828 170.925V170.979L386.882 171.061C386.937 171.169 386.991 171.251 387.073 171.333C387.209 171.496 387.399 171.632 387.644 171.768C388.107 172.067 388.841 172.503 389.412 173.047L388.569 172.72C388.107 172.775 389.766 173.128 389.793 173.428L388.814 173.101C389.657 173.482 389.684 173.591 389.385 173.509C388.977 173.373 388.487 173.21 388.025 173.047L389.467 173.645L388.651 173.509C387.699 173.319 387.1 172.747 386.529 172.448C386.556 172.448 387.127 172.911 387.1 172.911L386.311 172.394C386.692 172.693 386.61 172.666 386.502 172.611C386.393 172.557 386.257 172.448 386.311 172.611C386.121 172.421 386.039 172.312 385.957 172.203C385.957 172.203 386.093 172.394 386.093 172.584C386.093 172.775 386.012 172.965 386.012 172.965C386.039 172.965 386.175 172.639 386.148 172.639C386.148 172.639 386.257 172.829 386.365 173.02L386.556 173.4C386.447 173.7 386.202 173.673 386.012 173.618C385.93 173.591 385.849 173.537 385.767 173.509C385.549 173.509 385.25 173.509 384.924 173.537C384.924 173.537 385.141 173.482 385.359 173.428C385.577 173.373 385.821 173.319 385.767 173.319C383.754 173.509 383.591 173.183 382.448 173.02C382.802 173.156 383.373 173.373 382.53 173.482C381.904 173.509 382.203 173.21 381.605 173.128C381.469 173.645 379.972 173.917 378.639 173.673C378.639 173.591 378.694 173.537 378.775 173.482C378.422 173.564 378.258 173.7 377.66 173.564L378.014 172.992L376.871 173.537C376.109 173.373 374.967 173.809 375.075 173.4L375.511 173.292L369.689 173.156L369.607 172.693C369.036 173.319 366.424 172.448 366.615 173.237C365.526 172.802 362.289 173.537 362.942 172.666C359.106 172.611 357.038 173.455 352.386 173.02C350.727 172.285 346.184 172.503 343.191 172.448C341.151 172.557 339.382 172.666 337.641 172.775C336.771 172.829 335.927 172.884 335.057 172.911C334.649 172.911 334.241 172.965 333.805 172.992L333.533 173.074C333.343 172.992 333.479 173.128 332.69 172.666C331.901 172.203 331.085 171.714 330.242 171.251C329.235 170.19 327.848 169.292 326.351 168.449C324.583 167.251 322.379 165.973 320.312 164.803L319.659 164.449L319.332 164.258L319.142 164.15L318.435 163.769C317.945 163.524 317.482 163.252 317.047 163.007C316.149 162.49 315.306 161.918 314.599 161.32L314.163 161.238C312.803 160.422 311.388 159.551 310.164 158.463C309.321 158.164 308.886 157.946 308.722 157.864C308.722 157.864 308.75 157.864 308.777 157.892C308.069 157.456 307.362 156.994 306.682 156.504V156.477L306.954 156.558C307.362 156.177 304.179 155.116 303.445 154.137L303.689 154.953L302.356 154.028C302.356 154.028 302.302 153.946 302.302 153.919L302.601 154.028C302.601 154.028 302.411 153.946 302.329 153.892C302.329 153.837 302.329 153.81 302.384 153.756L302.628 153.837C303.037 153.457 299.962 152.477 299.282 151.525L299.5 152.314L297.976 151.253L298.466 151.416C297.133 150.845 295.963 150.273 294.902 149.702C292.807 148.287 290.876 146.872 288.427 145.512C287.067 144.587 285.625 143.661 283.857 142.791C283.857 142.764 283.857 142.736 283.857 142.709C282.986 141.485 281.762 141.077 280.565 140.75C280.565 140.75 280.565 140.723 280.565 140.696C279.395 138.982 277.464 138.982 276.022 138.356C275.995 138.329 275.94 138.301 275.913 138.274C275.968 138.274 275.995 138.329 276.049 138.356C276.131 138.247 275.587 137.893 275.369 137.676C275.369 137.757 275.07 137.621 274.934 137.567C274.934 137.594 274.988 137.621 275.015 137.648C274.961 137.621 274.907 137.567 274.879 137.54C274.879 137.54 274.907 137.54 274.934 137.567C274.879 137.512 274.852 137.458 274.798 137.403L274.852 137.512C274.58 137.322 274.281 137.104 273.982 136.914C274.199 136.914 274.09 136.887 273.846 136.832C273.383 136.533 272.921 136.206 272.458 135.907C271.968 135.581 271.479 135.254 270.962 134.928C270.744 134.791 270.554 134.655 270.336 134.519C270.336 134.356 270.363 134.22 270.391 134.057C270.391 133.975 270.391 133.894 270.418 133.812C270.499 133.268 270.554 132.724 270.635 132.179C270.826 130.629 271.016 129.05 271.207 127.445C271.343 126.384 271.479 125.296 271.588 124.235C271.778 122.874 271.968 121.514 272.186 120.208L272.104 120.289C272.213 119.527 272.349 118.793 272.458 118.031L272.186 118.357C272.322 117.487 272.404 116.534 272.513 115.582C272.621 114.984 272.73 114.439 272.893 114.004C273.084 113.433 273.138 112.807 273.111 112.208C273.111 112.208 273.111 112.181 273.111 112.154C273.655 110.63 273.002 108.644 273.057 108.018C273.057 107.937 273.057 107.855 273.057 107.746C273.301 106.957 273.601 106.549 273.519 107.039C273.546 106.522 273.546 106.032 273.519 105.515C273.655 105.27 273.764 105.243 273.71 105.515C273.818 104.155 273.546 102.821 273.655 101.216C273.71 100.971 273.737 100.753 273.818 100.509C274.063 100.264 274.172 99.5291 274.254 98.604C274.499 97.434 274.471 95.1213 274.58 93.6248C274.662 93.2983 274.743 93.0806 274.907 93.0806H274.852C274.934 92.7813 274.988 92.5093 275.043 92.2372L275.26 92.3732C275.26 92.3732 275.097 92.2372 275.043 92.2372C275.206 91.5297 275.315 90.8223 275.396 90.1149C275.641 88.4552 275.668 86.7682 275.859 85.0269C275.968 84.2378 276.104 83.4488 276.321 82.6597C276.321 82.6597 276.376 82.7413 276.403 82.8774L276.321 82.4693C276.321 82.4693 276.321 82.3604 276.348 82.306C276.348 82.306 276.403 82.3876 276.43 82.4965L275.832 79.5579L276.512 78.9866L278.824 76.9731C279.858 78.8233 280.946 80.8095 281.327 81.7618C279.695 79.5579 280.81 81.2449 281 81.789H281.245C282.17 83.1767 281.871 83.4216 282.334 84.129M250.368 172.884H250.15C249.987 172.448 249.796 172.013 249.633 171.55C249.307 170.734 249.007 169.918 248.708 169.102L248.382 168.176L248.164 167.523C247.865 166.653 247.566 165.782 247.294 164.911H246.831C246.749 164.667 246.668 164.449 246.586 164.258C246.314 163.578 246.069 162.898 245.824 162.218C245.716 161.701 245.77 161.538 245.661 161.129C244.682 158.708 243.702 156.286 242.723 153.865C242.587 153.457 242.424 153.076 242.288 152.668C239.622 143.607 234.507 133.866 231.215 123.554C231.161 123.173 230.834 122.194 230.345 120.806C230.209 120.453 230.073 120.099 229.937 119.691C229.855 119.5 229.801 119.337 229.719 119.146C229.801 119.065 230.1 118.793 231.134 117.922C232.548 116.698 233.936 115.501 235.187 114.412C237.69 112.236 239.594 110.494 240.03 110.059L237.663 111.202C237.989 110.902 238.316 110.63 238.615 110.358C239.894 109.27 241.2 108.181 242.478 107.12C243.213 106.494 243.947 105.896 244.682 105.297C246.042 104.209 247.321 103.175 248.681 102.005C251.891 99.393 255.047 96.8082 258.148 94.3322C258.992 93.788 260.379 92.6997 261.875 91.5025H261.903C261.903 91.5025 262.066 91.3665 262.147 91.2849C262.256 91.2032 262.365 91.0944 262.474 91.0128C262.556 90.9584 262.664 90.9039 262.8 90.8223L262.501 90.9856C264.814 89.1082 267.262 87.0947 268.323 86.4689C268.377 86.4145 268.432 86.3601 268.486 86.3329L267.072 100.073L264.541 113.052L264.324 114.793V115.011L261.358 138.791L275.804 147.607L277.029 148.015C278.797 149.321 280.756 150.545 282.796 151.742C285.108 153.239 287.611 154.681 290.087 156.15C291.202 156.885 292.291 157.619 293.297 158.409L293.488 158.218C294.113 158.626 294.739 159.034 295.365 159.442C295.392 159.47 295.446 159.524 295.474 159.579C295.637 159.687 295.8 159.769 295.963 159.878C296.48 160.232 296.97 160.585 297.46 160.966L297.596 160.857C298.276 161.265 298.956 161.674 299.609 162.082C299.636 162.136 299.69 162.191 299.745 162.218C304.859 165.292 310.001 168.394 315.116 171.469C316.041 172.04 316.966 172.584 317.89 173.128C316.966 173.101 315.986 173.02 315.279 172.856C315.007 172.693 314.816 172.639 314.653 172.611C314.871 172.611 313.728 172.584 313.157 172.53C312.504 172.503 311.96 172.448 311.661 172.339C306.301 172.992 300.615 172.965 295.229 172.911L295.446 172.856L292.916 172.965C292.916 172.965 292.807 172.856 292.889 172.829C290.033 173.292 285.544 172.829 282.034 172.639L282.225 172.584C276.24 172.584 270.363 172.611 264.541 172.72C261.631 172.775 258.747 172.802 255.863 172.856L251.537 172.911H250.64H250.449L250.368 172.884ZM119.076 47.6694C121.715 47.4246 123.239 45.6016 125.034 44.5404C125.034 44.5132 125.034 44.4588 125.116 44.3772L128.435 42.9895C126.83 44.6493 130.502 41.2754 129.006 42.7447C137.821 39.4796 148.703 33.8747 158.741 29.6845H158.224C160.754 28.5962 163.774 26.9365 165.815 26.3923C167.855 25.8481 169.759 23.9979 170.467 23.6442C172.18 22.5015 174.112 22.2566 173.894 22.447C175.989 21.3587 177.758 19.7534 180.913 18.7195C182.274 18.9099 189.075 14.2844 189.51 14.9647V14.883C193.727 13.6314 197.073 11.0466 201.562 9.60456C201.562 9.60456 201.507 9.68619 201.371 9.82223L203.766 7.89042C202.922 12.5431 202.052 17.223 201.208 21.9301C199.984 28.4329 198.705 34.963 197.345 41.5747C195.74 48.2136 194.434 55.3967 193.128 62.8246C192.475 66.5522 191.822 70.3342 191.17 74.1434C190.816 76.048 190.489 77.9526 190.136 79.8844L189.592 82.7686L189.347 84.0201L189.292 84.129L189.211 84.1834H189.184C189.184 84.1834 189.211 84.1834 189.048 84.3195L187.687 85.5166L184.967 87.911C182.192 89.7884 155.885 115.147 153.708 117.541L157.245 115.092C155.313 116.997 153.572 118.657 151.967 120.18C150.661 121.242 149.437 122.139 148.403 122.847L148.267 123.636C148.267 123.636 148.186 123.718 148.131 123.772C147.342 124.398 145.9 124.86 146.009 125.677L145.819 125.894C142.445 128.996 139.262 131.907 135.508 135.744C132.951 137.594 133.06 138.492 129.741 141.594C127.972 142.9 126.775 143.199 127.455 141.811C126.449 143.661 127.075 142.736 125.388 144.804C124.898 144.886 125.061 144.641 125.333 144.07C123.402 145.457 124.436 145.24 123.13 146.437C123.13 146.709 123.13 146.981 123.13 147.28C121.878 148.287 120.491 149.402 118.913 150.627L118.859 150.572C118.396 151.035 118.478 151.117 117.417 151.878L120.056 149.947C118.75 151.389 117.743 152.776 115.893 154.572C115.431 154.899 115.213 154.926 115.104 154.899L110.561 159.334L108.874 160.368C108.684 160.585 108.575 160.776 108.466 160.939C108.494 160.83 108.548 160.721 108.575 160.612C108.82 160.232 109.065 159.878 109.228 159.606L108.63 160.504C108.63 160.504 108.63 160.504 108.63 160.531C108.63 160.504 108.657 160.449 108.657 160.422L109.255 159.524C109.255 159.524 109.119 159.715 109.065 159.823C108.874 160.095 108.766 160.259 108.711 160.34V160.286C108.711 160.286 108.766 160.204 108.793 160.177C108.956 159.905 109.146 159.633 108.847 160.014C109.228 159.47 109.092 159.66 109.772 158.735C109.772 158.735 109.364 159.279 109.01 159.687C109.01 159.687 108.956 159.742 108.929 159.769C109.854 157.239 110.779 154.708 111.704 152.178C111.785 151.96 111.867 151.77 111.921 151.552H112.057C112.057 151.552 112.03 151.389 112.03 151.307C112.982 148.749 113.935 146.192 114.914 143.634C114.968 143.634 115.05 143.689 115.104 143.798C115.839 142.002 116.301 140.478 116.737 138.927C117.852 136.179 118.967 133.404 120.219 130.629C121.525 128.153 122.613 125.432 123.674 122.575C124.191 121.133 124.708 119.691 125.252 118.221C125.524 117.487 125.796 116.752 126.068 116.018C126.53 114.766 127.02 113.542 127.51 112.29L126.639 109.515L126.34 108.562L126.122 107.828C125.85 106.848 125.578 105.841 125.361 104.835C125.388 103.202 119.811 87.1491 119.104 85.7887V87.8566C118.695 86.7682 118.342 85.7887 118.043 84.8636C117.988 84.646 117.934 84.4283 117.906 84.2378L117.798 84.0746C116.655 80.4014 116.084 77.7622 114.451 73.953L114.669 74.1978C114.642 73.9802 114.506 73.8169 114.315 73.5448C114.071 72.6742 113.853 71.8035 113.717 70.9328C113.2 69.9261 112.982 69.4091 112.874 69.1642C112.901 69.3003 112.901 69.4907 112.874 69.654C112.683 68.7833 112.493 67.695 112.302 66.3618C112.302 66.2801 112.302 66.1713 112.248 66.0353C112.193 65.5727 112.139 65.1102 112.057 64.5932H112.112C112.003 64.2939 111.894 64.3211 111.867 63.6953L111.949 65.1918C111.622 64.3211 111.132 63.1511 110.888 62.1988C110.806 61.8723 110.752 61.573 110.752 61.3282L110.616 61.7907L109.772 59.4508L109.881 58.4713C109.555 57.9543 109.119 58.0631 108.793 57.4645C108.738 57.3013 108.657 57.138 108.602 56.9476C108.521 56.6755 108.466 56.349 108.412 55.9136C108.385 56.0497 108.33 56.1313 108.303 56.1585C108.167 55.7776 108.004 55.3695 107.895 54.9885C107.895 54.8253 107.895 54.662 107.868 54.4988C107.759 54.1451 107.705 54.1451 107.65 54.3083C107.623 54.2267 107.596 54.1451 107.569 54.0635C107.541 53.9274 107.487 53.7914 107.433 53.6553C107.351 53.3832 107.297 53.1384 107.269 52.9207C107.596 52.8119 107.949 52.703 108.276 52.5942L108.494 52.5126H108.602L108.929 52.3493C109.446 52.1316 109.935 51.914 110.452 51.6963C112.52 50.7712 114.696 49.7101 117.172 48.2408C116.22 49.3292 118.831 47.1525 119.212 47.6966M96.8226 166.789C96.7138 166.626 96.6322 166.462 96.5506 166.381C96.5506 166.381 96.7138 166.707 96.7954 166.898L96.4962 166.408C96.6866 166.789 96.6322 166.816 96.605 166.762C96.5506 166.707 96.4962 166.598 96.5506 166.925C96.4418 166.626 96.3873 166.435 96.3601 166.326C96.3601 166.326 96.4418 166.626 96.4962 167.034C96.4962 167.251 96.5506 167.469 96.5506 167.632V167.741C96.4146 167.932 96.3329 168.04 96.2785 168.04C96.2785 168.013 96.2785 167.986 96.2785 167.959C96.3329 167.768 96.4145 167.578 96.469 167.387C96.3601 167.687 96.3057 167.823 96.2785 167.932C96.2785 167.904 96.2785 167.877 96.2785 167.85C96.2785 167.877 96.2785 167.932 96.2785 167.959C96.2785 167.959 96.2785 168.013 96.2785 168.04C96.2785 168.04 96.2785 168.04 96.2785 167.986C96.2785 168.04 96.2513 168.095 96.2241 168.149C96.2241 168.068 96.2241 167.986 96.2241 167.904C96.2241 168.04 96.2241 168.149 96.2241 168.231C96.1425 167.959 96.0337 167.687 95.9249 167.415C95.9521 167.306 95.9793 167.224 95.9793 167.224C95.9793 167.224 95.9521 167.306 95.8977 167.387C95.8704 167.333 95.8432 167.251 95.816 167.197C95.7072 166.979 95.544 166.816 95.3535 166.653V166.598L95.2719 166.435C95.1359 166.217 95.0271 166.027 94.9183 165.837C94.7006 165.483 94.5646 165.265 94.5646 165.265L94.9183 164.966C94.1565 164.966 93.8573 162.871 93.2588 163.388C93.1771 162.463 91.2728 160.857 92.2794 160.776C90.8103 158.354 89.2596 157.511 87.7634 154.382C87.7361 152.94 85.723 150.246 84.5804 148.341C81.9959 144.859 80.2276 142.655 77.6431 139.063C77.099 136.261 73.7528 133.676 72.719 130.928L71.93 130.492C72.0389 130.139 71.9572 130.003 71.8212 129.785C71.8756 129.649 71.9028 129.459 72.0117 129.295C72.1477 129.05 72.2837 128.778 72.4197 128.533C72.6102 128.18 72.8278 127.853 73.0999 127.527C73.2087 126.847 73.2903 126.52 73.3447 126.384C73.2631 126.493 73.1271 126.629 72.855 126.574C73.3447 125.949 73.7528 124.452 74.1881 124.779V124.969C74.5961 125.296 74.8682 122.765 75.6571 122.167L74.9498 122.357L75.6299 121.078L75.5755 121.486C76.9902 115.256 79.7923 113.405 81.1797 107.556C81.4246 108.508 81.3702 106.358 81.9959 106.576C83.3833 105.569 82.9481 103.991 83.2473 102.794C83.2201 102.794 83.1929 102.74 83.1657 102.658L84.1179 100.753C84.3627 102.25 84.1179 99.0665 84.2811 100.427C87.1376 95.611 89.5045 88.7545 92.4154 83.0134L92.0889 83.1767C92.7963 81.7074 93.3676 79.7484 94.2109 78.7689C95.0271 77.7894 94.8094 76.0752 94.9727 75.6127C95.1903 74.2251 96.3601 73.4088 96.0881 73.9258C96.5778 72.5653 96.4417 70.9872 97.5572 69.3003C98.5093 68.9738 99.1622 63.9946 99.924 64.2667L99.8696 64.2123C100.577 63.26 100.985 62.1988 101.393 61.1105C101.502 61.4914 101.611 61.8995 101.692 62.2805H102.264C103.08 64.7564 102.726 64.702 102.835 65.3278C105.528 73.3816 108.222 81.5442 110.915 89.6251C112.248 93.652 113.608 97.6789 114.914 101.651C116.057 105.188 117.199 108.671 118.342 112.099C117.254 114.848 116.165 117.568 115.104 120.262C113.962 123.065 112.846 125.813 111.704 128.506C111.513 128.778 111.35 129.05 111.16 129.268L111.268 129.459C110.18 131.39 108.113 137.213 107.188 138.601C106.562 140.805 105.855 143.008 105.093 145.24C104.848 145.24 104.658 145.076 104.576 144.668C104.766 146.001 104.766 145.321 104.522 146.899C104.195 147.035 104.195 146.872 104.086 146.464C103.297 147.661 104.005 147.362 103.597 148.314C103.678 148.423 103.787 148.532 103.869 148.668L103.787 148.913C103.161 150.627 102.508 152.314 101.856 154.001C100.74 156.885 99.6247 159.742 98.5093 162.571L98.6181 162.136L96.877 166.87L96.8226 166.789ZM96.5234 167.578C96.5234 167.333 96.4962 167.034 96.4962 167.034L96.5778 167.442L96.5234 167.578ZM17.8465 172.149C17.8465 172.149 18.0913 171.904 18.2002 171.795C18.2546 171.741 18.309 171.686 18.3634 171.659H18.3906L18.6082 171.36L19.0435 170.816C23.2059 166.598 26.2528 160.395 30.7961 155.388C30.9593 155.307 31.2586 154.98 31.6122 154.545C31.8027 154.327 32.0203 154.055 32.2379 153.756L32.3468 153.701L32.7548 153.484C33.3261 153.184 33.8974 152.885 34.496 152.586C35.6658 151.96 36.8628 151.307 37.951 150.708C40.1274 149.511 41.8957 148.477 42.2494 148.205L40.5627 148.341C44.9427 145.784 47.3367 145.267 50.955 142.818L50.7918 143.063C51.4175 142.9 51.091 141.458 58.0827 139.852V139.907C58.3275 139.798 58.2731 139.662 58.7628 139.607L57.5114 139.798C58.0827 139.335 58.4908 138.764 59.3341 138.301C59.5518 138.274 59.6606 138.356 59.7422 138.437L61.7826 137.267H62.6259C63.17 136.778 62.4627 136.152 64.4215 135.717C63.4965 135.499 65.1016 134.955 64.7479 134.791C64.8567 134.791 65.02 134.791 65.2104 134.791C64.8839 135.036 64.6663 135.172 64.6663 135.172C64.8839 135.118 65.1288 135.118 65.3464 135.064C65.6185 135.472 65.8905 135.88 66.1626 136.288V136.914L72.2021 145.457C72.2293 145.512 72.2837 145.593 72.3381 145.648L76.1468 153.212L83.465 164.313C83.5466 164.476 83.601 164.639 83.6282 164.748C83.873 165.02 84.0907 165.32 84.3083 165.592L87.4913 170.408L88.2803 170.952L88.5523 171.333C88.5523 171.333 88.7155 171.578 88.7699 171.686C88.7699 171.686 88.7427 171.822 88.7155 171.877C88.7155 171.986 88.7155 172.04 88.7699 172.149C88.8788 172.312 89.1508 172.53 89.314 172.775C89.1508 172.775 88.7971 172.747 88.4435 172.503L88.9604 173.02C88.7427 173.047 88.4979 172.72 88.3891 172.639H88.1442C87.981 172.666 88.253 172.693 87.2465 172.693L82.9481 172.802C80.0643 172.856 77.2078 172.938 74.3785 172.992C68.7199 173.101 63.1972 173.101 58.0555 172.775C57.0489 172.421 54.0564 172.639 53.2674 172.258C49.9212 172.911 46.3845 172.884 43.0383 172.829L43.1744 172.775L41.5965 172.884C41.5965 172.884 41.5149 172.775 41.5693 172.747C39.8009 173.21 36.9988 172.747 34.8224 172.557L34.9584 172.503C30.4968 172.475 26.144 172.557 21.8184 172.693C20.8391 172.72 19.8597 172.747 18.8531 172.775L18.3362 172.856C17.9553 172.911 17.52 172.938 17.112 172.938C17.3024 172.666 17.52 172.394 17.7649 172.149M275.097 180.339L275.179 180.801C276.484 180.203 276.865 180.937 277.79 181.155L277.382 180.556L279.096 180.692C280.973 180.883 280.239 181.454 279.967 181.754L281.245 181.291L281.49 181.808C282.415 181.182 282.415 181.917 284.047 181.59C284.184 181.781 283.775 181.89 284.32 181.998L287.013 181.264L285.38 181.59L285.571 180.828C287.258 180.257 287.856 180.91 289.08 180.692L288.237 180.91C290.223 180.72 290.305 181.046 291.447 181.209C291.094 181.073 290.577 180.856 291.366 180.747C291.964 180.692 291.692 181.019 292.236 181.101C292.372 180.584 293.787 180.311 295.065 180.556C295.065 180.638 295.011 180.692 294.929 180.747C295.256 180.665 295.419 180.529 295.99 180.665L295.664 181.237L296.752 180.692C297.487 180.856 298.548 180.448 298.466 180.828L298.058 180.937L303.608 181.073L303.689 181.536C304.234 180.91 306.709 181.781 306.519 180.992C307.553 181.427 310.627 180.692 310.028 181.563C310.926 181.563 311.742 181.563 312.504 181.481C312.885 181.454 313.266 181.4 313.619 181.373L314.163 181.318H314.435L314.925 181.264C317.673 181.101 320.312 181.019 324.501 181.237C326.324 181.618 329.344 181.726 332.554 181.781C335.71 181.781 339.165 181.808 341.913 181.835C344.198 181.754 346.293 181.672 347.979 181.618C347.816 181.509 347.653 181.427 347.462 181.318C349.394 181.345 351.298 181.427 353.175 181.481C354.835 181.835 359.949 181.617 361.255 181.998C366.887 181.345 372.872 181.373 378.503 181.427L378.286 181.481L380.952 181.373C380.952 181.373 381.088 181.481 381.006 181.509C381.768 181.4 382.611 181.318 383.536 181.318C383.999 181.318 384.488 181.318 384.951 181.318C385.631 181.318 386.338 181.345 387.046 181.373C390.854 181.481 394.881 181.617 398.363 181.699L398.036 181.754C401.709 181.754 405.382 181.754 409 181.754C405.735 178.489 402.498 175.251 399.288 172.04C396.54 169.292 393.792 166.571 391.045 163.877C387.671 160.585 384.325 157.293 380.979 154.028C374.286 147.443 367.676 140.805 361.092 133.703C360.167 132.615 359.215 131.526 358.208 130.438C357.691 129.894 357.175 129.35 356.658 128.806C355.705 127.853 354.753 126.874 353.801 125.894C349.312 125.595 348.36 125.568 346.211 125.459C344.252 125.35 342.266 125.268 340.28 125.16C336.281 124.942 332.228 124.67 328.228 124.126C327.848 123.99 326.705 123.854 325.127 123.718C323.794 123.582 320.475 123.364 321.427 123.418C319.496 121.16 317.292 118.602 315.496 116.507C313.238 113.922 311.47 111.936 311.008 111.501L312.232 113.95C306.546 107.583 304.478 104.1 299.418 98.8216L299.772 99.0393C299.201 98.1142 297.704 98.5768 291.529 88.428L291.583 88.3735C291.311 88.0742 291.202 88.1559 290.822 87.4212L291.828 89.2442C290.93 88.4007 290.005 87.8022 288.944 86.5778C288.781 86.2785 288.808 86.088 288.863 86.0064L286.224 83.0134L285.761 81.8163C284.809 81.0272 284.483 82.0067 282.769 79.2042C283.014 80.2382 282.116 79.0954 281.681 78.7417C281.545 78.6328 281.463 78.5784 281.463 78.7145C281.463 78.6328 281.381 78.4696 281.327 78.3335C281.273 78.1975 281.218 78.0343 281.164 77.8982C280.756 77.4629 280.239 76.8915 279.695 76.2929L279.885 76.1297L278.606 74.3611L277.627 72.1844C275.859 70.2798 274.063 68.348 272.322 66.4434C270.581 64.5388 268.867 62.6342 267.153 60.7568L267.425 60.9744L264.487 57.9271C264.405 57.7638 264.433 57.7094 264.541 57.791C260.978 54.5804 256.244 48.7306 252.435 44.2684L252.707 44.486C245.797 36.8948 238.969 29.5213 232.195 22.2566C228.794 18.6106 225.421 14.9919 222.047 11.3731C221.884 11.2099 221.721 11.0194 221.558 10.8562C221.068 10.5841 220.605 10.2032 220.306 9.7134C219.708 8.7611 217.64 7.37346 215.491 6.04023C213.831 5.0063 212.145 3.99959 210.975 3.23774C210.512 2.93845 210.131 2.66636 209.887 2.4759C208.744 1.55081 206.513 0.598507 205.18 0.081543C205.044 0.870593 204.881 1.68685 204.745 2.4759L196.991 3.7275L176.751 13.3594L160.101 19.8894L120.545 38.0104L117.961 39.8333C117.716 39.915 117.444 39.9966 117.199 40.0782C116.519 41.0033 115.948 41.6835 115.567 41.8468C114.152 42.5542 110.616 43.2616 110.616 43.2616L106.916 44.6765L103.569 47.3157L101.447 49.6012C101.447 49.6012 99.1623 50.1182 98.9718 50.8528C98.8902 51.1521 98.6726 51.4242 98.4549 51.6419C98.5637 51.9684 98.6726 52.3221 98.7814 52.6486L96.0337 55.0974L91.028 67.3957L85.9134 76.701L75.6299 100.318L75.4395 102.25C72.3925 106.44 70.8418 112.861 67.9309 117.514L68.3662 117.84C67.7677 119.255 67.5228 119.038 67.278 119.337C65.6729 123.065 64.0406 126.792 62.4083 130.52C63.034 131.472 63.6597 132.424 64.2854 133.377C63.6053 133.458 62.9796 133.54 62.6259 133.54C64.1494 132.941 62.9796 133.268 62.5987 133.241V133.431C61.6466 133.73 61.4561 133.404 60.9936 133.54C60.9936 133.54 61.048 133.594 61.0752 133.621V133.54C61.0752 133.54 61.1841 133.621 61.1569 133.703C61.2113 133.758 61.1841 133.839 60.9392 133.948V133.894C60.64 134.138 59.987 134.383 59.6878 134.519L59.5246 134.247C59.1709 135.118 54.8181 135.635 53.9475 136.043C52.9137 136.125 52.0704 137.131 50.9006 137.485C49.1322 138.274 49.8396 137.485 48.833 137.703C47.6632 138.084 49.2139 137.92 48.8058 138.165L47.3095 138.437C48.044 138.029 47.5544 138.056 47.3639 138.029C46.2213 138.546 44.2081 138.927 44.1537 139.662C42.5214 140.152 42.3854 139.934 41.7325 140.233C42.0045 140.233 42.467 140.097 42.5486 140.233C41.8141 140.288 42.3038 140.451 42.5486 140.369C41.7597 141.077 37.2709 141.784 37.3797 142.492L37.3253 142.383C37.3525 142.954 37.9238 143.226 37.4069 143.825H36.8628L36.3187 144.369C35.8018 144.451 35.965 144.206 35.9378 144.151C34.9856 144.913 33.4078 145.403 32.1019 145.974L34.0879 146.546C32.8637 146.79 30.6329 147.199 30.6329 147.716L29.7623 147.607C29.4358 147.661 29.2454 147.661 28.9733 147.743C28.7013 147.824 28.4837 147.906 28.2932 147.988C27.9396 148.151 27.7491 148.314 27.6675 148.45C27.5587 148.886 27.7491 149.13 27.2594 149.566C27.2594 149.566 27.1778 149.62 27.0418 149.702C26.9874 149.756 26.9058 149.811 26.8241 149.865C26.7425 149.892 26.6881 149.947 26.6065 150.001C26.3073 150.164 26.0352 150.328 26.0352 150.328L26.8514 149.239C26.7153 149.375 26.5793 149.511 26.4433 149.647C26.3345 149.729 26.2528 149.811 26.144 149.892C25.9536 150.028 25.7904 150.164 25.6271 150.3C25.3007 150.545 24.9742 150.763 24.5661 151.062C24.5661 151.062 24.675 151.008 24.7022 151.035L24.6205 151.171C24.7566 151.443 24.5117 152.042 23.9948 152.722C23.2331 153.647 22.9882 154.654 21.4104 155.878L21.5464 156.586L20.431 157.565L20.0773 157.32C20.9207 156.205 22.3625 153.946 23.4235 152.45L23.2875 152.314C22.6618 153.184 22.0905 154.3 21.628 154.844C21.3559 155.089 20.4582 155.524 20.6214 154.844L20.567 155.633C18.4722 158.572 18.4722 158.599 15.8877 161.347L16.2414 161.211C15.9149 161.891 15.5613 162.571 15.1532 162.517C14.4459 163.415 13.7113 164.286 12.9768 165.047C12.5959 165.428 12.2423 165.782 11.8886 166.109C11.7254 166.272 11.5349 166.408 11.3717 166.544C11.3173 166.571 11.1269 166.762 11.018 166.87C10.882 167.006 10.746 167.115 10.61 167.251C10.61 167.251 10.61 167.442 10.6644 167.605C10.6644 167.768 10.7188 167.959 10.7188 167.959C10.2291 168.612 8.65121 169.482 9.1409 169.999L8.32475 171.496C7.59021 172.448 7.56301 172.965 6.39319 174.054C6.39319 174.054 6.25717 174.19 6.17555 174.271C6.17555 174.271 6.22996 174.271 6.25717 174.271C4.38002 176.448 6.93729 174.108 4.76089 176.584C3.61828 177.563 5.19617 177.074 4.21679 178.216L2.0948 179.931C1.5507 180.529 1.16983 180.964 0.924988 181.345C2.47567 181.345 4.16238 180.91 6.9645 180.91C8.35195 181.155 8.73282 181.781 6.71965 182.325C8.0527 181.998 8.35195 181.89 8.70562 181.835C9.05928 181.781 9.44015 181.754 10.746 181.59C10.882 181.862 10.5828 181.917 9.82102 182.162C11.7526 182.488 11.3717 181.917 12.9496 181.944C13.7385 181.427 14.6363 180.611 15.0988 180.584L14.6363 180.42C15.4253 180.284 16.187 180.175 16.9487 180.148C17.3296 180.148 17.7105 180.148 18.1185 180.148C18.4722 180.148 18.9891 180.203 19.1795 180.257V180.502L20.2405 180.366L20.3222 180.692L21.9 180.584L21.6824 180.502C22.0633 180.448 23.2603 180.339 23.9404 180.502V180.692C25.872 181.264 27.4771 180.529 29.7623 180.448L29.463 180.828C30.252 181.209 29.6807 180.257 30.6056 180.448L30.6601 180.91C31.4762 180.311 31.7211 181.046 32.2924 181.264L32.0203 180.665L33.0813 180.801C34.2511 180.992 33.7886 181.563 33.6254 181.862L34.4143 181.4L34.5776 181.917C35.1489 181.291 35.1489 182.026 36.1827 181.699C36.2643 181.89 36.0194 181.998 36.3459 182.107L38.0326 181.373L37.026 181.699L37.162 180.937C38.223 180.366 38.6039 181.019 39.3385 180.801L38.8216 181.019C40.0458 180.828 40.1274 181.155 40.8075 181.318C40.5899 181.182 40.2634 180.964 40.7531 180.856C41.1068 180.801 40.9435 181.128 41.2972 181.209C41.3788 180.692 42.2494 180.42 43.0655 180.665C43.0655 180.747 43.0383 180.801 42.9839 180.856C43.1744 180.774 43.2832 180.638 43.6368 180.774L43.4192 181.345L44.0993 180.801C44.5618 180.964 45.2147 180.556 45.1603 180.937L44.8883 181.046L48.3433 181.182L48.3977 181.645C48.7514 181.019 50.2749 181.89 50.166 181.101C50.819 181.536 52.7233 180.801 52.3424 181.672C54.6005 181.726 55.8247 180.883 58.5996 181.318C59.579 182.08 62.2723 181.835 64.0406 181.917C67.4956 181.59 69.7536 181.318 73.2631 181.073C75.3851 182.107 78.5681 180.72 80.8533 181.291L81.479 180.883C83.0025 181.536 85.3149 180.747 87.4641 181.373C87.6001 181.318 87.7089 181.291 87.8178 181.264C87.9266 181.237 87.981 181.209 88.1442 181.182C88.4163 181.155 88.5795 181.128 88.6883 181.128C88.5251 181.128 88.253 181.019 88.1714 180.774C89.2324 180.964 91.2728 180.72 91.3272 181.264L91.0552 181.318C91.0552 181.59 91.8985 181.509 92.8779 181.454C93.558 181.4 94.2654 181.373 94.9183 181.4L95.0815 181.645C95.1631 181.835 95.1631 181.971 95.0815 181.944C95.5984 182.543 97.9108 181.481 100.033 180.774C101.23 180.692 102.4 180.692 103.597 180.747C103.678 180.556 103.733 180.393 103.76 180.23L111.241 181.808L139.725 181.318L162.468 182.189L217.83 181.89L221.775 181.264C225.529 181.645 229.665 181.726 233.963 181.726C237.092 181.726 240.275 181.699 243.458 181.672C243.594 181.862 243.702 181.998 243.784 182.053C245.253 181.754 244.954 181.835 247.321 181.645C247.593 181.645 247.865 181.645 248.137 181.645C248.491 181.862 248.11 181.944 247.212 182.162C248.926 182.325 249.497 182.243 249.932 182.162C250.041 182.162 250.15 182.107 250.259 182.08C250.368 182.08 250.531 182.026 250.558 181.998C250.721 181.944 250.912 181.917 251.265 181.917C251.347 181.808 251.429 181.726 251.483 181.618C252.136 181.618 252.762 181.618 253.415 181.618L260.978 180.638L262.202 180.475C262.909 180.475 263.725 180.475 264.297 180.556V180.747C267.398 181.318 269.982 180.584 273.655 180.502L273.165 180.883C274.417 181.264 273.519 180.311 274.988 180.502" fill="#2E2D2A"/>
<path d="M288.808 85.9516L288.863 86.0058C289.025 85.8702 288.863 85.816 288.808 85.9516Z" fill="#2E2D2A"/>
<path d="M314.517 126.738L314.49 126.221L314.408 126.112L314.517 126.738Z" fill="#2E2D2A"/>
<path d="M32.0475 145.865L32.1291 145.838L31.6938 145.702L32.0475 145.865Z" fill="#2E2D2A"/>
<path d="M47.3639 137.893C47.636 137.785 47.8536 137.649 47.9896 137.485C47.2279 137.785 47.2279 137.866 47.3639 137.893Z" fill="#2E2D2A"/>
<path d="M62.5715 133.159V132.941C62.4083 133.105 62.4355 133.159 62.5715 133.159Z" fill="#2E2D2A"/>
<path d="M330.84 131.989C333.914 132.18 338.403 132.316 340.797 132.506V132.071L338.403 131.581L337.56 132.071C334.349 131.309 332.744 131.581 330.731 131.363C329.317 131.255 328.228 131.363 327.983 131.608L330.976 131.663L330.867 131.989H330.84Z" fill="#2E2D2A"/>
<path d="M327.684 131.608C327.684 131.608 327.766 131.662 327.875 131.69C327.875 131.662 327.929 131.635 327.956 131.608H327.684Z" fill="#2E2D2A"/>
<path d="M107.405 54.009C107.405 54.009 107.46 54.1722 107.487 54.2539C107.541 54.0906 107.596 54.0906 107.705 54.4443C107.705 54.6076 107.732 54.7708 107.732 54.9341C107.868 55.315 108.004 55.6959 108.14 56.0768C108.167 56.0496 108.222 55.968 108.249 55.832C108.303 56.2673 108.358 56.621 108.439 56.8659C108.494 57.0291 108.575 57.1924 108.63 57.3828C108.956 57.9814 109.391 57.8726 109.718 58.3896L109.609 59.3691L110.452 61.709L110.588 61.2465C110.588 61.4914 110.643 61.7906 110.724 62.1172C110.969 63.0422 111.459 64.2122 111.785 65.1101L111.704 63.6136C111.704 64.2394 111.84 64.2122 111.949 64.4843H111.894C111.949 65.0285 112.003 65.491 112.057 65.9536C112.085 66.0896 112.112 66.1984 112.112 66.2801C112.302 67.6133 112.493 68.6744 112.683 69.5723C112.738 69.4091 112.738 69.2186 112.683 69.0826C112.683 68.9737 112.629 68.9193 112.629 68.8921C112.629 68.8921 112.656 68.9737 112.683 69.0826C112.765 69.3274 113.01 69.8444 113.527 70.8511C113.663 71.7218 113.88 72.5925 114.125 73.4632C114.315 73.7352 114.451 73.8985 114.479 74.1162L114.261 73.8713C115.893 77.6805 116.465 80.3469 117.607 83.9929L117.716 84.1561C117.743 84.3738 117.798 84.5643 117.852 84.7819C118.151 85.707 118.505 86.6865 118.913 87.7749V85.707C119.62 87.0675 125.197 103.121 125.17 104.753C125.388 105.76 125.66 106.739 125.932 107.746L126.15 108.481L126.449 109.433L127.319 112.208C126.83 113.46 126.367 114.711 125.878 115.936C125.606 116.67 125.333 117.405 125.061 118.14C124.545 119.609 124 121.051 123.484 122.493C122.423 125.35 121.334 128.071 120.028 130.547C118.804 133.322 117.662 136.07 116.573 138.845C116.111 140.369 115.676 141.893 114.941 143.716C114.887 143.58 114.805 143.525 114.751 143.553C113.771 146.11 112.819 148.668 111.867 151.225C111.867 151.334 111.867 151.416 111.894 151.497H111.758C111.677 151.688 111.595 151.906 111.541 152.096C110.616 154.626 109.691 157.157 108.766 159.687C108.766 159.66 108.82 159.633 108.847 159.606C109.201 159.198 109.609 158.653 109.609 158.653C108.956 159.578 109.065 159.388 108.684 159.932C109.01 159.551 108.793 159.823 108.63 160.095C108.63 160.095 108.602 160.15 108.575 160.204V160.259C108.575 160.259 108.738 160.014 108.929 159.742C108.983 159.66 109.065 159.551 109.119 159.442L108.521 160.34C108.521 160.34 108.521 160.422 108.494 160.449C108.494 160.449 108.494 160.449 108.494 160.422L109.092 159.524C108.929 159.796 108.684 160.15 108.439 160.531L108.33 160.857C108.439 160.694 108.548 160.504 108.738 160.286L110.425 159.252L114.968 154.817C114.805 154.763 114.914 154.572 115.077 154.708L114.968 154.817C114.968 154.817 115.295 154.817 115.757 154.49C117.607 152.695 118.641 151.307 119.92 149.865L117.308 151.797C118.369 151.035 118.287 150.953 118.75 150.491L118.804 150.545C120.382 149.321 121.77 148.205 123.021 147.199C123.021 146.899 123.021 146.627 123.021 146.355C122.967 146.382 122.967 146.409 122.912 146.464L123.075 145.947C123.075 145.947 123.048 146.192 123.048 146.355C124.354 145.158 123.32 145.348 125.252 143.988C124.98 144.559 124.817 144.804 125.306 144.723C127.02 142.682 126.394 143.58 127.374 141.73C126.694 143.117 127.891 142.845 129.659 141.512C132.978 138.383 132.869 137.485 135.427 135.662C139.208 131.826 142.364 128.914 145.737 125.813L145.928 125.595C145.819 124.806 147.261 124.316 148.05 123.69C148.104 123.636 148.131 123.609 148.186 123.554L148.322 122.738C149.355 122.058 150.58 121.133 151.886 120.099C153.518 118.575 155.259 116.888 157.163 115.011L153.654 117.459C155.83 115.065 182.138 89.7339 184.912 87.8293L187.633 85.4349L188.993 84.2378C189.156 84.1017 189.102 84.1561 189.129 84.1289H189.156L189.238 84.0745L189.292 83.9657L189.537 82.7141L190.081 79.83C190.435 77.8982 190.762 75.9935 191.115 74.0889C191.768 70.2797 192.448 66.4977 193.074 62.7702C194.38 55.315 195.686 48.1319 197.264 41.5202C198.624 34.9085 199.902 28.3785 201.127 21.8756C201.997 17.1685 202.841 12.5158 203.684 7.83594L201.29 9.76775L201.48 9.55008C196.991 10.9921 193.645 13.577 189.456 14.8286V14.9102C189.048 14.2028 182.246 18.8282 180.886 18.665C177.758 19.7261 175.962 21.3042 173.867 22.3926C174.085 22.1749 172.153 22.447 170.439 23.5897C169.705 23.9434 167.828 25.7936 165.787 26.3378C163.747 26.882 160.727 28.5145 158.197 29.6028H158.714C148.703 33.793 137.793 39.3979 128.979 42.663C130.475 41.1937 126.803 44.5676 128.408 42.9079L125.089 44.2955C125.089 44.2955 125.007 44.4315 125.007 44.4588C125.524 44.1322 126.095 43.9146 126.694 43.8057C126.721 43.8057 126.775 43.7513 126.775 43.7513H126.939C126.939 43.7513 126.748 43.7785 126.667 43.8057C126.503 43.9146 126.095 44.1322 126.204 44.1595C126.286 44.1595 126.34 44.1322 126.394 44.1322C126.34 44.1322 126.286 44.1322 126.204 44.1595C125.796 44.2683 125.034 44.5948 124.98 44.486C123.184 45.5199 121.661 47.3429 119.022 47.615C118.641 47.0436 116.029 49.2475 116.982 48.1591C114.506 49.6284 112.329 50.7167 110.262 51.6146C109.745 51.8323 109.228 52.05 108.738 52.2676L108.412 52.4037H108.303L108.086 52.5125C107.759 52.6213 107.433 52.7302 107.079 52.839C107.133 53.0567 107.188 53.3016 107.242 53.5736C107.269 53.7097 107.324 53.8457 107.378 53.9818" fill="#84AEB6"/>
<path d="M272.322 135.88C272.812 136.206 273.247 136.506 273.71 136.805C273.954 136.859 274.063 136.886 273.846 136.886C274.145 137.077 274.417 137.295 274.716 137.485L274.662 137.349C274.662 137.349 274.743 137.458 274.798 137.512C274.934 137.567 275.26 137.73 275.233 137.621C275.233 137.621 275.206 137.567 275.151 137.512C275.206 137.567 275.233 137.594 275.233 137.621C275.478 137.839 275.995 138.193 275.913 138.301C277.355 138.927 279.287 138.9 280.456 140.641C280.456 140.641 280.456 140.668 280.456 140.696C281.626 141.049 282.878 141.43 283.748 142.655C283.748 142.682 283.748 142.709 283.748 142.736C285.489 143.607 286.931 144.532 288.319 145.457C290.794 146.818 292.699 148.232 294.793 149.647C295.854 150.219 296.997 150.79 298.33 151.361L297.84 151.198L299.364 152.259L299.146 151.47C299.826 152.423 302.901 153.402 302.492 153.783L302.248 153.701C302.248 153.701 302.193 153.783 302.193 153.837C302.302 153.865 302.384 153.919 302.465 153.974L302.193 153.865C302.193 153.865 302.22 153.946 302.248 153.974L303.581 154.899L303.336 154.082C304.07 155.089 307.253 156.15 306.845 156.504L306.6 156.422C306.6 156.422 306.6 156.449 306.6 156.477C307.281 156.994 307.988 157.456 308.695 157.864C308.695 157.864 308.668 157.837 308.641 157.837C308.831 157.919 309.239 158.136 310.083 158.436C311.307 159.524 312.722 160.395 314.082 161.211L314.517 161.293C315.224 161.891 316.068 162.463 316.966 162.98C317.428 163.252 317.89 163.497 318.38 163.741L319.088 164.122L319.278 164.231L319.604 164.422L320.257 164.775C322.352 165.973 324.529 167.224 326.297 168.421C327.82 169.265 329.208 170.163 330.187 171.224C331.031 171.714 331.847 172.176 332.636 172.639C333.425 173.074 333.289 172.965 333.479 173.02L333.751 172.938C334.159 172.938 334.594 172.883 335.002 172.856C335.873 172.802 336.716 172.747 337.587 172.72C339.328 172.611 341.096 172.53 343.137 172.394C346.129 172.475 350.673 172.23 352.332 172.992C356.984 173.428 359.052 172.584 362.888 172.639C362.235 173.537 365.472 172.802 366.56 173.21C366.37 172.421 368.954 173.292 369.553 172.666L369.634 173.128L375.456 173.264L375.021 173.373C374.912 173.754 376.055 173.346 376.817 173.509L377.959 172.965L377.605 173.537C378.204 173.673 378.394 173.537 378.721 173.455C378.83 173.455 378.911 173.4 379.047 173.4C378.911 173.4 378.803 173.428 378.721 173.455C378.639 173.509 378.612 173.564 378.585 173.645C379.945 173.89 381.414 173.618 381.577 173.101C382.149 173.183 381.877 173.509 382.502 173.455C383.346 173.346 382.774 173.128 382.421 172.992C383.591 173.156 383.727 173.482 385.74 173.292C385.794 173.292 385.549 173.346 385.332 173.4C385.114 173.455 384.896 173.509 384.896 173.509C385.196 173.455 385.522 173.455 385.74 173.482C385.821 173.482 385.903 173.564 385.985 173.591C386.148 173.645 386.42 173.673 386.529 173.373L386.338 172.992C386.229 172.802 386.121 172.611 386.121 172.611C386.148 172.611 386.012 172.938 385.985 172.938C385.985 172.938 386.066 172.747 386.066 172.557C386.066 172.367 385.93 172.176 385.93 172.176C386.039 172.258 386.121 172.367 386.284 172.584C386.229 172.421 386.338 172.503 386.474 172.584C386.583 172.639 386.665 172.666 386.284 172.367L387.073 172.883C387.073 172.883 386.529 172.421 386.502 172.421C387.073 172.72 387.671 173.292 388.624 173.482L389.44 173.618L387.998 173.02C388.46 173.183 388.95 173.346 389.358 173.482C389.63 173.564 389.603 173.455 388.787 173.074L389.766 173.4C389.739 173.101 388.079 172.747 388.542 172.693L389.385 173.02C388.814 172.503 388.079 172.04 387.617 171.741C387.372 171.577 387.182 171.469 387.046 171.305C386.964 171.224 386.91 171.142 386.855 171.033L386.801 170.952V170.897L386.692 170.788C386.583 170.625 386.447 170.462 386.338 170.299L386.502 170.19C385.794 169.238 384.271 167.877 383.808 167.469L383.999 167.795L382.067 166L382.23 165.673L380.843 164.449L381.061 164.313C380 162.898 378.775 161.81 377.524 160.939L377.796 161.429C377.442 161.129 376.544 161.374 375.892 161.429C375.919 161.456 375.946 161.483 375.973 161.51L375.538 161.429C375.538 161.429 375.756 161.429 375.892 161.429C374.912 160.422 375.021 161.32 373.906 159.769C374.395 159.932 374.613 160.041 374.558 159.633C372.845 158.354 373.606 158.817 372.028 158.136C373.225 158.572 373.062 157.538 372.028 156.123C369.471 153.538 368.655 153.729 367.159 151.661L366.696 150.164C365.798 149.103 365.037 149.729 364.629 148.831C362.833 146.6 364.112 148.858 362.534 146.926V146.954C362.534 146.981 362.561 147.008 362.588 147.063C362.425 147.035 362.479 147.008 362.534 146.954C362.479 146.872 362.452 146.818 362.398 146.736C361.718 145.648 361.038 145.376 360.303 144.559L358.943 143.498C358.181 143.716 357.855 142.328 357.311 141.73H356.576C355.896 140.641 354.916 139.335 353.747 137.975C353.175 137.295 352.55 136.587 351.924 135.907C351.597 135.553 351.271 135.2 350.972 134.846L350.482 134.329L350.319 134.138C350.319 134.138 350.264 134.247 350.21 134.302L350.319 134.111C350.4 133.948 350.319 133.785 350.156 133.649C349.992 133.649 349.802 133.703 349.612 133.73L349.72 133.948L349.584 133.894H349.503L349.231 133.839C348.877 133.785 348.551 133.73 348.251 133.703C347.626 133.621 347.081 133.54 346.592 133.485C345.612 133.349 344.823 133.268 344.035 133.186C342.484 133.023 340.96 132.941 337.913 132.778L337.016 133.05C337.56 132.805 336.335 132.37 335.819 132.261C334.622 132.152 332.554 132.179 330.731 132.071L330.813 131.88C329.371 131.798 328.256 131.69 327.848 131.581C326.242 131.145 325.453 130.928 323.44 130.52L325.453 130.656L323.44 130.003C322.651 129.812 322.515 130.057 322.107 130.22C321.89 130.302 321.618 130.356 321.128 130.302C320.937 130.302 320.475 130.22 320.012 130.139C319.523 130.057 318.979 129.948 318.353 129.785L318.108 129.676L317.51 128.37C317.346 128.37 317.074 128.098 316.748 127.69C316.666 127.581 316.585 127.472 316.476 127.336C316.394 127.227 316.34 127.146 316.258 127.01C316.122 126.792 315.932 126.547 315.768 126.275C315.116 125.241 314.381 123.99 313.864 123.092L314.408 125.949L314.49 126.057V126.574L314.408 125.949C312.912 124.044 311.361 121.731 309.919 120.371C309.974 120.344 310.327 120.561 309.919 119.827L308.967 119.038L308.641 118.276C307.634 117.514 307.661 118.357 307.008 118.385L307.117 118.303C306.356 118.466 302.792 111.963 301.459 110.793C301.704 111.202 301.812 111.882 301.295 110.793C301.187 110.875 301.649 111.582 301.812 111.963C301.051 111.011 301.241 110.848 299.663 108.453C298.765 108.372 297.079 105.433 295.773 103.774C295.827 103.991 295.746 103.964 294.929 102.876C295.174 103.066 295.474 103.393 295.773 103.774C295.691 103.502 295.365 102.794 296.29 103.855L295.065 101.706C294.521 101.107 295.664 103.338 294.494 101.651C293.651 100.236 294.984 101.243 292.971 98.6856C291.828 96.9986 290.141 95.7743 289.407 94.2506C288.373 92.999 285.136 86.6866 283.884 86.1424L284.129 85.9247C283.83 85.5166 283.122 84.5643 282.633 84.0745L282.252 83.9113C282.252 83.9113 282.225 83.9929 282.198 84.0201C281.762 83.3127 282.062 83.0678 281.109 81.7346H280.892C280.946 81.8706 280.892 81.9251 280.62 81.6258L280.892 81.6802C280.701 81.136 279.613 79.4491 281.218 81.653C280.837 80.7007 279.749 78.7144 278.715 76.8643L276.403 78.8777L275.723 79.4491L276.321 82.3876L276.24 82.1971C276.24 82.2516 276.24 82.306 276.212 82.3604L276.294 82.7685L276.212 82.5509C275.995 83.3671 275.859 84.1562 275.75 84.918C275.56 86.6594 275.532 88.3463 275.287 90.006C275.206 90.7135 275.097 91.4209 274.934 92.1283C274.988 92.1283 275.07 92.1555 275.151 92.2643L274.934 92.1283C274.879 92.4004 274.825 92.6725 274.743 92.9446H274.798L275.043 93.135L274.798 92.999C274.662 92.999 274.553 93.1894 274.471 93.5431C274.362 95.0396 274.417 97.3251 274.145 98.5223C274.063 99.4474 273.954 100.182 273.71 100.427C273.655 100.672 273.601 100.917 273.574 101.134C273.465 102.74 273.71 104.073 273.628 105.433C273.682 105.161 273.574 105.188 273.438 105.433C273.438 105.95 273.438 106.467 273.438 106.957C273.519 106.494 273.193 106.875 272.975 107.664C272.975 107.746 272.975 107.828 272.975 107.937C272.921 108.562 273.574 110.549 273.029 112.072V112.127C273.029 112.725 273.029 113.351 272.812 113.922C272.649 114.385 272.54 114.929 272.431 115.501C272.322 116.453 272.24 117.405 272.104 118.276L272.377 117.949C272.24 118.684 272.132 119.446 272.023 120.208L272.104 120.126C271.887 121.459 271.696 122.792 271.506 124.153C271.37 125.214 271.234 126.275 271.098 127.363C270.907 128.942 270.717 130.52 270.527 132.098C270.472 132.642 270.391 133.186 270.336 133.73C270.336 133.812 270.336 133.894 270.309 133.975C270.309 134.138 270.282 134.274 270.255 134.438C270.472 134.574 270.69 134.71 270.88 134.846C271.397 135.172 271.887 135.499 272.377 135.825" fill="#84AEB6"/>
<path d="M282.742 84.2921C282.47 83.9384 282.388 83.9112 282.334 83.9928C282.415 84.0473 282.524 84.1289 282.66 84.2649H282.742V84.2921Z" fill="#2E2D2A"/>
<path d="M275.885 138.356C275.831 138.356 275.804 138.302 275.75 138.274C275.777 138.274 275.831 138.329 275.858 138.356" fill="#2E2D2A"/>
<path d="M274.879 137.621C274.879 137.621 274.825 137.566 274.798 137.539C274.798 137.539 274.743 137.539 274.743 137.512C274.798 137.539 274.852 137.594 274.879 137.621Z" fill="#2E2D2A"/>
<path d="M201.861 67.4229C201.807 68.1575 201.371 70.9872 200.746 74.7148C200.419 76.5649 200.066 78.66 199.712 80.8367C199.222 83.5304 198.733 86.3329 198.27 89.0265C196.638 90.5502 195.06 92.0467 193.591 93.4343C192.503 94.441 191.469 95.3933 190.571 96.2368C188.776 97.8693 187.442 99.0393 186.953 99.3386C176.125 108.562 166.467 119.282 156.864 127.146C148.431 134.683 140.405 142.219 132.488 149.811C124.599 157.347 120.763 161.211 106.344 174.897L109.446 174.271C109.255 174.326 109.119 174.38 109.119 174.38C115.077 174.897 120.301 173.917 125.85 174.489L125.905 174.407C125.905 174.407 125.905 174.271 126.095 174.135L125.905 174.407C126.041 175.223 136.351 173.781 137.821 174.516C142.01 174.843 144.894 174.135 147.914 173.972C147.56 174.081 149.927 174.625 152.511 174.298C153.545 174.271 156.701 173.346 159.34 173.7C162.006 174.053 166.359 173.781 169.841 173.836L169.242 173.618C183.062 173.917 198.624 173.264 210.54 173.89C208.037 174.625 214.049 173.047 211.328 173.89L215.899 173.972C216.062 173.917 216.089 173.89 216.089 173.836C215.328 173.89 214.539 173.89 213.777 173.754C213.723 173.754 213.641 173.754 213.641 173.754L213.45 173.673C213.45 173.673 213.668 173.727 213.777 173.727C214.022 173.727 214.62 173.673 214.511 173.591C214.511 173.591 214.43 173.564 214.267 173.536C214.403 173.536 214.484 173.564 214.511 173.591C215.028 173.673 216.089 173.673 216.089 173.809C218.701 173.591 221.422 172.557 224.632 173.4C224.795 174.081 228.985 173.128 227.298 173.754C231.324 173.373 234.698 173.319 237.853 173.346C238.261 173.346 238.642 173.346 239.023 173.346H239.594L239.785 173.373L240.465 173.428C240.791 173.455 241.118 173.482 241.472 173.509C241.444 173.455 241.417 173.4 241.39 173.373C240.955 172.639 240.628 172.013 240.383 170.843L240.465 170.135C240.465 170.135 240.465 170.081 240.438 170.054C240.111 169.374 239.785 168.666 239.431 167.959C239.377 167.877 239.322 167.768 239.295 167.659C239.159 167.415 239.05 167.142 238.914 166.898L239.268 167.551C239.268 167.551 239.268 167.523 239.268 167.496L238.751 166.081C238.588 165.945 238.533 166.326 238.18 165.211L238.098 165.864C237.935 164.585 236.629 162.027 236.031 160.558C235.487 160.259 235.704 159.116 235.459 158.463L234.806 158.164C234.67 157.239 234.398 156.123 234.072 154.926C233.909 154.626 233.745 154.3 233.528 153.919C232.031 148.341 228.984 142.845 228.087 138.791L227.08 137.376C226.264 134.519 224.795 131.309 223.38 128.125C222.673 126.52 221.966 124.942 221.367 123.391C221.204 122.928 221.041 122.493 220.877 122.058C220.633 121.378 220.388 120.697 220.143 120.044C219.68 118.711 219.245 117.46 218.919 116.317C219.272 116.072 219.599 115.827 219.925 115.609C221.422 114.303 222.836 113.079 224.224 111.882C225.04 111.147 225.829 110.467 226.59 109.787C228.114 108.426 229.556 107.12 230.998 105.841C233.854 103.257 236.711 100.699 240.166 97.57C243.866 94.5771 249.252 89.7339 251.755 88.6184C257.713 84.1834 259.699 81.4081 264.405 77.5445C264.297 78.2247 265.113 77.5717 266.147 76.6738C266.663 76.2384 267.262 75.7215 267.806 75.2589C267.996 75.1229 268.078 75.0957 268.269 75.0685C267.697 74.7692 268.296 74.7148 268.486 74.4971C268.405 74.4155 268.241 74.3611 268.024 74.3611L268.595 74.3066C268.595 74.3066 268.513 74.1978 268.405 74.0618C268.35 73.9801 268.269 73.8985 268.187 73.7897L268.051 73.6264C267.888 73.4632 267.752 73.2727 267.588 73.1095L264.514 69.654L265.058 70.0893C265.439 69.9533 263.943 68.9193 263.236 67.8854L261.603 66.9059H262.392C261.848 66.1441 261.549 66.0352 261.114 65.6815C261.005 65.6271 260.896 65.5183 260.706 65.3278C260.869 65.491 260.978 65.5999 261.114 65.6815C261.25 65.7631 261.331 65.7359 261.386 65.6815C260.107 63.9402 258.312 62.362 257.795 62.5525C257.223 61.8179 257.767 61.9267 257.06 61.2465C256.081 60.3214 256.516 61.1105 256.815 61.6546C255.673 60.1582 255.809 59.8044 253.442 57.4917L254.557 58.3624C253.034 57.002 252.843 55.832 250.504 54.1178L249.715 54.3899L251.782 56.1857L248.191 53.356C247.62 52.6214 248.191 53.0567 248.191 52.7574C246.096 50.9616 246.613 50.4719 245.117 49.7373L245.226 49.0842L243.43 47.8326C243.974 47.9687 245.199 48.4857 243.24 46.0369L241.417 43.8602V44.7853C240.601 43.5065 240.71 42.5542 238.778 41.3298L239.023 40.9217C237.472 38.9626 237.799 40.704 236.656 38.9082L237.472 39.2619C233.283 34.7725 229.801 32.0788 226.699 27.8071L226.89 27.7255C225.774 26.229 223.489 23.9163 222.782 23.2088L223.108 23.6986L220.197 20.6512L220.306 20.2975L218.211 18.2025L218.483 18.0936C217.64 16.9781 216.769 15.9713 215.844 15.0462C215.382 14.5837 214.947 14.1212 214.484 13.713L213.804 13.0872C213.804 13.0872 213.532 12.8423 213.505 12.8423L213.369 12.7607C213.369 12.7607 213.369 12.8424 213.423 12.9512C213.423 12.9512 213.505 13.0872 213.532 13.1416C213.586 13.2233 213.614 13.2505 213.614 13.2505C213.559 13.1961 213.478 13.1416 213.396 13.0872C213.314 13.0328 213.287 13.0872 213.233 13.0872C213.124 13.0872 213.015 13.1689 212.906 13.2233C212.662 13.3593 212.444 13.6042 212.308 13.8219C212.308 13.8219 212.253 13.9035 212.226 13.9579C212.199 14.0123 212.172 14.0395 212.172 14.0395C212.172 14.0395 212.199 13.9851 212.226 13.9579C212.253 13.9035 212.281 13.8763 212.308 13.8219C212.172 13.6314 212.117 14.4205 212.09 13.9307C212.09 13.577 212.172 13.5498 212.117 13.1144C211.954 13.1689 211.954 13.1961 211.927 13.2777C211.927 13.3865 211.927 13.5226 212.09 14.1756C211.873 13.3593 211.791 12.6519 211.383 11.754C211.301 11.618 211.192 11.5908 211.111 11.6724C210.948 12.4886 211.029 13.1416 211.111 13.4954C211.138 13.6858 211.165 13.8219 211.138 13.9851C211.138 14.0939 211.111 14.1756 211.084 14.2844C211.056 14.4749 211.002 14.6653 210.948 14.8558C210.839 15.2639 210.73 15.6993 210.594 16.189L210.05 17.1957C210.023 18.2297 210.403 18.3657 210.376 19.3452L209.696 20.7601L208.907 25.6848C209.07 25.6576 209.098 25.8209 208.907 25.7937V25.6848H208.88C208.826 25.9297 208.771 26.1746 208.69 26.5283H208.744C208.744 26.5283 208.771 26.3922 208.798 26.3378C208.853 26.5555 208.798 26.5283 208.744 26.5283C208.69 26.6371 208.662 26.7732 208.608 26.882C208.499 27.2357 208.39 27.5622 208.309 27.8887C208.2 29.0587 208.2 30.0654 208.118 31.1265L208.962 28.705C208.608 29.6845 208.744 29.6845 208.662 30.2015H208.608C208.173 31.6163 207.765 32.9223 207.438 34.1195V34.3644C207.982 35.099 206.894 36.8676 206.649 38.1192L206.976 39.0715C206.404 40.8128 205.806 43.0439 205.207 45.5199C205.207 46.0097 205.207 46.309 205.126 46.6355L205.071 46.1185C203.929 55.2062 202.378 59.9949 200.746 70.5518L201.97 67.3956L201.861 67.4229Z" fill="#84AEB6"/>
<path d="M281.653 78.6874L281.3 78.2793C281.354 78.4425 281.409 78.5786 281.436 78.6602C281.436 78.5514 281.517 78.5786 281.653 78.6874Z" fill="#2E2D2A"/>
<path d="M88.8787 172.149C88.8787 172.149 88.7971 171.986 88.8243 171.877C88.8243 171.823 88.8243 171.768 88.8787 171.687C88.7971 171.578 88.7155 171.442 88.6611 171.333L88.3891 170.952L87.6001 170.408L84.4171 165.592C84.1723 165.32 83.9546 165.02 83.737 164.748C83.737 164.64 83.6554 164.476 83.5738 164.313L76.2556 153.212L72.4469 145.648C72.4469 145.648 72.3653 145.512 72.3109 145.457L66.2986 136.941V136.315C65.9993 135.907 65.7273 135.499 65.4552 135.091C65.2376 135.145 64.9927 135.145 64.7751 135.2C64.7751 135.2 64.9928 135.064 65.3192 134.873H65.292C65.1288 134.819 64.9383 134.819 64.8567 134.819C65.2104 134.982 63.6053 135.526 64.5303 135.744C62.5987 136.179 63.2788 136.832 62.7347 137.349H61.8914L59.851 138.492C59.9326 138.601 59.9054 138.71 59.7966 138.492H59.851C59.851 138.492 59.6606 138.302 59.4429 138.329C58.5996 138.819 58.1915 139.363 57.6202 139.852L58.8716 139.662C58.3547 139.716 58.4363 139.852 58.2187 139.961V139.907C51.1998 141.512 51.5263 142.954 50.9006 143.117L51.0638 142.873C47.4455 145.321 45.0515 145.811 40.6987 148.396L42.3854 148.26C42.0317 148.532 40.2634 149.566 38.087 150.763C36.9988 151.362 35.8018 152.015 34.632 152.64C34.0335 152.94 33.4622 153.239 32.9181 153.538L32.51 153.756L32.4012 153.81C32.1563 154.083 31.9387 154.355 31.7754 154.6C31.3946 155.062 31.0953 155.361 30.9593 155.443C26.4161 160.449 23.3691 166.653 19.2067 170.87L18.7715 171.414L18.5538 171.687H18.5266C18.5266 171.687 18.4178 171.795 18.3362 171.85C18.2274 171.959 18.0913 172.067 17.9825 172.204C17.7377 172.448 17.52 172.748 17.3296 172.993C17.7377 172.993 18.1729 172.965 18.5538 172.911L19.0707 172.829C20.0501 172.829 21.0295 172.775 22.0361 172.748C26.3617 172.639 30.7145 172.53 35.1761 172.557L35.04 172.612C37.2164 172.802 40.0186 173.265 41.7869 172.802C41.7325 172.829 41.7597 172.911 41.7869 172.938L43.3648 172.829L43.2288 172.884C46.575 172.938 50.1116 172.965 53.4578 172.312C54.2468 172.693 57.2665 172.476 58.2459 172.829C63.3877 173.156 68.9103 173.156 74.5689 173.047C77.3982 172.993 80.2548 172.911 83.1385 172.857L87.4369 172.748C88.4435 172.748 88.1714 172.748 88.3347 172.72H88.5795C88.5795 172.72 88.906 173.101 89.1508 173.074L88.6339 172.557C88.9876 172.802 89.3412 172.829 89.5045 172.829C89.3412 172.612 89.0692 172.367 88.9604 172.204" fill="#84AEB6"/>
<path d="M96.5234 167.578L96.5778 167.442L96.4962 167.034C96.4962 167.034 96.4962 167.333 96.5234 167.578Z" fill="#2E2D2A"/>
<path d="M99.788 64.1577L99.8424 64.2122C99.0806 63.9401 98.4277 68.8921 97.4755 69.2186C96.3601 70.9055 96.4962 72.4836 96.0065 73.844C96.2785 73.3271 95.0815 74.1433 94.8911 75.531C94.7278 75.9935 94.9455 77.6804 94.1293 78.6872C93.3132 79.6667 92.7147 81.6257 92.0073 83.095L92.3338 82.9317C89.4228 88.6727 87.056 95.5565 84.1995 100.345C84.0091 98.9848 84.2811 102.168 84.0363 100.672L83.0841 102.576C83.0841 102.576 83.1385 102.685 83.1657 102.712C83.2473 102.359 83.4105 102.032 83.6826 101.76V101.706L83.7914 101.651C83.7914 101.651 83.7098 101.733 83.6826 101.76C83.6554 101.869 83.5738 102.141 83.6826 102.114C83.7098 102.087 83.737 102.059 83.7642 102.032C83.737 102.032 83.7098 102.087 83.6826 102.114C83.5194 102.304 83.3017 102.74 83.1929 102.685C82.8936 103.882 83.3289 105.46 81.9415 106.467C81.2886 106.277 81.3702 108.426 81.1253 107.447C79.7651 113.297 76.963 115.147 75.5483 121.377L75.6027 120.969L74.9226 122.248L75.6299 122.058C74.8682 122.656 74.5689 125.187 74.1336 124.86V124.67C73.7256 124.343 73.3175 125.867 72.8278 126.465C73.0998 126.52 73.2359 126.384 73.3175 126.275C73.3447 126.221 73.3719 126.193 73.3719 126.166C73.3719 126.166 73.3719 126.221 73.3175 126.275C73.2631 126.411 73.1815 126.765 73.0726 127.418C72.8278 127.744 72.6102 128.071 72.3925 128.425C72.2565 128.697 72.1205 128.941 71.9844 129.186C71.9028 129.35 71.8484 129.54 71.794 129.676C71.9572 129.894 72.0116 130.003 71.9028 130.356L72.6646 130.792C73.6984 133.513 77.0446 136.125 77.5887 138.927C80.1732 142.519 81.9143 144.722 84.5259 148.205C85.6414 150.11 87.6817 152.831 87.7089 154.246C89.2052 157.374 90.7559 158.218 92.225 160.64C91.2184 160.721 93.1227 162.326 93.2043 163.252C93.7756 162.707 94.1021 164.802 94.8638 164.83L94.5102 165.129C94.5102 165.129 94.6462 165.347 94.8638 165.7C94.9727 165.891 95.0815 166.081 95.2175 166.299L95.2991 166.462V166.517C95.4896 166.68 95.6256 166.843 95.7616 167.061C95.7888 167.115 95.816 167.197 95.8704 167.251C95.9249 167.17 95.9521 167.115 95.9521 167.115C95.9521 167.115 95.9248 167.197 95.8976 167.306C96.0337 167.551 96.1425 167.823 96.1969 168.095C96.1969 167.986 96.1969 167.877 96.1969 167.768C96.1969 167.823 96.1969 167.931 96.1969 168.013C96.1969 167.959 96.2241 167.904 96.2513 167.85C96.2513 167.877 96.2513 167.904 96.2513 167.904C96.2513 167.904 96.2513 167.85 96.2513 167.823C96.2513 167.795 96.2513 167.741 96.2513 167.714C96.2513 167.714 96.2513 167.768 96.2513 167.795C96.2513 167.687 96.3329 167.523 96.4417 167.251C96.3873 167.414 96.3329 167.632 96.2513 167.823C96.2513 167.85 96.2513 167.877 96.2513 167.904C96.2785 167.904 96.3601 167.795 96.4689 167.605V167.496C96.4689 167.333 96.4689 167.115 96.4689 166.898C96.4145 166.517 96.3329 166.19 96.3329 166.19C96.3873 166.299 96.4417 166.489 96.5234 166.789C96.4689 166.462 96.5234 166.598 96.5778 166.653C96.6322 166.707 96.6594 166.68 96.4689 166.299L96.7682 166.816C96.6866 166.598 96.5234 166.272 96.5234 166.272C96.605 166.381 96.6866 166.544 96.7954 166.68L98.5365 161.946L98.4277 162.381C99.5159 159.551 100.659 156.694 101.774 153.81C102.427 152.123 103.08 150.436 103.705 148.722L103.787 148.477C103.787 148.477 103.597 148.232 103.515 148.124C103.515 148.151 103.515 148.178 103.488 148.205L103.325 147.851C103.325 147.851 103.433 148.015 103.515 148.124C103.896 147.144 103.189 147.443 103.978 146.273C104.086 146.682 104.086 146.845 104.413 146.736C104.685 145.158 104.658 145.838 104.467 144.505C104.549 144.913 104.739 145.076 104.984 145.076C105.746 142.872 106.453 140.641 107.079 138.437C108.004 137.05 110.044 131.227 111.16 129.295L111.051 129.105C111.214 128.887 111.404 128.615 111.568 128.343C112.71 125.649 113.826 122.901 114.968 120.099C116.029 117.432 117.118 114.711 118.206 111.936C117.09 108.508 115.948 104.998 114.805 101.488C113.472 97.5155 112.139 93.4887 110.806 89.4618C108.113 81.3808 105.419 73.2454 102.726 65.1645C102.617 64.5115 102.971 64.5931 102.155 62.1171H101.583C101.502 61.709 101.393 61.3281 101.284 60.9199C100.903 62.0083 100.495 63.0694 99.7607 64.0217" fill="#84AEB6"/>
<path d="M299.69 162.136C299.69 162.136 299.581 162.027 299.554 162C298.874 161.592 298.194 161.184 297.541 160.776L297.405 160.885C296.915 160.504 296.426 160.15 295.909 159.796C295.746 159.688 295.582 159.606 295.419 159.497C295.365 159.443 295.338 159.415 295.31 159.361C294.712 158.953 294.086 158.545 293.433 158.137L293.243 158.327C292.236 157.538 291.175 156.803 290.033 156.069C287.557 154.6 285.054 153.157 282.742 151.661C280.701 150.437 278.742 149.239 276.974 147.933L275.75 147.525L261.304 138.71L264.242 114.929V114.712L264.487 112.97L267.017 99.9918L268.432 86.2515C268.432 86.2515 268.323 86.3603 268.269 86.4147C267.208 87.0133 264.786 89.0267 262.447 90.9041L262.746 90.7409C262.61 90.8225 262.501 90.8769 262.419 90.9313C262.311 91.013 262.202 91.1218 262.093 91.2034C262.011 91.2851 261.957 91.3667 261.848 91.4755H261.821C260.325 92.6455 258.937 93.7338 258.094 94.278C254.965 96.754 251.81 99.3388 248.627 101.951C247.266 103.121 245.988 104.155 244.627 105.243C243.893 105.842 243.158 106.467 242.424 107.066C241.145 108.127 239.839 109.216 238.561 110.304C238.261 110.576 237.935 110.848 237.608 111.147L239.975 110.005C239.567 110.467 237.636 112.181 235.133 114.385C233.881 115.474 232.494 116.671 231.079 117.895C230.046 118.766 229.746 119.038 229.665 119.119C229.746 119.31 229.801 119.5 229.882 119.691C230.018 120.072 230.154 120.453 230.29 120.806C230.78 122.194 231.107 123.174 231.161 123.554C234.453 133.867 239.567 143.607 242.233 152.668C242.369 153.076 242.533 153.457 242.669 153.865C243.648 156.286 244.627 158.708 245.607 161.13C245.716 161.538 245.661 161.728 245.77 162.218C246.015 162.898 246.287 163.578 246.532 164.259C246.613 164.476 246.695 164.694 246.777 164.912H247.239C247.511 165.809 247.81 166.68 248.11 167.551L248.327 168.204L248.654 169.129C248.953 169.945 249.279 170.761 249.579 171.578C249.742 172.013 249.932 172.476 250.096 172.911H250.313L250.504 172.884H251.401L255.727 172.802C258.611 172.748 261.495 172.693 264.405 172.666C270.227 172.584 276.104 172.503 282.089 172.557L281.898 172.612C285.408 172.802 289.897 173.265 292.753 172.802C292.862 172.802 292.943 172.802 293.025 172.775C292.943 172.775 292.835 172.775 292.753 172.802C292.671 172.857 292.699 172.911 292.78 172.938L295.31 172.829L295.093 172.884C300.479 172.938 306.165 172.965 311.524 172.312C311.851 172.394 312.368 172.448 313.021 172.503C313.592 172.53 314.762 172.557 314.517 172.584C314.68 172.612 314.871 172.666 315.143 172.829C315.85 172.993 316.829 173.047 317.754 173.101C316.829 172.557 315.904 171.986 314.98 171.442C309.865 168.367 304.696 165.265 299.609 162.191" fill="#84AEB6"/>
<path d="M282.17 84.0202L282.279 84.0746C282.279 84.0746 282.279 83.993 282.334 83.9657C282.252 83.9385 282.198 83.9113 282.17 84.0202Z" fill="#2E2D2A"/>
</g>
<defs>
<clipPath id="clip0_120_974">
<rect width="409" height="328" fill="white"/>
</clipPath>
</defs>
</svg>