<svg width="70" height="48" viewBox="0 0 70 48" fill="none" xmlns="http://www.w3.org/2000/svg">
<path d="M0 47.0193H6.86V44.8206H2.73V42.3546H6.37933V40.2402H2.73V37.9617H6.86V35.7676H0V47.0193Z" fill="#2E2D2A"/>
<path d="M18.6666 47.0193L14.9612 41.4403L18.5219 35.7676H15.4279L13.4492 39.1666L11.1999 35.7676H8.02191L11.6946 41.295L8.10591 47.0193H11.1999L13.2066 43.5735L15.4886 47.0193H18.6666Z" fill="#2E2D2A"/>
<path d="M19.4319 37.9617H22.3953V47.0193H25.1253V37.9617H28.0933V35.7676H19.4319V37.9617Z" fill="#2E2D2A"/>
<path d="M32.1905 38.0414H33.8798C34.3792 38.0414 34.7572 38.1633 35.0045 38.4117C35.2518 38.6602 35.3778 38.9931 35.3778 39.4197C35.3778 39.8698 35.2518 40.2167 35.0045 40.4605C34.7525 40.709 34.3792 40.8309 33.8798 40.8309H32.1905V38.0414ZM32.1905 42.7718H32.8438L35.1725 47.0193H38.2525L35.6672 42.5655C36.4838 42.3217 37.1045 41.9045 37.5245 41.3138C37.9445 40.7277 38.1545 40.0573 38.1545 39.3119C38.1545 38.6508 38.0005 38.0507 37.6925 37.5069C37.3845 36.9678 36.9178 36.5411 36.2972 36.2317C35.6765 35.9223 34.9205 35.7676 34.0385 35.7676H29.4605V47.0193H32.1905V42.7718Z" fill="#2E2D2A"/>
<path d="M39.8674 47.0193H46.7274V44.8206H42.5928V42.3546H46.2468V40.2402H42.5928V37.9617H46.7274V35.7676H39.8674V47.0193Z" fill="#2E2D2A"/>
<path d="M61.1802 47.0193V35.7676H57.9742L54.8615 43.5547L51.7209 35.7676H48.4962V47.0193H51.2216V40.2542L53.7462 47.0193H55.9442L58.4502 40.273V47.0193H61.1802Z" fill="#2E2D2A"/>
<path d="M69.9998 37.9617V35.7676H63.1398V47.0193H69.9998V44.8206H65.8698V42.3546H69.5192V40.2402H65.8698V37.9617H69.9998Z" fill="#2E2D2A"/>
<path d="M41.6313 32.2468C41.6313 32.2468 41.6733 32.2468 41.6967 32.2468C41.6827 32.2703 41.664 32.2703 41.6313 32.2468ZM36.0407 2.98752C36.0407 2.98752 36.0733 2.97815 36.0873 3.00159C36.1573 3.1563 36.1713 3.27819 36.2087 3.41884C36.1807 3.30163 36.1853 3.27819 36.1807 3.26413C36.1807 3.25006 36.1807 3.24538 36.2133 3.236C36.218 3.31101 36.2133 3.3157 36.2087 3.37665C36.2087 3.46103 36.2227 3.32976 36.246 3.35789C36.2693 3.32039 36.3067 3.27819 36.3487 3.25475C36.3673 3.24069 36.3907 3.23131 36.4047 3.23131C36.414 3.23131 36.4187 3.22662 36.4327 3.23131C36.4467 3.24069 36.4607 3.25006 36.47 3.25944C36.47 3.25944 36.4653 3.25006 36.456 3.24069C36.4513 3.23131 36.4373 3.20787 36.4373 3.20318C36.4373 3.18912 36.428 3.17036 36.428 3.17036L36.456 3.18443C36.456 3.18443 36.4933 3.21725 36.5073 3.23131L36.624 3.33914C36.7033 3.41415 36.778 3.48916 36.8573 3.56886C37.0113 3.72826 37.1653 3.90642 37.31 4.09395L37.2633 4.1127L37.6227 4.47369L37.604 4.53464L38.108 5.05972L38.052 4.97534C38.1733 5.09723 38.5653 5.49573 38.7567 5.75358L38.724 5.76765C39.2607 6.49901 39.8533 6.96315 40.5767 7.73671L40.4367 7.67576C40.6327 7.98519 40.5767 7.68045 40.8427 8.02269L40.8007 8.09301C41.132 8.30399 41.1133 8.46807 41.2627 8.68842V8.52902L41.5707 8.90877C41.9067 9.33071 41.6967 9.24163 41.6033 9.21819L41.9113 9.43385L41.8927 9.54637C42.1493 9.67295 42.0607 9.75734 42.42 10.0668C42.42 10.1183 42.3267 10.0433 42.42 10.1746L43.036 10.6622L42.6813 10.3527L42.8167 10.3059C43.218 10.5965 43.2507 10.8028 43.512 11.0372L43.3207 10.8872C43.7267 11.2857 43.708 11.3467 43.8993 11.6045C43.8527 11.5154 43.7733 11.3748 43.9413 11.5342C44.058 11.6561 43.9693 11.6326 44.0673 11.7639C44.156 11.7311 44.4687 12.003 44.6833 12.3031C44.6693 12.3077 44.6553 12.3124 44.6367 12.2984C44.7113 12.3593 44.758 12.3781 44.856 12.514H44.7207L45.0007 12.6781C45.122 12.8516 45.3833 13.0297 45.3133 13.0532L45.22 12.9782L45.7473 13.5783C45.7753 13.6064 45.7987 13.6392 45.8267 13.6673L45.85 13.6955C45.85 13.6955 45.8733 13.7283 45.8873 13.7423C45.906 13.7658 45.92 13.7845 45.92 13.7845L45.822 13.7939C45.8593 13.7939 45.8827 13.8033 45.9013 13.8174C45.8687 13.8549 45.766 13.8689 45.864 13.9158C45.8313 13.9158 45.8173 13.9252 45.7847 13.9486C45.6913 14.0283 45.5933 14.1174 45.5 14.1924C45.3227 14.3471 45.1827 14.455 45.2013 14.3424C44.394 15.0082 44.0533 15.4864 43.0313 16.2505C42.602 16.4428 41.678 17.2773 41.0433 17.793C40.4507 18.3274 39.9607 18.7728 39.4707 19.2182C39.2233 19.4386 38.976 19.6636 38.7147 19.898C38.584 20.0152 38.4487 20.1371 38.3087 20.2637C38.0753 20.47 37.828 20.6809 37.5713 20.906C37.5153 20.9482 37.4593 20.9857 37.3987 21.0279C37.4547 21.2248 37.5293 21.4404 37.6087 21.6702C37.6507 21.7827 37.6927 21.8999 37.7347 22.0171C37.7627 22.0921 37.7907 22.1671 37.8187 22.2468C37.9213 22.514 38.0427 22.786 38.164 23.0626C38.4067 23.6111 38.6587 24.1643 38.7987 24.6566L38.9713 24.9003C39.1207 25.5989 39.648 26.5459 39.9047 27.507C39.942 27.5773 39.9747 27.6336 39.998 27.6805C40.054 27.8868 40.1007 28.079 40.124 28.2384L40.236 28.2899C40.2733 28.4025 40.2407 28.5994 40.334 28.6509C40.4367 28.9041 40.6607 29.3448 40.6887 29.5651L40.7027 29.4526C40.7633 29.6495 40.7727 29.5792 40.8007 29.6027L40.8893 29.8464C40.8893 29.8464 40.8893 29.8511 40.8893 29.8558L40.8287 29.7433C40.852 29.7902 40.8707 29.8324 40.894 29.8746C40.8987 29.8933 40.908 29.9121 40.9173 29.9261C40.978 30.048 41.0387 30.1699 41.09 30.2871C41.09 30.2918 41.09 30.2965 41.0947 30.3012L41.0807 30.4231C41.1227 30.6294 41.1787 30.7372 41.2533 30.8591C41.2533 30.8685 41.2627 30.8732 41.2673 30.8825C41.2067 30.8825 41.146 30.8732 41.0947 30.8685L40.978 30.8591H40.9453H40.8473C40.782 30.8591 40.712 30.8591 40.6467 30.8591C40.1053 30.8544 39.5313 30.8638 38.836 30.9294C39.1253 30.8216 38.4067 30.9857 38.3787 30.8685C37.8327 30.7231 37.366 30.9013 36.9133 30.9388C36.9133 30.9435 36.9087 30.9529 36.8807 30.9622L36.0967 30.9482C36.568 30.8028 35.532 31.0701 35.9613 30.9482C33.9173 30.8357 31.2433 30.9482 28.8773 30.9013L28.98 30.9388C28.378 30.9294 27.6313 30.9763 27.1787 30.9154C26.7213 30.8544 26.18 31.0138 26.0027 31.0185C25.5593 31.0748 25.1533 30.981 25.214 30.9622C24.696 30.9857 24.2013 31.1123 23.4827 31.0513C23.2307 30.9294 21.462 31.1732 21.4387 31.0326L21.4293 31.0419C20.482 30.9435 19.586 31.1123 18.564 31.0232C18.564 31.0232 18.5827 31.0138 18.62 31.0044L18.0833 31.1123C20.5567 28.7541 21.2147 28.0884 22.568 26.7897C23.926 25.4817 25.298 24.183 26.7493 22.8844C28.3967 21.5295 30.0533 19.6823 31.9107 18.093C31.9947 18.0415 32.2187 17.8446 32.5313 17.5586C32.6853 17.4179 32.858 17.2538 33.0493 17.0757C33.3013 16.8366 33.572 16.5787 33.852 16.3162C33.936 15.852 34.02 15.3692 34.0993 14.9003C34.16 14.5253 34.2207 14.169 34.2767 13.8455C34.384 13.2032 34.4587 12.7156 34.468 12.589L34.258 13.1329C34.538 11.3138 34.804 10.4887 35 8.92283L35.0093 9.01191C35.028 8.95565 35.0233 8.90408 35.0233 8.81969C35.126 8.39306 35.2287 8.00394 35.3267 7.70858L35.2707 7.54449C35.3173 7.32883 35.4993 7.0241 35.4013 6.89751V6.85532C35.462 6.64904 35.532 6.42869 35.6067 6.18021H35.616C35.63 6.09583 35.6067 6.09114 35.6673 5.92705L35.5227 6.3443C35.5367 6.16146 35.5367 5.988 35.5553 5.7864C35.5693 5.73014 35.5833 5.67857 35.6067 5.61294C35.6067 5.61294 35.6207 5.57074 35.63 5.5473H35.6207C35.6347 5.49104 35.644 5.44416 35.6533 5.40665H35.6627L35.798 4.55339L35.9147 4.30492C35.9193 4.13614 35.854 4.1127 35.8587 3.93455L35.952 3.76108C35.9753 3.67669 35.9987 3.60168 36.0127 3.53136C36.022 3.49854 36.0267 3.46104 36.036 3.43291C36.036 3.41415 36.0407 3.40009 36.0453 3.38134C36.0453 3.35789 36.0453 3.33445 36.0407 3.30163C36.0313 3.236 36.0173 3.12817 36.0407 2.98752ZM48.2533 15.4723C48.2533 15.4723 48.258 15.4629 48.2627 15.4535L48.244 15.4442C48.244 15.4442 48.258 15.4254 48.272 15.4348C48.2813 15.4254 48.3 15.4254 48.342 15.4864H48.328C48.412 15.5661 48.5333 15.7255 48.5847 15.7958L48.5427 15.8333C48.7573 15.9271 49.3127 17.01 49.49 17.2304C49.616 17.4929 49.9053 17.7039 50.1013 17.9946C50.4467 18.4353 50.218 18.2618 50.3627 18.5056C50.5587 18.7963 50.3627 18.4118 50.4607 18.515L50.6707 18.8853C50.5073 18.7025 50.568 18.8244 50.582 18.8713C50.806 19.1573 51.0953 19.6589 51.2493 19.6777C51.52 20.0855 51.4873 20.1183 51.618 20.2824C51.59 20.2168 51.5107 20.0949 51.5293 20.0808C51.618 20.2637 51.5993 20.1465 51.5573 20.0808C51.786 20.2824 52.3927 21.4029 52.528 21.3748L52.5093 21.3889C52.6213 21.3889 52.6167 21.2435 52.7893 21.3701L52.8453 21.5014L53.0087 21.6373C53.074 21.7639 53.0087 21.7264 53.0087 21.7311C53.2607 21.9655 53.5267 22.364 53.7787 22.6922L53.6853 22.1999C53.774 22.3499 53.9 22.5703 54.012 22.7438C54.04 22.786 54.068 22.8281 54.096 22.8703C54.11 22.8891 54.124 22.9078 54.1333 22.9266C54.152 22.9454 54.166 22.9688 54.18 22.9875C54.2407 23.0579 54.2873 23.1048 54.3107 23.1048L54.4133 23.3298L54.4553 23.3485C54.5627 23.3767 54.656 23.3954 54.74 23.4095C54.8193 23.4236 54.9033 23.4329 54.936 23.4376C55.02 23.4423 55.0667 23.4376 55.104 23.4236C55.174 23.3954 55.1973 23.3532 55.3327 23.386L55.678 23.4986L55.3327 23.4751C55.678 23.5454 55.8133 23.583 56.0887 23.658C56.0887 23.658 56.056 23.6439 56.056 23.6392H56.1027C56.1493 23.597 56.3313 23.5783 56.574 23.597C56.9193 23.6345 57.1993 23.5876 57.75 23.7189L57.8947 23.6345L58.31 23.7189V23.7939C57.8947 23.7611 57.1247 23.7377 56.5973 23.7048L56.588 23.7377C56.9007 23.7564 57.2553 23.7517 57.4607 23.7705C57.5493 23.7892 57.7593 23.8642 57.666 23.9064L57.82 23.8596C58.338 23.8924 58.604 23.9064 58.87 23.9299C59.0053 23.9439 59.1407 23.958 59.3087 23.9815C59.3927 23.9908 59.486 24.0049 59.5933 24.019C59.6447 24.0283 59.7007 24.033 59.7613 24.0424H59.808L59.822 24.0518L59.8453 24.0612L59.8267 24.0236C59.8593 24.0143 59.892 24.0096 59.92 24.0096C59.9433 24.0283 59.962 24.0565 59.948 24.0893L59.976 24.1221L60.06 24.2112C60.116 24.2721 60.172 24.3331 60.2233 24.394C60.3307 24.5159 60.438 24.6331 60.536 24.7503C60.732 24.9847 60.9 25.2051 61.0167 25.3879H61.1427C61.236 25.4958 61.292 25.7349 61.4227 25.6973L61.656 25.8802C61.782 26.0208 61.8987 26.0677 62.0153 26.2552C62.0153 26.2552 62.0293 26.2787 62.0387 26.2928C62.0387 26.2928 62.0387 26.2928 62.0387 26.2881C62.314 26.6209 62.09 26.2318 62.398 26.6162C62.4633 26.771 62.5987 26.6631 62.7527 26.846L62.832 27.1038C63.084 27.4601 63.224 27.4273 63.6673 27.8727C63.8493 28.1165 63.8773 28.2946 63.6673 28.2196C63.938 28.3368 63.8073 28.2571 64.1013 28.4775C64.106 28.5478 64.0733 28.529 63.9893 28.5009C64.176 28.7681 64.1573 28.6134 64.33 28.7869C64.442 28.7775 64.596 28.7353 64.6567 28.7869L64.61 28.7025C64.8247 28.8525 65.0393 29.0401 65.2167 29.2839L65.1793 29.3073L65.4173 29.5183L65.3893 29.5745L65.7207 29.8839L65.688 29.8277C65.7673 29.898 66.0287 30.1324 66.15 30.2965L66.122 30.3153C66.1453 30.3434 66.164 30.3715 66.1827 30.3997L66.1967 30.4184V30.4278L66.206 30.4418C66.2153 30.4606 66.2247 30.4747 66.2387 30.4887C66.262 30.5169 66.2947 30.5403 66.3367 30.5637C66.416 30.6153 66.542 30.6903 66.64 30.7841L66.4953 30.7278C66.416 30.7372 66.7007 30.7982 66.7053 30.8497L66.5373 30.7935C66.682 30.8591 66.6867 30.8779 66.6353 30.8638C66.5653 30.8403 66.4813 30.8122 66.402 30.7841L66.6493 30.8872L66.5093 30.8638C66.346 30.831 66.2433 30.7325 66.1453 30.6809C66.15 30.6809 66.248 30.7606 66.2433 30.7606L66.108 30.6716C66.1733 30.7231 66.1593 30.7185 66.1407 30.7091C66.122 30.6997 66.0987 30.6809 66.108 30.7091C66.0753 30.6763 66.0613 30.6575 66.0473 30.6388C66.0473 30.6388 66.0707 30.6716 66.0707 30.7044C66.0707 30.7372 66.0567 30.77 66.0567 30.77C66.0613 30.77 66.0847 30.7138 66.08 30.7138C66.08 30.7138 66.0987 30.7466 66.1173 30.7794L66.15 30.845C66.1313 30.8966 66.0893 30.8919 66.0567 30.8825C66.0427 30.8779 66.0287 30.8685 66.0147 30.8638C65.9773 30.8638 65.926 30.8638 65.87 30.8685C65.87 30.8685 65.9073 30.8591 65.9447 30.8497C65.982 30.8403 66.024 30.831 66.0147 30.831C65.6693 30.8638 65.6413 30.8075 65.4453 30.7794C65.506 30.8028 65.604 30.8403 65.4593 30.8591C65.352 30.8638 65.4033 30.8122 65.3007 30.7982C65.2773 30.8872 65.0207 30.9341 64.792 30.8919C64.792 30.8779 64.8013 30.8685 64.8153 30.8591C64.7547 30.8732 64.7267 30.8966 64.624 30.8732L64.6847 30.7747L64.4887 30.8685C64.358 30.8403 64.162 30.9154 64.1807 30.845L64.2553 30.8263L63.2567 30.8028L63.2427 30.7231C63.1447 30.831 62.6967 30.6809 62.7293 30.8169C62.5427 30.7419 61.9873 30.8685 62.0993 30.7185C61.4413 30.7091 61.0867 30.8544 60.2887 30.7794C60.004 30.6528 59.2247 30.6903 58.7113 30.6809C58.3613 30.6997 58.058 30.7185 57.7593 30.7372C57.61 30.7466 57.4653 30.756 57.316 30.7606C57.246 30.7606 57.176 30.77 57.1013 30.7747L57.0547 30.7888C57.022 30.7747 57.0453 30.7982 56.91 30.7185C56.7747 30.6388 56.6347 30.5544 56.49 30.4747C56.3173 30.2918 56.0793 30.1371 55.8227 29.9918C55.5193 29.7855 55.1413 29.5651 54.7867 29.3636L54.6747 29.3026L54.6187 29.2698L54.586 29.251L54.4647 29.1854C54.3807 29.1432 54.3013 29.0963 54.2267 29.0541C54.0727 28.9651 53.928 28.8666 53.8067 28.7635L53.732 28.7494C53.4987 28.6087 53.256 28.4587 53.046 28.2712C52.9013 28.2196 52.8267 28.1821 52.7987 28.1681C52.7987 28.1681 52.8033 28.1681 52.808 28.1727C52.6867 28.0977 52.5653 28.018 52.4487 27.9336V27.9289L52.4953 27.943C52.5653 27.8774 52.0193 27.6945 51.8933 27.5258L51.9353 27.6664L51.7067 27.507C51.7067 27.507 51.6973 27.4929 51.6973 27.4883L51.7487 27.507C51.7487 27.507 51.716 27.4929 51.702 27.4836C51.702 27.4742 51.702 27.4695 51.7113 27.4601L51.7533 27.4742C51.8233 27.4086 51.296 27.2398 51.1793 27.0757L51.2167 27.2117L50.9553 27.0288L51.0393 27.0569C50.8107 26.9585 50.61 26.86 50.428 26.7616C50.0687 26.5178 49.7373 26.274 49.3173 26.0396C49.084 25.8802 48.8367 25.7208 48.5333 25.5708C48.5333 25.5661 48.5333 25.5614 48.5333 25.5567C48.384 25.3457 48.174 25.2754 47.9687 25.2191C47.9687 25.2191 47.9687 25.2145 47.9687 25.2098C47.768 24.9144 47.4367 24.9144 47.1893 24.8066C47.1847 24.8019 47.1753 24.7972 47.1707 24.7925C47.18 24.7925 47.1847 24.8019 47.194 24.8066C47.208 24.7878 47.1147 24.7269 47.0773 24.6894C47.0773 24.7034 47.026 24.68 47.0027 24.6706C47.0027 24.6753 47.012 24.68 47.0167 24.6847C47.0073 24.68 46.998 24.6706 46.9933 24.6659C46.9933 24.6659 46.998 24.6659 47.0027 24.6706C46.9933 24.6612 46.9887 24.6519 46.9793 24.6425L46.9887 24.6612C46.942 24.6284 46.8907 24.5909 46.8393 24.5581C46.8767 24.5581 46.858 24.5534 46.816 24.544C46.7367 24.4925 46.6573 24.4362 46.578 24.3846C46.494 24.3284 46.41 24.2721 46.3213 24.2159C46.284 24.1924 46.2513 24.169 46.214 24.1455C46.214 24.1174 46.2187 24.094 46.2233 24.0658C46.2233 24.0518 46.2233 24.0377 46.228 24.0236C46.242 23.9299 46.2513 23.8361 46.2653 23.7424C46.298 23.4751 46.3307 23.2032 46.3633 22.9266C46.3867 22.7438 46.41 22.5562 46.4287 22.3734C46.4613 22.139 46.494 21.9046 46.5313 21.6795L46.5173 21.6936C46.536 21.5623 46.5593 21.4357 46.578 21.3045L46.5313 21.3607C46.5547 21.2107 46.5687 21.0466 46.5873 20.8825C46.606 20.7794 46.6247 20.6856 46.6527 20.6106C46.6853 20.5122 46.6947 20.4043 46.69 20.3012C46.69 20.3012 46.69 20.2965 46.69 20.2918C46.7833 20.0293 46.6713 19.687 46.6807 19.5792C46.6807 19.5651 46.6807 19.5511 46.6807 19.5323C46.7227 19.3964 46.774 19.326 46.76 19.4104C46.7647 19.3213 46.7647 19.237 46.76 19.1479C46.7833 19.1057 46.802 19.101 46.7927 19.1479C46.8113 18.9135 46.7647 18.6837 46.7833 18.4071C46.7927 18.3649 46.7973 18.3274 46.8113 18.2852C46.8533 18.243 46.872 18.1165 46.886 17.9571C46.928 17.7555 46.9233 17.357 46.942 17.0991C46.956 17.0429 46.97 17.0054 46.998 17.0054H46.9887C47.0027 16.9538 47.012 16.9069 47.0213 16.86L47.0587 16.8835C47.0587 16.8835 47.0307 16.86 47.0213 16.86C47.0493 16.7381 47.068 16.6162 47.082 16.4943C47.124 16.2084 47.1287 15.9177 47.1613 15.6176C47.18 15.4817 47.2033 15.3457 47.2407 15.2098C47.2407 15.2098 47.25 15.2238 47.2547 15.2473L47.2407 15.1769C47.2407 15.1769 47.2407 15.1582 47.2453 15.1488C47.2453 15.1488 47.2547 15.1629 47.2593 15.1816L47.1567 14.6753L47.2733 14.5768L47.67 14.2299C47.8473 14.5487 48.034 14.891 48.0993 15.055C47.8193 14.6753 48.0107 14.966 48.0433 15.0597H48.0853C48.244 15.2988 48.1927 15.341 48.272 15.4629M42.7887 30.756H42.7513C42.7233 30.6809 42.6907 30.6059 42.6627 30.5262C42.6067 30.3856 42.5553 30.2449 42.504 30.1043L42.448 29.9449L42.4107 29.8324C42.3593 29.6824 42.308 29.5323 42.2613 29.3823H42.182C42.168 29.3401 42.154 29.3026 42.14 29.2698C42.0933 29.1526 42.0513 29.0354 42.0093 28.9182C41.9907 28.8291 42 28.801 41.9813 28.7306C41.8133 28.3134 41.6453 27.8961 41.4773 27.4789C41.454 27.4086 41.426 27.3429 41.4027 27.2726C40.9453 25.7114 40.068 24.033 39.5033 22.2562C39.494 22.1905 39.438 22.0218 39.354 21.7827C39.3307 21.7217 39.3073 21.6608 39.284 21.5905C39.27 21.5576 39.2607 21.5295 39.2467 21.4967C39.2607 21.4826 39.312 21.4357 39.4893 21.2857C39.732 21.0747 39.97 20.8685 40.1847 20.6809C40.614 20.3059 40.9407 20.0058 41.0153 19.9308L40.6093 20.1277C40.6653 20.0762 40.7213 20.0293 40.7727 19.9824C40.992 19.7949 41.216 19.6073 41.4353 19.4245C41.5613 19.3167 41.6873 19.2135 41.8133 19.1104C42.0467 18.9228 42.266 18.7447 42.4993 18.5431C43.05 18.093 43.5913 17.6476 44.1233 17.221C44.268 17.1272 44.506 16.9397 44.7627 16.7334H44.7673C44.7673 16.7334 44.7953 16.71 44.8093 16.6959C44.828 16.6819 44.8467 16.6631 44.8653 16.649C44.8793 16.6397 44.898 16.6303 44.9213 16.6162L44.87 16.6444C45.2667 16.3209 45.6867 15.9739 45.8687 15.8661C45.878 15.8567 45.8873 15.8474 45.8967 15.8427L45.654 18.2102L45.22 20.4465L45.1827 20.7466V20.7841L44.674 24.8816L47.152 26.4006L47.362 26.4709C47.6653 26.6959 48.0013 26.9069 48.3513 27.1132C48.748 27.371 49.1773 27.6195 49.602 27.8727C49.7933 27.9993 49.98 28.1259 50.1527 28.2618L50.1853 28.229C50.2927 28.2993 50.4 28.3696 50.5073 28.44C50.512 28.4447 50.5213 28.454 50.526 28.4634C50.554 28.4822 50.582 28.4962 50.61 28.515C50.6987 28.5759 50.7827 28.6369 50.8667 28.7025L50.89 28.6838C51.0067 28.7541 51.1233 28.8244 51.2353 28.8947C51.24 28.9041 51.2493 28.9135 51.2587 28.9182C52.136 29.4479 53.018 29.9824 53.8953 30.5122C54.054 30.6106 54.2127 30.7044 54.3713 30.7982C54.2127 30.7935 54.0447 30.7794 53.9233 30.7513C53.8767 30.7231 53.844 30.7138 53.816 30.7091C53.8533 30.7091 53.6573 30.7044 53.5593 30.695C53.4473 30.6903 53.354 30.6809 53.3027 30.6622C52.3833 30.7747 51.408 30.77 50.484 30.7606L50.5213 30.7513L50.0873 30.77C50.0873 30.77 50.0687 30.7513 50.0827 30.7466C49.5927 30.8263 48.8227 30.7466 48.2207 30.7138L48.2533 30.7044C47.2267 30.7044 46.2187 30.7091 45.22 30.7278C44.7207 30.7372 44.226 30.7419 43.7313 30.7513L42.9893 30.7606H42.8353H42.8027L42.7887 30.756ZM20.2673 9.18069C20.72 9.13849 20.9813 8.82438 21.2893 8.64154C21.2893 8.63685 21.2893 8.62747 21.3033 8.61341L21.8727 8.37431C21.5973 8.66029 22.2273 8.07895 21.9707 8.33211C23.4827 7.76953 25.3493 6.80375 27.0713 6.08176H26.9827C27.4167 5.89423 27.9347 5.60825 28.2847 5.51448C28.6347 5.42072 28.9613 5.10192 29.0827 5.04097C29.3767 4.84407 29.708 4.80187 29.6707 4.83469C30.03 4.64716 30.3333 4.37055 30.8747 4.1924C31.108 4.22522 32.2747 3.42822 32.3493 3.54542V3.53136C33.0727 3.3157 33.6467 2.87032 34.4167 2.62184C34.4167 2.62184 34.4073 2.63591 34.384 2.65935L34.7947 2.32648C34.65 3.12817 34.5007 3.93455 34.356 4.74561C34.146 5.8661 33.9267 6.99128 33.6933 8.13052C33.418 9.27445 33.194 10.5121 32.97 11.792C32.858 12.4343 32.746 13.086 32.634 13.7423C32.5733 14.0705 32.5173 14.3987 32.4567 14.7316L32.3633 15.2285L32.3213 15.4442L32.312 15.4629L32.298 15.4723H32.2933C32.2933 15.4723 32.298 15.4723 32.27 15.4957L32.0367 15.702L31.57 16.1146C31.094 16.4381 26.5813 20.8075 26.208 21.2201L26.8147 20.7981C26.4833 21.1263 26.1847 21.4123 25.9093 21.6748C25.6853 21.8577 25.4753 22.0124 25.298 22.1343L25.2747 22.2702C25.2747 22.2702 25.2607 22.2843 25.2513 22.2937C25.116 22.4015 24.8687 22.4812 24.8873 22.6219L24.8547 22.6594C24.276 23.1938 23.73 23.6955 23.086 24.3565C22.6473 24.6753 22.666 24.83 22.0967 25.3645C21.7933 25.5895 21.588 25.6411 21.7047 25.402C21.532 25.7208 21.6393 25.5614 21.35 25.9177C21.266 25.9318 21.294 25.8896 21.3407 25.7911C21.0093 26.0302 21.1867 25.9927 20.9627 26.199C20.9627 26.2459 20.9627 26.2928 20.9627 26.3443C20.748 26.5178 20.51 26.71 20.2393 26.921L20.23 26.9116C20.1507 26.9913 20.1647 27.0054 19.9827 27.1366L20.4353 26.8038C20.2113 27.0522 20.0387 27.2914 19.7213 27.6008C19.642 27.657 19.6047 27.6617 19.586 27.657L18.8067 28.4212L18.5173 28.5994C18.4847 28.6369 18.466 28.6697 18.4473 28.6978C18.452 28.6791 18.4613 28.6603 18.466 28.6416C18.508 28.5759 18.55 28.515 18.578 28.4681L18.4753 28.6228C18.4753 28.6228 18.4753 28.6228 18.4753 28.6275C18.4753 28.6228 18.48 28.6134 18.48 28.6087L18.5827 28.454C18.5827 28.454 18.5593 28.4869 18.55 28.5056C18.5173 28.5525 18.4987 28.5806 18.4893 28.5947V28.5853C18.4893 28.5853 18.4987 28.5712 18.5033 28.5666C18.5313 28.5197 18.564 28.4728 18.5127 28.5384C18.578 28.4447 18.5547 28.4775 18.6713 28.3181C18.6713 28.3181 18.6013 28.4118 18.5407 28.4822C18.5407 28.4822 18.5313 28.4915 18.5267 28.4962C18.6853 28.0602 18.844 27.6242 19.0027 27.1882C19.0167 27.1507 19.0307 27.1179 19.04 27.0804H19.0633C19.0633 27.0804 19.0587 27.0522 19.0587 27.0382C19.222 26.5975 19.3853 26.1568 19.5533 25.7161C19.5627 25.7161 19.5767 25.7255 19.586 25.7442C19.712 25.4348 19.7913 25.1723 19.866 24.905C20.0573 24.4315 20.2487 23.9533 20.4633 23.4751C20.6873 23.0485 20.874 22.5797 21.056 22.0874C21.1447 21.8389 21.2333 21.5905 21.3267 21.3373C21.3733 21.2107 21.42 21.0841 21.4667 20.9575C21.546 20.7419 21.63 20.5309 21.714 20.3153L21.5647 19.8371L21.5133 19.673L21.476 19.5464C21.4293 19.3776 21.3827 19.2041 21.3453 19.0307C21.35 18.7494 20.3933 15.9833 20.272 15.7489V16.1052C20.202 15.9177 20.1413 15.7489 20.09 15.5895C20.0807 15.552 20.0713 15.5145 20.0667 15.4817L20.048 15.4535C19.852 14.8206 19.754 14.3659 19.474 13.7095L19.5113 13.7517C19.5067 13.7142 19.4833 13.6861 19.4507 13.6392C19.4087 13.4892 19.3713 13.3392 19.348 13.1891C19.2593 13.0157 19.222 12.9266 19.2033 12.8844C19.208 12.9078 19.208 12.9407 19.2033 12.9688C19.1707 12.8188 19.138 12.6312 19.1053 12.4015C19.1053 12.3874 19.1053 12.3687 19.096 12.3452C19.0867 12.2655 19.0773 12.1858 19.0633 12.0968H19.0727C19.054 12.0452 19.0353 12.0499 19.0307 11.9421L19.0447 12.1999C18.9887 12.0499 18.9047 11.8483 18.8627 11.6842C18.8487 11.6279 18.8393 11.5764 18.8393 11.5342L18.816 11.6139L18.6713 11.2107L18.69 11.0419C18.634 10.9528 18.5593 10.9716 18.5033 10.8685C18.494 10.8403 18.48 10.8122 18.4707 10.7794C18.4567 10.7325 18.4473 10.6762 18.438 10.6012C18.4333 10.6247 18.424 10.6387 18.4193 10.6434C18.396 10.5778 18.368 10.5075 18.3493 10.4418C18.3493 10.4137 18.3493 10.3856 18.3447 10.3574C18.326 10.2965 18.3167 10.2965 18.3073 10.3246C18.3027 10.3106 18.298 10.2965 18.2933 10.2824C18.2887 10.259 18.2793 10.2355 18.27 10.2121C18.256 10.1652 18.2467 10.123 18.242 10.0855C18.298 10.0668 18.3587 10.048 18.4147 10.0293L18.452 10.0152H18.4707L18.5267 9.98706C18.6153 9.94956 18.6993 9.91205 18.788 9.87454C19.1427 9.71514 19.516 9.5323 19.9407 9.27914C19.7773 9.46667 20.2253 9.09161 20.2907 9.18537M16.45 29.7058C16.4313 29.6777 16.4173 29.6495 16.4033 29.6355C16.4033 29.6355 16.4313 29.6917 16.4453 29.7245L16.394 29.6402C16.4267 29.7058 16.4173 29.7105 16.4127 29.7011C16.4033 29.6917 16.394 29.673 16.4033 29.7292C16.3847 29.6777 16.3753 29.6448 16.3707 29.6261C16.3707 29.6261 16.3847 29.6777 16.394 29.748C16.394 29.7855 16.4033 29.823 16.4033 29.8511V29.8699C16.38 29.9027 16.366 29.9215 16.3567 29.9215C16.3567 29.9168 16.3567 29.9121 16.3567 29.9074C16.366 29.8746 16.38 29.8418 16.3893 29.8089C16.3707 29.8605 16.3613 29.8839 16.3567 29.9027C16.3567 29.898 16.3567 29.8933 16.3567 29.8886C16.3567 29.8933 16.3567 29.9027 16.3567 29.9074C16.3567 29.9074 16.3567 29.9168 16.3567 29.9215C16.3567 29.9215 16.3567 29.9215 16.3567 29.9121C16.3567 29.9215 16.352 29.9308 16.3473 29.9402C16.3473 29.9261 16.3473 29.9121 16.3473 29.898C16.3473 29.9215 16.3473 29.9402 16.3473 29.9543C16.3333 29.9074 16.3147 29.8605 16.296 29.8136C16.3007 29.7949 16.3053 29.7808 16.3053 29.7808C16.3053 29.7808 16.3007 29.7949 16.2913 29.8089C16.2867 29.7996 16.282 29.7855 16.2773 29.7761C16.2587 29.7386 16.2307 29.7105 16.198 29.6824V29.673L16.184 29.6448C16.1607 29.6073 16.142 29.5745 16.1233 29.5417C16.086 29.4808 16.0627 29.4433 16.0627 29.4433L16.1233 29.3917C15.9927 29.3917 15.9413 29.0307 15.8387 29.1198C15.8247 28.9604 15.498 28.6838 15.6707 28.6697C15.4187 28.2524 15.1527 28.1071 14.896 27.568C14.8913 27.3195 14.546 26.8553 14.35 26.5272C13.9067 25.9271 13.6033 25.5473 13.16 24.9285C13.0667 24.4456 12.4927 24.0002 12.3153 23.5267L12.18 23.4517C12.1987 23.3907 12.1847 23.3673 12.1613 23.3298C12.1707 23.3063 12.1753 23.2735 12.194 23.2454C12.2173 23.2032 12.2407 23.1563 12.264 23.1141C12.2967 23.0532 12.334 22.9969 12.3807 22.9407C12.3993 22.8235 12.4133 22.7672 12.4227 22.7438C12.4087 22.7625 12.3853 22.786 12.3387 22.7766C12.4227 22.6687 12.4927 22.4109 12.5673 22.4672V22.5C12.6373 22.5562 12.684 22.1202 12.8193 22.0171L12.698 22.0499L12.8147 21.8296L12.8053 21.8999C13.048 20.8263 13.5287 20.5075 13.7667 19.4995C13.8087 19.6636 13.7993 19.2932 13.9067 19.3307C14.1447 19.1573 14.07 18.8853 14.1213 18.6791C14.1167 18.6791 14.112 18.6697 14.1073 18.6556L14.2707 18.3274C14.3127 18.5853 14.2707 18.0368 14.2987 18.2712C14.7887 17.4414 15.1947 16.2599 15.694 15.2707L15.638 15.2988C15.7593 15.0457 15.8573 14.7081 16.002 14.5393C16.142 14.3706 16.1047 14.0752 16.1327 13.9955C16.17 13.7564 16.3707 13.6158 16.324 13.7048C16.408 13.4704 16.3847 13.1985 16.576 12.9078C16.7393 12.8516 16.8513 11.9936 16.982 12.0405L16.9727 12.0311C17.094 11.867 17.164 11.6842 17.234 11.4967C17.2527 11.5623 17.2713 11.6326 17.2853 11.6983H17.3833C17.5233 12.1249 17.4627 12.1155 17.4813 12.2234C17.9433 13.6111 18.4053 15.0175 18.8673 16.4099C19.096 17.1038 19.3293 17.7977 19.5533 18.4822C19.7493 19.0916 19.9453 19.6917 20.1413 20.2824C19.9547 20.7559 19.768 21.2248 19.586 21.6889C19.39 22.1718 19.1987 22.6453 19.0027 23.1094C18.97 23.1563 18.942 23.2032 18.9093 23.2407L18.928 23.2735C18.7413 23.6064 18.3867 24.6097 18.228 24.8488C18.1207 25.2285 17.9993 25.6083 17.8687 25.9927C17.8267 25.9927 17.794 25.9646 17.78 25.8943C17.8127 26.124 17.8127 26.0068 17.7707 26.2787C17.7147 26.3021 17.7147 26.274 17.696 26.2037C17.5607 26.41 17.682 26.3584 17.612 26.5225C17.626 26.5412 17.6447 26.56 17.6587 26.5834L17.6447 26.6256C17.5373 26.921 17.4253 27.2116 17.3133 27.5023C17.122 27.9993 16.9307 28.4915 16.7393 28.9791L16.758 28.9041L16.4593 29.7199L16.45 29.7058ZM16.3987 29.8418C16.3987 29.7996 16.394 29.748 16.394 29.748L16.408 29.8183L16.3987 29.8418ZM2.90267 30.6294C2.90267 30.6294 2.94467 30.5872 2.96333 30.5684C2.97267 30.5591 2.982 30.5497 2.99133 30.545H2.996L3.03333 30.4934L3.108 30.3997C3.822 29.673 4.34467 28.6041 5.124 27.7414C5.152 27.7274 5.20333 27.6711 5.264 27.5961C5.29667 27.5586 5.334 27.5117 5.37133 27.4601L5.39 27.4508L5.46 27.4132C5.558 27.3617 5.656 27.3101 5.75867 27.2585C5.95933 27.1507 6.16467 27.0382 6.35133 26.935C6.72467 26.7288 7.028 26.5506 7.08867 26.5037L6.79933 26.5272C7.55067 26.0865 7.96133 25.9974 8.582 25.5755L8.554 25.6177C8.66133 25.5895 8.60533 25.341 9.80467 25.0644V25.0738C9.84667 25.0551 9.83733 25.0316 9.92133 25.0222L9.70667 25.0551C9.80467 24.9754 9.87467 24.8769 10.0193 24.7972C10.0567 24.7925 10.0753 24.8066 10.0893 24.8207L10.4393 24.6191H10.584C10.6773 24.5347 10.556 24.4268 10.892 24.3518C10.7333 24.3143 11.0087 24.2206 10.948 24.1924C10.9667 24.1924 10.9947 24.1924 11.0273 24.1924C10.9713 24.2346 10.934 24.2581 10.934 24.2581C10.9713 24.2487 11.0133 24.2487 11.0507 24.2393C11.0973 24.3096 11.144 24.38 11.1907 24.4503V24.5581L12.2267 26.0302C12.2313 26.0396 12.2407 26.0537 12.25 26.063L12.9033 27.3664L14.1587 29.2792C14.1727 29.3073 14.182 29.3354 14.1867 29.3542C14.2287 29.4011 14.266 29.4526 14.3033 29.4995L14.8493 30.3293L14.9847 30.4231L15.0313 30.4887C15.0313 30.4887 15.0593 30.5309 15.0687 30.5497C15.0687 30.5497 15.064 30.5731 15.0593 30.5825C15.0593 30.6012 15.0593 30.6106 15.0687 30.6294C15.0873 30.6575 15.134 30.695 15.162 30.7372C15.134 30.7372 15.0733 30.7325 15.0127 30.6903L15.1013 30.7794C15.064 30.7841 15.022 30.7278 15.0033 30.7138H14.9613C14.9333 30.7185 14.98 30.7231 14.8073 30.7231L14.07 30.7419C13.5753 30.7513 13.0853 30.7653 12.6 30.7747C11.6293 30.7935 10.682 30.7935 9.8 30.7372C9.62733 30.6763 9.114 30.7138 8.97867 30.6481C8.40467 30.7606 7.798 30.756 7.224 30.7466L7.24733 30.7372L6.97667 30.756C6.97667 30.756 6.96267 30.7372 6.972 30.7325C6.66867 30.8122 6.188 30.7325 5.81467 30.6997L5.838 30.6903C5.07267 30.6856 4.326 30.6997 3.584 30.7231C3.416 30.7278 3.248 30.7325 3.07533 30.7372L2.98667 30.7513C2.92133 30.7606 2.84667 30.7653 2.77667 30.7653C2.80933 30.7185 2.84667 30.6716 2.88867 30.6294M47.0307 32.0405L47.0447 32.1202C47.2687 32.0171 47.334 32.1437 47.4927 32.1812L47.4227 32.078L47.7167 32.1015C48.0387 32.1343 47.9127 32.2328 47.866 32.2843L48.0853 32.2046L48.1273 32.2937C48.286 32.1859 48.286 32.3125 48.566 32.2562C48.5893 32.289 48.5193 32.3078 48.6127 32.3265L49.0747 32.1999L48.7947 32.2562L48.8273 32.1249C49.1167 32.0265 49.2193 32.139 49.4293 32.1015L49.2847 32.139C49.6253 32.1062 49.6393 32.1624 49.8353 32.1906C49.7747 32.1671 49.686 32.1296 49.8213 32.1109C49.924 32.1015 49.8773 32.1577 49.9707 32.1718C49.994 32.0827 50.2367 32.0358 50.456 32.078C50.456 32.0921 50.4467 32.1015 50.4327 32.1109C50.4887 32.0968 50.5167 32.0734 50.6147 32.0968L50.5587 32.1952L50.7453 32.1015C50.8713 32.1296 51.0533 32.0593 51.0393 32.1249L50.9693 32.1437L51.9213 32.1671L51.9353 32.2468C52.0287 32.139 52.4533 32.289 52.4207 32.1531C52.598 32.2281 53.1253 32.1015 53.0227 32.2515C53.1767 32.2515 53.3167 32.2515 53.4473 32.2374C53.5127 32.2328 53.578 32.2234 53.6387 32.2187L53.732 32.2093H53.7787L53.8627 32.1999C54.334 32.1718 54.7867 32.1577 55.5053 32.1952C55.818 32.2609 56.336 32.2796 56.8867 32.289C57.428 32.289 58.0207 32.2937 58.492 32.2984C58.884 32.2843 59.2433 32.2703 59.5327 32.2609C59.5047 32.2421 59.4767 32.2281 59.444 32.2093C59.7753 32.214 60.102 32.2281 60.424 32.2374C60.7087 32.2984 61.586 32.2609 61.81 32.3265C62.776 32.214 63.8027 32.2187 64.7687 32.2281L64.7313 32.2374L65.1887 32.2187C65.1887 32.2187 65.212 32.2374 65.198 32.2421C65.3287 32.2234 65.4733 32.2093 65.632 32.2093C65.7113 32.2093 65.7953 32.2093 65.8747 32.2093C65.9913 32.2093 66.1127 32.214 66.234 32.2187C66.8873 32.2374 67.578 32.2609 68.1753 32.2749L68.1193 32.2843C68.7493 32.2843 69.3793 32.2843 70 32.2843C69.44 31.7217 68.8847 31.1638 68.334 30.6106C67.8627 30.1371 67.3913 29.6683 66.92 29.2042C66.3413 28.6369 65.7673 28.0696 65.1933 27.507C64.0453 26.3725 62.9113 25.2285 61.782 24.0049C61.6233 23.8174 61.46 23.6298 61.2873 23.4423C61.1987 23.3485 61.11 23.2548 61.0213 23.161C60.858 22.9969 60.6947 22.8281 60.5313 22.6594C59.7613 22.6078 59.598 22.6031 59.2293 22.5844C58.8933 22.5656 58.5527 22.5515 58.212 22.5328C57.526 22.4953 56.8307 22.4484 56.1447 22.3546C56.0793 22.3312 55.8833 22.3078 55.6127 22.2843C55.384 22.2609 54.8147 22.2234 54.978 22.2327C54.6467 21.8436 54.2687 21.4029 53.9607 21.0419C53.5733 20.5965 53.27 20.2543 53.1907 20.1793L53.4007 20.6012C52.4253 19.5042 52.0707 18.9041 51.2027 17.9946L51.2633 18.0321C51.1653 17.8727 50.9087 17.9524 49.8493 16.2037L49.8587 16.1943C49.812 16.1427 49.7933 16.1568 49.728 16.0302L49.9007 16.3443C49.7467 16.199 49.588 16.0958 49.406 15.8849C49.378 15.8333 49.3827 15.8005 49.392 15.7864L48.9393 15.2707L48.86 15.0644C48.6967 14.9285 48.6407 15.0972 48.3467 14.6144C48.3887 14.7925 48.2347 14.5956 48.16 14.5347C48.1367 14.5159 48.1227 14.5065 48.1227 14.53C48.1227 14.5159 48.1087 14.4878 48.0993 14.4643C48.09 14.4409 48.0807 14.4128 48.0713 14.3893C48.0013 14.3143 47.9127 14.2159 47.8193 14.1127L47.852 14.0846L47.6327 13.7798L47.4647 13.4048C47.1613 13.0766 46.8533 12.7437 46.5547 12.4156C46.256 12.0874 45.962 11.7592 45.668 11.4357L45.7147 11.4732L45.2107 10.9482C45.1967 10.92 45.2013 10.9106 45.22 10.9247C44.6087 10.3715 43.7967 9.36353 43.1433 8.59466L43.19 8.63216C42.0047 7.32414 40.8333 6.05363 39.6713 4.80187C39.088 4.17365 38.5093 3.55011 37.9307 2.92658C37.9027 2.89845 37.8747 2.86563 37.8467 2.8375C37.7627 2.79062 37.6833 2.72498 37.632 2.64059C37.5293 2.47651 37.1747 2.2374 36.806 2.00768C36.5213 1.82953 36.232 1.65606 36.0313 1.52479C35.952 1.47322 35.8867 1.42634 35.8447 1.39352C35.6487 1.23412 35.266 1.07003 35.0373 0.980957C35.014 1.11692 34.986 1.25756 34.9627 1.39352L33.6327 1.60918L30.1607 3.26882L27.3047 4.39399L20.5193 7.51636L20.076 7.83047C20.034 7.84454 19.9873 7.8586 19.9453 7.87267C19.8287 8.03207 19.7307 8.14927 19.6653 8.1774C19.4227 8.2993 18.816 8.42119 18.816 8.42119L18.1813 8.66498L17.6073 9.11974L17.2433 9.51355C17.2433 9.51355 16.8513 9.60263 16.8187 9.72921C16.8047 9.78078 16.7673 9.82766 16.73 9.86517C16.7487 9.92143 16.7673 9.98237 16.786 10.0386L16.3147 10.4606L15.456 12.5797L14.5787 14.183L12.8147 18.2524L12.782 18.5853C12.2593 19.3073 11.9933 20.4137 11.494 21.2154L11.5687 21.2717C11.466 21.5154 11.424 21.4779 11.382 21.5295C11.1067 22.1718 10.8267 22.8141 10.5467 23.4564C10.654 23.6205 10.7613 23.7845 10.8687 23.9486C10.752 23.9627 10.6447 23.9768 10.584 23.9768C10.8453 23.8736 10.6447 23.9299 10.5793 23.9252V23.958C10.416 24.0096 10.3833 23.9533 10.304 23.9768C10.304 23.9768 10.3133 23.9861 10.318 23.9908V23.9768C10.318 23.9768 10.3367 23.9908 10.332 24.0049C10.3413 24.0143 10.3367 24.0283 10.2947 24.0471V24.0377C10.2433 24.0799 10.1313 24.1221 10.08 24.1455L10.052 24.0987C9.99133 24.2487 9.24467 24.3378 9.09533 24.4081C8.918 24.4221 8.77333 24.5956 8.57267 24.6566C8.26933 24.7925 8.39067 24.6566 8.218 24.6941C8.01733 24.7597 8.28333 24.7316 8.21333 24.7738L7.95667 24.8207C8.08267 24.7503 7.99867 24.755 7.966 24.7503C7.77 24.8394 7.42467 24.905 7.41533 25.0316C7.13533 25.116 7.112 25.0785 7 25.1301C7.04667 25.1301 7.126 25.1066 7.14 25.1301C7.014 25.1395 7.098 25.1676 7.14 25.1535C7.00467 25.2754 6.23467 25.3973 6.25333 25.5192L6.244 25.5004C6.24867 25.5989 6.34667 25.6458 6.258 25.7489H6.16467L6.07133 25.8427C5.98267 25.8568 6.01067 25.8146 6.006 25.8052C5.84267 25.9364 5.572 26.0208 5.348 26.1193L5.68867 26.2177C5.47867 26.2599 5.096 26.3303 5.096 26.4193L4.94667 26.4006C4.89067 26.41 4.858 26.41 4.81133 26.424C4.76467 26.4381 4.72733 26.4522 4.69467 26.4662C4.634 26.4944 4.60133 26.5225 4.58733 26.5459C4.56867 26.6209 4.60133 26.6631 4.51733 26.7381C4.51733 26.7381 4.50333 26.7475 4.48 26.7616C4.47067 26.771 4.45667 26.7803 4.44267 26.7897C4.42867 26.7944 4.41933 26.8038 4.40533 26.8132C4.354 26.8413 4.30733 26.8694 4.30733 26.8694L4.44733 26.6819C4.424 26.7053 4.40067 26.7288 4.37733 26.7522C4.35867 26.7663 4.34467 26.7803 4.326 26.7944C4.29333 26.8178 4.26533 26.8413 4.23733 26.8647C4.18133 26.9069 4.12533 26.9444 4.05533 26.996C4.05533 26.996 4.074 26.9866 4.07867 26.9913L4.06467 27.0147C4.088 27.0616 4.046 27.1648 3.95733 27.282C3.82667 27.4414 3.78467 27.6148 3.514 27.8258L3.53733 27.9477L3.346 28.1165L3.28533 28.0743C3.43 27.8821 3.67733 27.4929 3.85933 27.2351L3.836 27.2117C3.72867 27.3617 3.63067 27.5539 3.55133 27.6477C3.50467 27.6898 3.35067 27.7649 3.37867 27.6477L3.36933 27.7836C3.01 28.2899 3.01 28.2946 2.56667 28.7681L2.62733 28.7447C2.57133 28.8619 2.51067 28.9791 2.44067 28.9697C2.31933 29.1245 2.19333 29.2745 2.06733 29.4057C2.002 29.4714 1.94133 29.5323 1.88067 29.5886C1.85267 29.6167 1.82 29.6402 1.792 29.6636C1.78267 29.6683 1.75 29.7011 1.73133 29.7199C1.708 29.7433 1.68467 29.7621 1.66133 29.7855C1.66133 29.7855 1.66133 29.8183 1.67067 29.8464C1.67067 29.8746 1.68 29.9074 1.68 29.9074C1.596 30.0199 1.32533 30.1699 1.40933 30.259L1.26933 30.5169C1.14333 30.6809 1.13867 30.77 0.938 30.9576C0.938 30.9576 0.914667 30.981 0.900667 30.9951C0.900667 30.9951 0.91 30.9951 0.914667 30.9951C0.592667 31.3701 1.03133 30.9669 0.658 31.3936C0.462 31.5623 0.732667 31.4779 0.564667 31.6749L0.200667 31.9702C0.107333 32.0734 0.042 32.1484 0 32.214C0.266 32.214 0.555333 32.139 1.036 32.139C1.274 32.1812 1.33933 32.289 0.994 32.3828C1.22267 32.3265 1.274 32.3078 1.33467 32.2984C1.39533 32.289 1.46067 32.2843 1.68467 32.2562C1.708 32.3031 1.65667 32.3125 1.526 32.3546C1.85733 32.4109 1.792 32.3125 2.06267 32.3171C2.198 32.2281 2.352 32.0874 2.43133 32.0827L2.352 32.0546C2.48733 32.0312 2.618 32.0124 2.74867 32.0077C2.814 32.0077 2.87933 32.0077 2.94933 32.0077C3.01 32.0077 3.09867 32.0171 3.13133 32.0265V32.0687L3.31333 32.0452L3.32733 32.1015L3.598 32.0827L3.56067 32.0687C3.626 32.0593 3.83133 32.0405 3.948 32.0687V32.1015C4.27933 32.1999 4.55467 32.0734 4.94667 32.0593L4.89533 32.1249C5.03067 32.1906 4.93267 32.0265 5.09133 32.0593L5.10067 32.139C5.24067 32.0358 5.28267 32.1624 5.38067 32.1999L5.334 32.0968L5.516 32.1202C5.71667 32.1531 5.63733 32.2515 5.60933 32.3031L5.74467 32.2234L5.77267 32.3125C5.87067 32.2046 5.87067 32.3312 6.048 32.2749C6.062 32.3078 6.02 32.3265 6.076 32.3453L6.36533 32.2187L6.19267 32.2749L6.216 32.1437C6.398 32.0452 6.46333 32.1577 6.58933 32.1202L6.50067 32.1577C6.71067 32.1249 6.72467 32.1812 6.84133 32.2093C6.804 32.1859 6.748 32.1484 6.832 32.1296C6.89267 32.1202 6.86467 32.1765 6.92533 32.1906C6.93933 32.1015 7.08867 32.0546 7.22867 32.0968C7.22867 32.1109 7.224 32.1202 7.21467 32.1296C7.24733 32.1155 7.266 32.0921 7.32667 32.1155L7.28933 32.214L7.406 32.1202C7.48533 32.1484 7.59733 32.078 7.588 32.1437L7.54133 32.1624L8.134 32.1859L8.14333 32.2656C8.204 32.1577 8.46533 32.3078 8.44667 32.1718C8.55867 32.2468 8.88533 32.1202 8.82 32.2703C9.20733 32.2796 9.41733 32.1343 9.89333 32.2093C10.0613 32.3406 10.5233 32.2984 10.8267 32.3125C11.4193 32.2562 11.8067 32.2093 12.4087 32.1671C12.7727 32.3453 13.3187 32.1062 13.7107 32.2046L13.818 32.1343C14.0793 32.2468 14.476 32.1109 14.8447 32.2187C14.868 32.2093 14.8867 32.2046 14.9053 32.1999C14.924 32.1952 14.9333 32.1906 14.9613 32.1859C15.008 32.1812 15.036 32.1765 15.0547 32.1765C15.0267 32.1765 14.98 32.1577 14.966 32.1155C15.148 32.1484 15.498 32.1062 15.5073 32.1999L15.4607 32.2093C15.4607 32.2562 15.6053 32.2421 15.7733 32.2328C15.89 32.2234 16.0113 32.2187 16.1233 32.2234L16.1513 32.2656C16.1653 32.2984 16.1653 32.3218 16.1513 32.3171C16.24 32.4203 16.6367 32.2374 17.0007 32.1155C17.206 32.1015 17.4067 32.1015 17.612 32.1109C17.626 32.078 17.6353 32.0499 17.64 32.0218L18.9233 32.2937L23.8093 32.2093L27.7107 32.3593L37.2073 32.3078L37.884 32.1999C38.528 32.2656 39.2373 32.2796 39.9747 32.2796C40.5113 32.2796 41.0573 32.2749 41.6033 32.2703C41.6267 32.3031 41.6453 32.3265 41.6593 32.3359C41.9113 32.2843 41.86 32.2984 42.266 32.2656C42.3127 32.2656 42.3593 32.2656 42.406 32.2656C42.4667 32.3031 42.4013 32.3171 42.2473 32.3546C42.5413 32.3828 42.6393 32.3687 42.714 32.3546C42.7327 32.3546 42.7513 32.3453 42.77 32.3406C42.7887 32.3406 42.8167 32.3312 42.8213 32.3265C42.8493 32.3171 42.882 32.3125 42.9427 32.3125C42.9567 32.2937 42.9707 32.2796 42.98 32.2609C43.092 32.2609 43.1993 32.2609 43.3113 32.2609L44.6087 32.0921L44.8187 32.064C44.94 32.064 45.08 32.064 45.178 32.078V32.1109C45.71 32.2093 46.1533 32.0827 46.7833 32.0687L46.6993 32.1343C46.914 32.1999 46.76 32.0358 47.012 32.0687" fill="#2E2D2A"/>
<path d="M18.2654 10.2733C18.2654 10.2733 18.2747 10.3015 18.2794 10.3155C18.2887 10.2874 18.2981 10.2874 18.3167 10.3483C18.3167 10.3765 18.3214 10.4046 18.3214 10.4327C18.3447 10.4984 18.3681 10.564 18.3914 10.6296C18.3961 10.6249 18.4054 10.6109 18.4101 10.5874C18.4194 10.6624 18.4287 10.7234 18.4427 10.7656C18.4521 10.7937 18.4661 10.8218 18.4754 10.8547C18.5314 10.9578 18.6061 10.9391 18.6621 11.0281L18.6434 11.1969L18.7881 11.6001L18.8114 11.5204C18.8114 11.5626 18.8207 11.6142 18.8347 11.6704C18.8767 11.8298 18.9607 12.0314 19.0167 12.1861L19.0027 11.9283C19.0027 12.0361 19.0261 12.0314 19.0447 12.0783H19.0354C19.0447 12.1721 19.0541 12.2518 19.0634 12.3315C19.0681 12.3549 19.0727 12.3737 19.0727 12.3877C19.1054 12.6174 19.1381 12.8003 19.1707 12.955C19.1801 12.9269 19.1801 12.894 19.1707 12.8706C19.1707 12.8519 19.1614 12.8425 19.1614 12.8378C19.1614 12.8378 19.1661 12.8519 19.1707 12.8706C19.1847 12.9128 19.2267 13.0019 19.3154 13.1753C19.3387 13.3254 19.3761 13.4754 19.4181 13.6254C19.4507 13.6723 19.4741 13.7004 19.4787 13.7379L19.4414 13.6957C19.7214 14.3521 19.8194 14.8115 20.0154 15.4398L20.0341 15.4679C20.0387 15.5054 20.0481 15.5382 20.0574 15.5757C20.1087 15.7351 20.1694 15.9039 20.2394 16.0914V15.7351C20.3607 15.9695 21.3174 18.7356 21.3127 19.0169C21.3501 19.1903 21.3967 19.3591 21.4434 19.5326L21.4807 19.6592L21.5321 19.8233L21.6814 20.3015C21.5974 20.5171 21.5181 20.7328 21.4341 20.9438C21.3874 21.0703 21.3407 21.1969 21.2941 21.3235C21.2054 21.5767 21.1121 21.8251 21.0234 22.0736C20.8414 22.5659 20.6547 23.0347 20.4307 23.4613C20.2207 23.9395 20.0247 24.413 19.8381 24.8912C19.7587 25.1538 19.6841 25.4163 19.5581 25.7304C19.5487 25.707 19.5347 25.6976 19.5254 25.7023C19.3574 26.143 19.1941 26.5837 19.0307 27.0244C19.0307 27.0431 19.0307 27.0572 19.0354 27.0713H19.0121C18.9981 27.1041 18.9841 27.1416 18.9747 27.1744C18.8161 27.6104 18.6574 28.0464 18.4987 28.4824C18.4987 28.4777 18.5081 28.4731 18.5127 28.4684C18.5734 28.398 18.6434 28.3043 18.6434 28.3043C18.5314 28.4637 18.5501 28.4309 18.4847 28.5246C18.5407 28.459 18.5034 28.5059 18.4754 28.5528C18.4754 28.5528 18.4707 28.5621 18.4661 28.5715V28.5809C18.4661 28.5809 18.4941 28.5387 18.5267 28.4918C18.5361 28.4777 18.5501 28.459 18.5594 28.4402L18.4567 28.595C18.4567 28.595 18.4567 28.609 18.4521 28.6137C18.4521 28.6137 18.4521 28.6137 18.4521 28.609L18.5547 28.4543C18.5267 28.5012 18.4847 28.5621 18.4427 28.6278L18.4241 28.684C18.4427 28.6559 18.4614 28.6231 18.4941 28.5856L18.7834 28.4074L19.5627 27.6432C19.5347 27.6339 19.5534 27.601 19.5814 27.6245L19.5627 27.6432C19.5627 27.6432 19.6187 27.6432 19.6981 27.587C20.0154 27.2776 20.1927 27.0385 20.4121 26.79L19.9641 27.1228C20.1461 26.9916 20.1321 26.9775 20.2114 26.8978L20.2207 26.9072C20.4914 26.6962 20.7294 26.504 20.9441 26.3305C20.9441 26.279 20.9441 26.2321 20.9441 26.1852C20.9347 26.1899 20.9347 26.1946 20.9254 26.204L20.9534 26.1149C20.9534 26.1149 20.9487 26.1571 20.9487 26.1852C21.1727 25.9789 20.9954 26.0117 21.3267 25.7773C21.2801 25.8758 21.2521 25.918 21.3361 25.9039C21.6301 25.5523 21.5227 25.707 21.6907 25.3882C21.5741 25.6273 21.7794 25.5804 22.0827 25.3507C22.6521 24.8115 22.6334 24.6568 23.0721 24.3427C23.7207 23.6817 24.2621 23.18 24.8407 22.6456L24.8734 22.6081C24.8547 22.4721 25.1021 22.3877 25.2374 22.2799C25.2467 22.2705 25.2514 22.2658 25.2607 22.2565L25.2841 22.1158C25.4614 21.9986 25.6714 21.8392 25.8954 21.6611C26.1754 21.3985 26.4741 21.1078 26.8007 20.7844L26.1987 21.2063C26.5721 20.7937 31.0847 16.429 31.5607 16.1008L32.0274 15.6882L32.2607 15.482C32.2887 15.4585 32.2794 15.4679 32.2841 15.4632H32.2887L32.3027 15.4538L32.3121 15.4351L32.3541 15.2194L32.4474 14.7225C32.5081 14.3896 32.5641 14.0614 32.6247 13.7332C32.7367 13.0769 32.8534 12.4252 32.9607 11.7829C33.1847 10.4984 33.4087 9.26066 33.6794 8.12142C33.9127 6.98218 34.1321 5.857 34.3421 4.73651C34.4914 3.92545 34.6361 3.12376 34.7807 2.31738L34.3701 2.65025L34.4027 2.61274C33.6327 2.86122 33.0587 3.3066 32.3401 3.52226V3.53632C32.2701 3.41443 31.1034 4.21143 30.8701 4.1833C30.3334 4.36614 30.0254 4.63806 29.6661 4.82559C29.7034 4.78808 29.3721 4.83497 29.0781 5.03187C28.9521 5.09282 28.6301 5.41162 28.2801 5.50538C27.9301 5.59915 27.4121 5.88044 26.9781 6.06797H27.0667C25.3494 6.78996 23.4781 7.75574 21.9661 8.31833C22.2227 8.06516 21.5927 8.6465 21.8681 8.36052L21.2987 8.59962C21.2987 8.59962 21.2847 8.62306 21.2847 8.62775C21.3734 8.57149 21.4714 8.53399 21.5741 8.51523C21.5787 8.51523 21.5881 8.50586 21.5881 8.50586H21.6161C21.6161 8.50586 21.5834 8.51054 21.5694 8.51523C21.5414 8.53399 21.4714 8.57149 21.4901 8.57618C21.5041 8.57618 21.5134 8.57149 21.5227 8.57149C21.5134 8.57149 21.5041 8.57149 21.4901 8.57618C21.4201 8.59493 21.2894 8.65119 21.2801 8.63244C20.9721 8.81059 20.7107 9.1247 20.2581 9.17159C20.1927 9.07313 19.7447 9.45288 19.9081 9.26535C19.4834 9.51852 19.1101 9.70605 18.7554 9.86076C18.6667 9.89826 18.5781 9.93577 18.4941 9.97327L18.4381 9.99672H18.4194L18.3821 10.0155C18.3261 10.0342 18.2701 10.053 18.2094 10.0717C18.2187 10.1092 18.2281 10.1514 18.2374 10.1983C18.2421 10.2218 18.2514 10.2452 18.2607 10.2686" fill="#84AEB6"/>
<path d="M46.5549 24.3797C46.6389 24.436 46.7135 24.4876 46.7929 24.5391C46.8349 24.5485 46.8535 24.5532 46.8162 24.5532C46.8675 24.586 46.9142 24.6235 46.9655 24.6563L46.9562 24.6329C46.9562 24.6329 46.9702 24.6516 46.9795 24.661C47.0029 24.6704 47.0589 24.6985 47.0542 24.6798C47.0542 24.6798 47.0495 24.6704 47.0402 24.661C47.0495 24.6704 47.0542 24.6751 47.0542 24.6798C47.0962 24.7173 47.1849 24.7782 47.1709 24.797C47.4182 24.9048 47.7495 24.9001 47.9502 25.2002C47.9502 25.2002 47.9502 25.2049 47.9502 25.2095C48.1509 25.2705 48.3655 25.3361 48.5149 25.5471C48.5149 25.5518 48.5149 25.5565 48.5149 25.5612C48.8135 25.7112 49.0609 25.8706 49.2989 26.03C49.7235 26.2644 50.0502 26.5082 50.4095 26.752C50.5915 26.8504 50.7875 26.9489 51.0162 27.0473L50.9322 27.0192L51.1935 27.202L51.1562 27.0661C51.2729 27.2302 51.8002 27.399 51.7302 27.4646L51.6882 27.4505C51.6882 27.4505 51.6789 27.4646 51.6789 27.474C51.6975 27.4787 51.7115 27.488 51.7255 27.4974L51.6789 27.4787C51.6789 27.4787 51.6835 27.4927 51.6882 27.4974L51.9169 27.6568L51.8749 27.5162C52.0009 27.6896 52.5469 27.8725 52.4769 27.9334L52.4349 27.9193C52.4349 27.9193 52.4349 27.924 52.4349 27.9287C52.5515 28.0178 52.6729 28.0975 52.7942 28.1678C52.7942 28.1678 52.7895 28.1631 52.7849 28.1631C52.8175 28.1772 52.8875 28.2147 53.0322 28.2663C53.2422 28.4538 53.4849 28.6038 53.7182 28.7445L53.7929 28.7585C53.9142 28.8617 54.0589 28.9601 54.2129 29.0492C54.2922 29.0961 54.3715 29.1383 54.4555 29.1805L54.5769 29.2461L54.6095 29.2649L54.6655 29.2977L54.7775 29.3586C55.1369 29.5649 55.5102 29.7806 55.8135 29.9869C56.0749 30.1322 56.3129 30.2869 56.4809 30.4697C56.6255 30.5541 56.7655 30.6338 56.9009 30.7135C57.0362 30.7885 57.0129 30.7698 57.0455 30.7792L57.0922 30.7651C57.1622 30.7651 57.2369 30.7557 57.3069 30.751C57.4562 30.7417 57.6009 30.7323 57.7502 30.7276C58.0489 30.7088 58.3522 30.6948 58.7022 30.6713C59.2155 30.6854 59.9949 30.6432 60.2795 30.7745C61.0775 30.8495 61.4322 30.7042 62.0902 30.7135C61.9782 30.8682 62.5335 30.7417 62.7202 30.812C62.6875 30.676 63.1309 30.8261 63.2335 30.7182L63.2475 30.7979L64.2462 30.8214L64.1715 30.8401C64.1529 30.9058 64.3489 30.8354 64.4795 30.8636L64.6755 30.7698L64.6149 30.8682C64.7175 30.8917 64.7502 30.8682 64.8062 30.8542C64.8249 30.8542 64.8389 30.8448 64.8622 30.8448C64.8389 30.8448 64.8202 30.8495 64.8062 30.8542C64.7922 30.8636 64.7875 30.8729 64.7829 30.887C65.0162 30.9292 65.2682 30.8823 65.2962 30.7932C65.3942 30.8073 65.3475 30.8636 65.4549 30.8542C65.5995 30.8354 65.5015 30.7979 65.4409 30.7745C65.6415 30.8026 65.6649 30.8589 66.0102 30.8261C66.0195 30.8261 65.9775 30.8354 65.9402 30.8448C65.9029 30.8542 65.8655 30.8636 65.8655 30.8636C65.9169 30.8542 65.9729 30.8542 66.0102 30.8589C66.0242 30.8589 66.0382 30.8729 66.0522 30.8776C66.0802 30.887 66.1269 30.8917 66.1455 30.8401L66.1129 30.7745C66.0942 30.7417 66.0755 30.7088 66.0755 30.7088C66.0802 30.7088 66.0569 30.7651 66.0522 30.7651C66.0522 30.7651 66.0662 30.7323 66.0662 30.6995C66.0662 30.6667 66.0429 30.6338 66.0429 30.6338C66.0615 30.6479 66.0755 30.6667 66.1035 30.7042C66.0942 30.676 66.1129 30.6901 66.1362 30.7042C66.1549 30.7135 66.1689 30.7182 66.1035 30.6667L66.2389 30.7557C66.2389 30.7557 66.1455 30.676 66.1409 30.676C66.2389 30.7276 66.3415 30.8261 66.5049 30.8589L66.6449 30.8823L66.3975 30.7792C66.4769 30.8073 66.5609 30.8354 66.6309 30.8589C66.6775 30.8729 66.6729 30.8542 66.5329 30.7885L66.7009 30.8448C66.6962 30.7932 66.4115 30.7323 66.4909 30.7229L66.6355 30.7792C66.5375 30.6901 66.4115 30.6104 66.3322 30.5588C66.2902 30.5307 66.2575 30.5119 66.2342 30.4838C66.2202 30.4697 66.2109 30.4557 66.2015 30.4369L66.1922 30.4229V30.4135L66.1735 30.3947C66.1549 30.3666 66.1315 30.3385 66.1129 30.3103L66.1409 30.2916C66.0195 30.1275 65.7582 29.8931 65.6789 29.8228L65.7115 29.879L65.3802 29.5696L65.4082 29.5133L65.1702 29.3024L65.2075 29.2789C65.0255 29.0351 64.8155 28.8476 64.6009 28.6976L64.6475 28.782C64.5869 28.7304 64.4329 28.7726 64.3209 28.782C64.3255 28.7867 64.3302 28.7914 64.3349 28.796L64.2602 28.782C64.2602 28.782 64.2975 28.782 64.3209 28.782C64.1529 28.6085 64.1715 28.7632 63.9802 28.496C64.0642 28.5241 64.1015 28.5429 64.0922 28.4726C63.7982 28.2522 63.9289 28.3319 63.6582 28.2147C63.8635 28.2897 63.8355 28.1116 63.6582 27.8678C63.2195 27.4224 63.0795 27.4552 62.8229 27.0989L62.7435 26.8411C62.5895 26.6582 62.4589 26.766 62.3889 26.6113C62.0809 26.2269 62.3002 26.616 62.0295 26.2832V26.2878C62.0295 26.2925 62.0342 26.2972 62.0389 26.3066C62.0109 26.3019 62.0202 26.2972 62.0295 26.2878C62.0202 26.2738 62.0155 26.2644 62.0062 26.2503C61.8895 26.0628 61.7729 26.0159 61.6469 25.8753L61.4135 25.6924C61.2829 25.7299 61.2269 25.4908 61.1335 25.3877H61.0075C60.8909 25.2002 60.7229 24.9751 60.5222 24.7407C60.4242 24.6235 60.3169 24.5016 60.2095 24.3844C60.1535 24.3235 60.0975 24.2625 60.0462 24.2016L59.9622 24.1125L59.9342 24.0797C59.9342 24.0797 59.9249 24.0984 59.9155 24.1078L59.9342 24.075C59.9482 24.0469 59.9342 24.0187 59.9062 23.9953C59.8782 23.9953 59.8455 24.0047 59.8129 24.0094L59.8315 24.0469L59.8082 24.0375H59.7942L59.7475 24.0281C59.6869 24.0187 59.6309 24.0094 59.5795 24.0047C59.4722 23.9906 59.3789 23.9765 59.2949 23.9672C59.1269 23.9437 58.9915 23.9297 58.8562 23.9156C58.5902 23.8875 58.3289 23.8734 57.8062 23.8453L57.6522 23.8921C57.7455 23.85 57.5355 23.7749 57.4469 23.7562C57.2415 23.7374 56.8869 23.7421 56.5742 23.7234L56.5882 23.6906C56.3409 23.6765 56.1495 23.6577 56.0795 23.639C55.8042 23.564 55.6689 23.5265 55.3235 23.4561L55.6689 23.4796L55.3235 23.3671C55.1882 23.3342 55.1649 23.3764 55.0949 23.4046C55.0575 23.4186 55.0109 23.428 54.9269 23.4186C54.8942 23.4186 54.8149 23.4046 54.7355 23.3905C54.6515 23.3764 54.5582 23.3577 54.4509 23.3296L54.4089 23.3108L54.3062 23.0858C54.2782 23.0858 54.2315 23.0389 54.1755 22.9686C54.1615 22.9498 54.1475 22.9311 54.1289 22.9076C54.1149 22.8889 54.1055 22.8748 54.0915 22.8514C54.0682 22.8139 54.0355 22.7717 54.0075 22.7248C53.8955 22.5466 53.7695 22.331 53.6809 22.1763L53.7742 22.6685L53.7882 22.6873V22.7763L53.7742 22.6685C53.5175 22.3403 53.2515 21.9418 53.0042 21.7074C53.0135 21.7027 53.0742 21.7402 53.0042 21.6137L52.8409 21.4777L52.7849 21.3464C52.6122 21.2152 52.6169 21.3605 52.5049 21.3652L52.5235 21.3511C52.3929 21.3793 51.7815 20.2588 51.5529 20.0572C51.5949 20.1275 51.6135 20.2447 51.5249 20.0572C51.5062 20.0712 51.5855 20.1931 51.6135 20.2588C51.4829 20.0947 51.5155 20.0665 51.2449 19.654C51.0909 19.6399 50.8015 19.1336 50.5775 18.8476C50.5869 18.8851 50.5729 18.8804 50.4329 18.6929C50.4749 18.7257 50.5262 18.782 50.5775 18.8476C50.5635 18.8007 50.5075 18.6788 50.6662 18.8617L50.4562 18.4913C50.3629 18.3882 50.5589 18.7726 50.3582 18.4819C50.2135 18.2381 50.4422 18.4116 50.0969 17.9709C49.9009 17.6802 49.6115 17.4693 49.4855 17.2067C49.3082 16.9911 48.7529 15.9034 48.5382 15.8096L48.5802 15.7721C48.5289 15.7018 48.4075 15.5377 48.3235 15.4533L48.2582 15.4252C48.2582 15.4252 48.2535 15.4393 48.2489 15.4439C48.1742 15.322 48.2255 15.2799 48.0622 15.0501H48.0249C48.0342 15.0736 48.0249 15.0829 47.9782 15.0314L48.0249 15.0408C47.9922 14.947 47.8055 14.6563 48.0809 15.0361C48.0155 14.872 47.8289 14.5297 47.6515 14.2109L47.2549 14.5579L47.1382 14.6563L47.2409 15.1627L47.2269 15.1298C47.2269 15.1392 47.2269 15.1486 47.2222 15.158L47.2362 15.2283L47.2222 15.1908C47.1849 15.3314 47.1615 15.4674 47.1429 15.5987C47.1102 15.8987 47.1055 16.1894 47.0635 16.4754C47.0495 16.5973 47.0309 16.7191 47.0029 16.841C47.0122 16.841 47.0262 16.8457 47.0402 16.8645L47.0029 16.841C46.9935 16.8879 46.9842 16.9348 46.9702 16.9817H46.9795L47.0215 17.0145L46.9795 16.9911C46.9562 16.9911 46.9375 17.0239 46.9235 17.0848C46.9049 17.3427 46.9142 17.7365 46.8675 17.9428C46.8535 18.1022 46.8349 18.2288 46.7929 18.271C46.7835 18.3131 46.7742 18.3553 46.7695 18.3928C46.7509 18.6695 46.7929 18.8992 46.7789 19.1336C46.7882 19.0867 46.7695 19.0914 46.7462 19.1336C46.7462 19.2227 46.7462 19.3117 46.7462 19.3961C46.7602 19.3164 46.7042 19.3821 46.6669 19.518C46.6669 19.5321 46.6669 19.5462 46.6669 19.5649C46.6575 19.6727 46.7695 20.015 46.6762 20.2775V20.2869C46.6762 20.39 46.6762 20.4979 46.6389 20.5963C46.6109 20.676 46.5922 20.7698 46.5735 20.8682C46.5549 21.0323 46.5409 21.1964 46.5175 21.3464L46.5642 21.2902C46.5409 21.4168 46.5222 21.548 46.5035 21.6793L46.5175 21.6652C46.4802 21.895 46.4475 22.1247 46.4149 22.3591C46.3915 22.5419 46.3682 22.7248 46.3449 22.9123C46.3122 23.1842 46.2795 23.4561 46.2469 23.7281C46.2375 23.8218 46.2235 23.9156 46.2142 24.0094C46.2142 24.0234 46.2142 24.0375 46.2095 24.0515C46.2095 24.0797 46.2049 24.1031 46.2002 24.1312C46.2375 24.1547 46.2749 24.1781 46.3075 24.2016C46.3962 24.2578 46.4802 24.3141 46.5642 24.3703" fill="#84AEB6"/>
<path d="M34.4681 12.5843C34.4588 12.7109 34.3841 13.1985 34.2768 13.8408C34.2208 14.1596 34.1601 14.5206 34.0994 14.8956C34.0154 15.3598 33.9314 15.8427 33.8521 16.3068C33.5721 16.5693 33.3014 16.8272 33.0494 17.0663C32.8628 17.2397 32.6854 17.4038 32.5314 17.5492C32.2234 17.8305 31.9948 18.0321 31.9108 18.0836C30.0534 19.6729 28.3968 21.5201 26.7494 22.875C25.3028 24.1736 23.9261 25.4723 22.5681 26.7803C21.2148 28.079 20.5568 28.7447 18.0834 31.1029L18.6154 30.995C18.5828 31.0044 18.5594 31.0138 18.5594 31.0138C19.5814 31.1029 20.4774 30.9341 21.4294 31.0325L21.4388 31.0185C21.4388 31.0185 21.4388 30.995 21.4714 30.9716L21.4388 31.0185C21.4621 31.1591 23.2308 30.9106 23.4828 31.0372C24.2014 31.0935 24.6961 30.9716 25.2141 30.9435C25.1534 30.9622 25.5594 31.056 26.0028 30.9997C26.1801 30.995 26.7214 30.8356 27.1741 30.8966C27.6314 30.9575 28.3781 30.9106 28.9754 30.92L28.8728 30.8825C31.2434 30.9341 33.9128 30.8216 35.9568 30.9294C35.5274 31.056 36.5588 30.7841 36.0921 30.9294L36.8761 30.9435C36.9041 30.9341 36.9088 30.9294 36.9088 30.92C36.7781 30.9294 36.6428 30.9294 36.5121 30.906C36.5028 30.906 36.4888 30.906 36.4888 30.906L36.4561 30.8919C36.4561 30.8919 36.4934 30.9013 36.5121 30.9013C36.5541 30.9013 36.6568 30.8919 36.6381 30.8778C36.6381 30.8778 36.6241 30.8731 36.5961 30.8685C36.6194 30.8685 36.6334 30.8731 36.6381 30.8778C36.7268 30.8919 36.9088 30.8919 36.9088 30.9153C37.3568 30.8778 37.8234 30.6997 38.3741 30.845C38.4021 30.9622 39.1208 30.7981 38.8314 30.906C39.5221 30.8403 40.1008 30.8309 40.6421 30.8356C40.7121 30.8356 40.7774 30.8356 40.8428 30.8356H40.9408L40.9734 30.8403L41.0901 30.8497C41.1461 30.8544 41.2021 30.8591 41.2628 30.8638C41.2581 30.8544 41.2534 30.845 41.2488 30.8403C41.1741 30.7137 41.1181 30.6059 41.0761 30.4043L41.0901 30.2824C41.0901 30.2824 41.0901 30.273 41.0854 30.2684C41.0294 30.1512 40.9734 30.0293 40.9128 29.9074C40.9034 29.8933 40.8941 29.8745 40.8894 29.8558C40.8661 29.8136 40.8474 29.7667 40.8241 29.7245L40.8848 29.837C40.8848 29.837 40.8848 29.8324 40.8848 29.8277L40.7961 29.5839C40.7681 29.5604 40.7588 29.6261 40.6981 29.4339L40.6841 29.5464C40.6561 29.326 40.4321 28.8853 40.3294 28.6322C40.2361 28.5806 40.2734 28.3837 40.2314 28.2712L40.1194 28.2196C40.0961 28.0602 40.0494 27.868 39.9934 27.6617C39.9654 27.6101 39.9374 27.5539 39.9001 27.4882C39.6434 26.5271 39.1208 25.5801 38.9668 24.8816L38.7941 24.6378C38.6541 24.1455 38.4021 23.5923 38.1594 23.0438C38.0381 22.7672 37.9168 22.4953 37.8141 22.228C37.7861 22.1483 37.7581 22.0733 37.7301 21.9983C37.6881 21.8811 37.6461 21.7639 37.6041 21.6514C37.5248 21.4217 37.4501 21.206 37.3941 21.0091C37.4548 20.9669 37.5108 20.9247 37.5668 20.8872C37.8234 20.6622 38.0661 20.4512 38.3041 20.2449C38.4441 20.1183 38.5794 20.0011 38.7101 19.8839C38.9714 19.6495 39.2188 19.4245 39.4661 19.2041C39.9561 18.7587 40.4461 18.318 41.0388 17.7789C41.6734 17.2632 42.5974 16.4287 43.0268 16.2365C44.0488 15.4723 44.3894 14.9941 45.1968 14.3284C45.1781 14.4456 45.3181 14.333 45.4954 14.1783C45.5841 14.1033 45.6868 14.0142 45.7801 13.9345C45.8128 13.9111 45.8268 13.9064 45.8594 13.9017C45.7614 13.8501 45.8641 13.8408 45.8968 13.8033C45.8828 13.7892 45.8548 13.7798 45.8174 13.7798L45.9154 13.7704C45.9154 13.7704 45.9014 13.7517 45.8828 13.7283C45.8734 13.7142 45.8594 13.7001 45.8454 13.6814L45.8221 13.6532C45.7941 13.6251 45.7708 13.5923 45.7428 13.5642L45.2154 12.9688L45.3088 13.0438C45.3741 13.0203 45.1174 12.8422 44.9961 12.664L44.7161 12.4952H44.8514C44.7581 12.364 44.7068 12.3452 44.6321 12.2843C44.6134 12.2749 44.5948 12.2561 44.5621 12.2233C44.5901 12.2515 44.6088 12.2702 44.6321 12.2843C44.6554 12.2983 44.6694 12.2937 44.6788 12.2843C44.4594 11.9842 44.1514 11.7123 44.0628 11.7451C43.9648 11.6185 44.0581 11.6373 43.9368 11.5201C43.7688 11.3607 43.8434 11.4967 43.8948 11.5904C43.6988 11.3326 43.7221 11.2716 43.3161 10.8731L43.5074 11.0231C43.2461 10.7887 43.2134 10.5871 42.8121 10.2918L42.6768 10.3387L43.0314 10.6481L42.4154 10.1605C42.3174 10.0339 42.4154 10.1089 42.4154 10.0574C42.0561 9.74794 42.1448 9.66355 41.8881 9.53697L41.9068 9.42445L41.5988 9.20879C41.6921 9.23224 41.9021 9.32131 41.5661 8.89937L41.2534 8.52431V8.68371C41.1134 8.46336 41.1321 8.29928 40.8008 8.0883L40.8428 8.01798C40.5768 7.68043 40.6328 7.98048 40.4368 7.67105L40.5768 7.732C39.8581 6.95844 39.2608 6.4943 38.7288 5.75825L38.7614 5.74419C38.5701 5.48633 38.1781 5.08783 38.0568 4.96594L38.1128 5.05033L37.6134 4.52524L37.6321 4.4643L37.2728 4.1033L37.3194 4.08455C37.1748 3.89233 37.0254 3.71887 36.8668 3.55947C36.7874 3.47977 36.7128 3.40007 36.6334 3.32974L36.5168 3.22191C36.5168 3.22191 36.4701 3.17972 36.4654 3.17972L36.4421 3.16566C36.4421 3.16566 36.4421 3.17972 36.4514 3.19847C36.4514 3.19847 36.4654 3.22191 36.4701 3.23129C36.4794 3.24536 36.4841 3.25004 36.4841 3.25004C36.4748 3.24067 36.4608 3.23129 36.4468 3.22191C36.4328 3.21254 36.4281 3.22191 36.4188 3.22191C36.4001 3.22191 36.3814 3.23598 36.3628 3.24536C36.3208 3.2688 36.2834 3.31099 36.2601 3.3485C36.2601 3.3485 36.2508 3.36256 36.2461 3.37194C36.2414 3.38131 36.2368 3.386 36.2368 3.386C36.2368 3.386 36.2414 3.37663 36.2461 3.37194C36.2508 3.36256 36.2554 3.35787 36.2601 3.3485C36.2368 3.31568 36.2274 3.45164 36.2228 3.36725C36.2228 3.3063 36.2368 3.30161 36.2274 3.2266C36.1994 3.23598 36.1994 3.24067 36.1948 3.25473C36.1948 3.27349 36.1948 3.29693 36.2228 3.40944C36.1854 3.2688 36.1714 3.1469 36.1014 2.99219C36.0874 2.96875 36.0688 2.96406 36.0548 2.97813C36.0268 3.11877 36.0408 3.23129 36.0548 3.29224C36.0594 3.32506 36.0641 3.3485 36.0594 3.37663C36.0594 3.39538 36.0548 3.40944 36.0501 3.4282C36.0454 3.46101 36.0361 3.49383 36.0268 3.52665C36.0081 3.59697 35.9894 3.67199 35.9661 3.75637L35.8728 3.92984C35.8681 4.10799 35.9334 4.13143 35.9288 4.30021L35.8121 4.544L35.6768 5.39257C35.7048 5.38788 35.7094 5.41601 35.6768 5.41132V5.39257H35.6721C35.6628 5.43476 35.6534 5.47696 35.6394 5.5379H35.6488C35.6488 5.5379 35.6534 5.51446 35.6581 5.50509C35.6674 5.54259 35.6581 5.5379 35.6488 5.5379C35.6394 5.55666 35.6348 5.5801 35.6254 5.59885C35.6068 5.6598 35.5881 5.71606 35.5741 5.77232C35.5554 5.97391 35.5554 6.14737 35.5414 6.33022L35.6861 5.91296C35.6254 6.08174 35.6488 6.08174 35.6348 6.17082H35.6254C35.5508 6.4146 35.4808 6.63964 35.4248 6.84592V6.88812C35.5181 7.0147 35.3314 7.31943 35.2894 7.53509L35.3454 7.69918C35.2474 7.99923 35.1448 8.38366 35.0421 8.81029C35.0421 8.89468 35.0421 8.94625 35.0281 9.00251L35.0188 8.91344C34.8228 10.4793 34.5568 11.3044 34.2768 13.1235L34.4868 12.5796L34.4681 12.5843Z" fill="#84AEB6"/>
<path d="M15.0872 30.6295C15.0872 30.6295 15.0732 30.6014 15.0778 30.5826C15.0778 30.5733 15.0778 30.5639 15.0872 30.5498C15.0732 30.5311 15.0592 30.5076 15.0498 30.4889L15.0032 30.4232L14.8678 30.3295L14.3218 29.4997C14.2798 29.4528 14.2425 29.4012 14.2052 29.3543C14.2052 29.3356 14.1912 29.3074 14.1772 29.2793L12.9218 27.3665L12.2685 26.0632C12.2685 26.0632 12.2545 26.0397 12.2452 26.0304L11.2138 24.5629V24.4551C11.1625 24.3848 11.1158 24.3145 11.0692 24.2441C11.0318 24.2535 10.9898 24.2535 10.9525 24.2629C10.9525 24.2629 10.9898 24.2395 11.0458 24.2066H11.0412C11.0132 24.1973 10.9805 24.1973 10.9665 24.1973C11.0272 24.2254 10.7518 24.3192 10.9105 24.3567C10.5792 24.4317 10.6958 24.5442 10.6025 24.6333H10.4578L10.1078 24.8302C10.1218 24.8489 10.1172 24.8677 10.0985 24.8302H10.1078C10.1078 24.8302 10.0752 24.7974 10.0378 24.802C9.89318 24.8864 9.82318 24.9802 9.72518 25.0646L9.93984 25.0318C9.85118 25.0411 9.86518 25.0646 9.82784 25.0833V25.074C8.62384 25.3506 8.67984 25.599 8.57251 25.6272L8.60051 25.585C7.97984 26.0069 7.56918 26.0913 6.82251 26.5367L7.11184 26.5133C7.05118 26.5601 6.74784 26.7383 6.37451 26.9446C6.18784 27.0477 5.98251 27.1602 5.78184 27.2681C5.67918 27.3196 5.58118 27.3712 5.48784 27.4228L5.41784 27.4603L5.39918 27.4697C5.35718 27.5165 5.31984 27.5634 5.29184 27.6056C5.22651 27.6853 5.17518 27.7369 5.15184 27.751C4.37251 28.6136 3.84984 29.6825 3.13584 30.4092L3.06118 30.5029L3.02384 30.5498H3.01918C3.01918 30.5498 3.00051 30.5686 2.98651 30.578C2.96784 30.5967 2.94451 30.6155 2.92584 30.6389C2.88384 30.6811 2.84651 30.7327 2.81384 30.7749C2.88384 30.7749 2.95851 30.7702 3.02384 30.7608L3.11251 30.7467C3.28051 30.7467 3.44851 30.7374 3.62118 30.7327C4.36318 30.7139 5.10984 30.6952 5.87518 30.6999L5.85184 30.7092C6.22518 30.742 6.70584 30.8217 7.00918 30.742C6.99984 30.7467 7.00451 30.7608 7.00918 30.7655L7.27984 30.7467L7.25651 30.7561C7.83051 30.7655 8.43718 30.7702 9.01118 30.6577C9.14651 30.7233 9.66451 30.6858 9.83251 30.7467C10.7145 30.803 11.6618 30.803 12.6325 30.7842C13.1178 30.7749 13.6078 30.7608 14.1025 30.7514L14.8398 30.7327C15.0125 30.7327 14.9658 30.7327 14.9938 30.728H15.0358C15.0358 30.728 15.0918 30.7936 15.1338 30.7889L15.0452 30.6999C15.1058 30.742 15.1665 30.7467 15.1945 30.7467C15.1665 30.7092 15.1198 30.667 15.1012 30.6389" fill="#84AEB6"/>
<path d="M16.9589 12.0218L16.9682 12.0311C16.8375 11.9843 16.7255 12.8375 16.5622 12.8938C16.3709 13.1845 16.3942 13.4564 16.3102 13.6908C16.3569 13.6017 16.1515 13.7424 16.1189 13.9815C16.0909 14.0612 16.1282 14.3518 15.9882 14.5253C15.8482 14.6941 15.7455 15.0316 15.6242 15.2848L15.6802 15.2567C15.1809 16.2459 14.7749 17.432 14.2849 18.2571C14.2522 18.0227 14.2989 18.5712 14.2569 18.3134L14.0935 18.6416C14.0935 18.6416 14.1029 18.6603 14.1075 18.665C14.1215 18.6041 14.1495 18.5478 14.1962 18.5009V18.4915L14.2149 18.4822C14.2149 18.4822 14.2009 18.4962 14.1962 18.5009C14.1915 18.5197 14.1775 18.5665 14.1962 18.5619C14.2009 18.5572 14.2055 18.5525 14.2102 18.5478C14.2055 18.5478 14.2009 18.5572 14.1962 18.5619C14.1682 18.5947 14.1309 18.6697 14.1122 18.6603C14.0609 18.8666 14.1355 19.1385 13.8975 19.312C13.7855 19.2792 13.7995 19.6495 13.7575 19.4808C13.5242 20.4887 13.0435 20.8075 12.8009 21.8811L12.8102 21.8108L12.6935 22.0312L12.8149 21.9983C12.6842 22.1015 12.6329 22.5375 12.5582 22.4812V22.4484C12.4882 22.3921 12.4182 22.6547 12.3342 22.7578C12.3809 22.7672 12.4042 22.7438 12.4182 22.725C12.4229 22.7156 12.4275 22.7109 12.4275 22.7063C12.4275 22.7063 12.4275 22.7156 12.4182 22.725C12.4089 22.7485 12.3949 22.8094 12.3762 22.9219C12.3342 22.9782 12.2969 23.0344 12.2595 23.0954C12.2362 23.1423 12.2129 23.1845 12.1895 23.2267C12.1755 23.2548 12.1662 23.2876 12.1569 23.311C12.1849 23.3486 12.1942 23.3673 12.1755 23.4283L12.3062 23.5033C12.4835 23.9721 13.0575 24.4222 13.1509 24.905C13.5942 25.5239 13.8929 25.9036 14.3409 26.5037C14.5322 26.8319 14.8822 27.3007 14.8869 27.5445C15.1435 28.0837 15.4095 28.229 15.6615 28.6463C15.4889 28.6603 15.8155 28.9369 15.8295 29.0963C15.9275 29.0026 15.9835 29.3636 16.1142 29.3682L16.0535 29.4198C16.0535 29.4198 16.0769 29.4573 16.1142 29.5183C16.1329 29.5511 16.1515 29.5839 16.1749 29.6214L16.1889 29.6495V29.6589C16.2215 29.687 16.2449 29.7152 16.2682 29.7527C16.2729 29.7621 16.2775 29.7761 16.2869 29.7855C16.2962 29.7714 16.3009 29.7621 16.3009 29.7621C16.3009 29.7621 16.2962 29.7761 16.2915 29.7949C16.3149 29.8371 16.3335 29.884 16.3429 29.9308C16.3429 29.9121 16.3429 29.8933 16.3429 29.8746C16.3429 29.884 16.3429 29.9027 16.3429 29.9168C16.3429 29.9074 16.3475 29.898 16.3522 29.8886C16.3522 29.8933 16.3522 29.898 16.3522 29.898C16.3522 29.898 16.3522 29.8886 16.3522 29.884C16.3522 29.8793 16.3522 29.8699 16.3522 29.8652C16.3522 29.8652 16.3522 29.8746 16.3522 29.8793C16.3522 29.8605 16.3662 29.8324 16.3849 29.7855C16.3755 29.8136 16.3662 29.8511 16.3522 29.884C16.3522 29.8886 16.3522 29.8933 16.3522 29.898C16.3569 29.898 16.3709 29.8793 16.3895 29.8464V29.8277C16.3895 29.7996 16.3895 29.7621 16.3895 29.7246C16.3802 29.6589 16.3662 29.6027 16.3662 29.6027C16.3755 29.6214 16.3849 29.6542 16.3989 29.7058C16.3895 29.6495 16.3989 29.673 16.4082 29.6824C16.4175 29.6917 16.4222 29.687 16.3895 29.6214L16.4409 29.7105C16.4269 29.673 16.3989 29.6167 16.3989 29.6167C16.4129 29.6355 16.4269 29.6636 16.4455 29.687L16.7442 28.8713L16.7255 28.9463C16.9122 28.4587 17.1082 27.9665 17.2995 27.4695C17.4115 27.1788 17.5235 26.8882 17.6309 26.5928L17.6449 26.5506C17.6449 26.5506 17.6122 26.5084 17.5982 26.4897C17.5982 26.4944 17.5982 26.499 17.5935 26.5037L17.5655 26.4428C17.5655 26.4428 17.5842 26.4709 17.5982 26.4897C17.6635 26.3209 17.5422 26.3725 17.6775 26.1709C17.6962 26.2412 17.6962 26.2693 17.7522 26.2506C17.7989 25.9787 17.7942 26.0959 17.7615 25.8661C17.7755 25.9365 17.8082 25.9646 17.8502 25.9646C17.9809 25.5848 18.1022 25.2004 18.2095 24.8207C18.3682 24.5816 18.7182 23.5783 18.9095 23.2454L18.8909 23.2126C18.9189 23.1751 18.9515 23.1282 18.9795 23.0813C19.1755 22.6172 19.3669 22.1437 19.5629 21.6608C19.7449 21.2013 19.9315 20.7325 20.1182 20.2543C19.9269 19.6636 19.7309 19.0588 19.5349 18.454C19.3062 17.7695 19.0775 17.0757 18.8489 16.3818C18.3869 14.9894 17.9249 13.5876 17.4629 12.1952C17.4442 12.0827 17.5049 12.0968 17.3649 11.6701H17.2669C17.2529 11.5998 17.2342 11.5342 17.2155 11.4639C17.1502 11.6514 17.0802 11.8342 16.9542 11.9983" fill="#84AEB6"/>
<path d="M51.2495 28.9041C51.2495 28.9041 51.2308 28.8854 51.2262 28.8807C51.1095 28.8103 50.9928 28.74 50.8808 28.6697L50.8575 28.6885C50.7735 28.6228 50.6895 28.5619 50.6008 28.5009C50.5728 28.4822 50.5448 28.4681 50.5168 28.4493C50.5075 28.44 50.5028 28.4353 50.4982 28.4259C50.3955 28.3556 50.2882 28.2853 50.1762 28.2149L50.1435 28.2478C49.9708 28.1118 49.7888 27.9852 49.5928 27.8586C49.1682 27.6055 48.7388 27.357 48.3422 27.0991C47.9922 26.8882 47.6562 26.6819 47.3528 26.4568L47.1428 26.3865L44.6648 24.8675L45.1688 20.77V20.7325L45.2108 20.4325L45.6448 18.1962L45.8875 15.8286C45.8875 15.8286 45.8688 15.8474 45.8595 15.8567C45.6775 15.9599 45.2622 16.3068 44.8608 16.6303L44.9122 16.6022C44.8888 16.6162 44.8702 16.6256 44.8562 16.635C44.8375 16.6491 44.8188 16.6678 44.8002 16.6819C44.7862 16.6959 44.7768 16.71 44.7582 16.7288H44.7535C44.4968 16.9303 44.2588 17.1179 44.1142 17.2116C43.5775 17.6383 43.0362 18.0837 42.4902 18.5337C42.2568 18.7353 42.0375 18.9135 41.8042 19.101C41.6782 19.2041 41.5522 19.312 41.4262 19.4151C41.2068 19.598 40.9828 19.7855 40.7635 19.973C40.7122 20.0199 40.6562 20.0668 40.6002 20.1184L41.0062 19.9214C40.9362 20.0011 40.6048 20.2965 40.1755 20.6763C39.9608 20.8638 39.7228 21.0701 39.4802 21.281C39.3028 21.4311 39.2515 21.4779 39.2375 21.492C39.2515 21.5248 39.2608 21.5576 39.2748 21.5905C39.2982 21.6561 39.3215 21.7217 39.3448 21.7827C39.4288 22.0218 39.4848 22.1906 39.4942 22.2562C40.0588 24.033 40.9362 25.7114 41.3935 27.2726C41.4168 27.3429 41.4448 27.4086 41.4682 27.4789C41.6362 27.8961 41.8042 28.3134 41.9722 28.7306C41.9908 28.801 41.9815 28.8338 42.0002 28.9182C42.0422 29.0354 42.0888 29.1526 42.1308 29.2698C42.1448 29.3073 42.1588 29.3448 42.1728 29.3823H42.2522C42.2988 29.537 42.3502 29.687 42.4015 29.8371L42.4388 29.9496L42.4948 30.109C42.5462 30.2496 42.6022 30.3903 42.6535 30.5309C42.6815 30.6059 42.7142 30.6856 42.7422 30.7607H42.7795L42.8122 30.756H42.9662L43.7082 30.7419C44.2028 30.7325 44.6975 30.7231 45.1968 30.7185C46.1955 30.7044 47.2035 30.6903 48.2302 30.6997L48.1975 30.7091C48.7995 30.7419 49.5695 30.8216 50.0595 30.7419C50.0782 30.7419 50.0922 30.7419 50.1062 30.7372C50.0922 30.7372 50.0735 30.7372 50.0595 30.7419C50.0455 30.7513 50.0502 30.7607 50.0642 30.7653L50.4982 30.7466L50.4608 30.756C51.3848 30.7653 52.3602 30.77 53.2795 30.6575C53.3355 30.6716 53.4242 30.681 53.5362 30.6903C53.6342 30.695 53.8348 30.6997 53.7928 30.7044C53.8208 30.7091 53.8535 30.7185 53.9002 30.7466C54.0215 30.7747 54.1895 30.7841 54.3482 30.7935C54.1895 30.6997 54.0308 30.6013 53.8722 30.5075C52.9948 29.9777 52.1082 29.4433 51.2355 28.9135" fill="#84AEB6"/>
</svg>
