<svg width="320" height="327" viewBox="0 0 320 327" fill="none" xmlns="http://www.w3.org/2000/svg">
<g clip-path="url(#clip0_955_7831)">
<path fill-rule="evenodd" clip-rule="evenodd" d="M155.633 149.931C139.125 152.515 124.709 146.432 108.314 146.802C87.4298 147.272 64.3935 159.383 46.519 152.389C27.8181 145.073 12.04 128.397 14.0585 109.925C16.1143 91.111 43.991 79.7192 56.3287 62.6157C66.0823 49.0946 64.3813 31.3596 78.4597 20.6474C92.779 9.75197 112.542 8.17451 130.57 6.12577C148.406 4.09887 165.232 5.52738 181.822 8.90115C201.927 12.9899 225.74 14.0373 237.233 27.8175C248.982 41.9037 246.476 62.5119 242.003 81.0566C237.701 98.8927 228.99 117.322 212.467 130.498C196.931 142.887 175.602 146.805 155.633 149.931Z" fill="#ECEAE5"/>
<path d="M240.13 40.4503H315.476C316.852 40.4503 317.966 39.3376 317.966 37.9639C317.966 37.0191 317.43 36.1613 316.59 35.7386L309.507 32.2017C307.603 31.2445 306.059 29.7029 305.101 27.8009C303.078 23.7543 298.155 22.1133 294.103 24.1335C293.313 24.5251 292.591 25.0472 291.968 25.6688C291.819 25.818 291.583 25.818 291.433 25.6688C291.415 25.6502 291.402 25.6315 291.39 25.6129L291.128 25.2213C288.682 21.5477 284.556 19.341 280.137 19.3472C276.191 19.3534 272.481 21.212 270.104 24.3573L268.405 26.6199C267.621 27.6641 266.139 27.8755 265.094 27.0923C265 27.0239 264.919 26.9493 264.838 26.8685C263.463 25.4886 261.596 24.7116 259.641 24.7178H258.988C257.631 24.7178 256.293 25.097 255.135 25.8056L238.816 35.8318C237.646 36.5529 237.279 38.082 238.001 39.2506C238.455 39.9841 239.258 40.4378 240.123 40.4316L240.13 40.4503ZM257.749 30.051C258.123 29.821 258.552 29.7029 258.988 29.6967H259.641C260.27 29.6967 260.874 29.9454 261.316 30.3867C264.185 33.2522 268.834 33.2522 271.703 30.3867C271.946 30.1443 272.176 29.877 272.388 29.6035L274.087 27.3409C275.519 25.445 277.759 24.3262 280.137 24.32C282.888 24.32 285.464 25.6937 286.989 27.9811L287.251 28.3665C288.894 30.8218 292.217 31.4869 294.676 29.8521C294.968 29.6594 295.242 29.4357 295.491 29.187C296.748 27.9314 298.784 27.9314 300.041 29.187C300.284 29.4294 300.489 29.7154 300.645 30.02C301.74 32.1893 303.346 34.0603 305.325 35.4713H248.924L257.756 30.0448L257.749 30.051Z" fill="#61605D"/>
<path d="M25.8623 188.652H101.209C102.584 188.652 103.698 187.539 103.698 186.166C103.698 185.221 103.163 184.363 102.323 183.94L95.2402 180.404C93.3357 179.446 91.7921 177.905 90.8337 176.003C88.8109 171.956 83.8878 170.315 79.836 172.335C79.0456 172.727 78.3236 173.249 77.7012 173.871C77.5518 174.02 77.3153 174.02 77.166 173.871C77.1473 173.852 77.1348 173.833 77.1162 173.815L76.8548 173.429C74.4088 169.756 70.2823 167.549 65.8633 167.555C61.9174 167.568 58.2079 169.42 55.8304 172.565L54.1313 174.828C53.3471 175.872 51.8658 176.084 50.8202 175.307C50.7268 175.238 50.6459 175.164 50.565 175.083C49.1895 173.703 47.3223 172.932 45.368 172.932H44.7207C43.3639 172.932 42.0258 173.311 40.8681 174.02L24.5428 184.052C23.3728 184.773 23.0055 186.303 23.7275 187.471C24.1819 188.205 24.9847 188.658 25.8499 188.652H25.8623ZM43.4884 178.253C43.8618 178.023 44.2913 177.899 44.7332 177.905H45.3805C46.0091 177.905 46.6128 178.153 47.0547 178.595C49.9239 181.46 54.5732 181.46 57.4424 178.595C57.6914 178.346 57.9154 178.085 58.127 177.805L59.8262 175.543C61.2577 173.647 63.4983 172.528 65.8758 172.522C68.6268 172.522 71.2035 173.896 72.7283 176.183L72.9897 176.568C74.6328 179.024 77.9564 179.689 80.4148 178.054C80.7074 177.861 80.9812 177.638 81.2302 177.389C82.4874 176.133 84.5226 176.133 85.7798 177.389C86.0226 177.631 86.228 177.917 86.3836 178.228C87.4727 180.397 89.0847 182.268 91.0639 183.679H34.6629L43.4946 178.253H43.4884Z" fill="#61605D"/>
<path d="M279.337 279.458V254.595C279.337 254.259 279.269 253.923 279.138 253.619L270.611 233.728C270.219 232.814 269.317 232.217 268.321 232.217H212.835C212.604 232.217 212.374 232.249 212.156 232.311L201.881 235.232C201.881 235.232 201.893 235.27 201.899 235.288C202.347 236.954 202.615 238.558 202.758 240.149L213.19 237.184H266.684L273.468 253.004L242.722 262.153C242.025 262.358 241.459 262.862 241.16 263.521L231.619 284.848L197.704 298.293C196.429 298.796 195.8 300.245 196.31 301.519C196.646 302.364 197.424 302.961 198.327 303.073L269.385 311.495V324.101C269.385 325.4 270.337 326.556 271.632 326.681C273.12 326.824 274.364 325.661 274.364 324.207V309.693L278.603 297.074C278.783 296.54 278.777 295.956 278.578 295.427L274.763 285.059L278.615 281.211C279.082 280.745 279.343 280.111 279.343 279.452L279.337 279.458ZM274.358 278.433L270.107 282.678C269.423 283.362 269.198 284.388 269.528 285.295L273.593 296.335L270.144 306.591L208.665 299.3L234.382 289.106C234.986 288.869 235.471 288.403 235.739 287.806L245.23 266.598L274.358 257.933V278.433Z" fill="#61605D"/>
<path d="M149.157 252.444L2.31031 291.99C0.990845 292.369 0.219081 293.743 0.598739 295.06C0.978397 296.378 2.35388 297.149 3.67335 296.77L149.02 257.653C149.033 255.913 149.07 254.178 149.157 252.444Z" fill="#61605D"/>
<path d="M223.508 53.9139C223.185 52.8821 222.232 52.1735 221.143 52.1673L218.797 52.1548L220.571 44.3912C221.579 39.9654 220.62 35.3221 217.944 31.6547C215.486 28.2857 211.857 26.0728 207.799 25.414C207.469 24.4194 206.548 23.6984 205.446 23.6984H195.488C194.387 23.6984 193.465 24.4132 193.136 25.4015L185.605 25.5258C185.605 25.5258 185.555 25.5321 185.53 25.5321C184.733 24.9291 183.825 24.4443 182.835 24.1148L174.327 21.2804V18.7194C174.327 8.78016 166.23 0.693253 156.278 0.693253C146.326 0.693253 138.228 8.78016 138.228 18.7194V21.2804L129.72 24.1148C125.874 25.3953 123.291 28.9695 123.291 33.016C123.291 34.3897 124.405 35.5024 125.78 35.5024H134.102C133.66 36.9631 133.61 38.542 133.996 40.0338C134.606 42.3772 136.181 44.2731 138.228 45.3422V47.9342C138.228 56.6862 144.732 63.9526 153.166 65.1647V66.2774C152.823 66.3085 143.836 73.1025 143.836 73.1025C143.245 73.5687 142.896 74.2835 142.89 75.0356C142.884 75.7878 143.22 76.5088 143.811 76.9812L143.967 77.1055L138.234 84.5149V56.0149C138.234 54.9458 137.55 53.9947 136.529 53.6591L121.592 48.6864C121.081 48.5185 120.527 48.5185 120.017 48.6864L105.864 53.398L91.7108 48.6864C91.2004 48.5185 90.6465 48.5185 90.1361 48.6864L75.1988 53.6591C74.1843 53.9947 73.4934 54.9458 73.4934 56.0149V69.9013L64.2634 79.1195C63.7966 79.5857 63.5352 80.2197 63.5352 80.8786V90.8241C63.5352 91.7689 64.0704 92.6267 64.9106 93.0494L73.4934 97.3321V105.742C73.4934 106.544 73.8793 107.29 74.5266 107.762C75.1739 108.235 76.0079 108.359 76.7672 108.104L90.9203 103.393L98.9181 106.053L111.858 122.482C114.005 125.204 117.303 126.796 120.764 126.796C120.907 126.796 121.05 126.796 121.193 126.789C123.484 126.702 125.668 125.932 127.511 124.564L141.963 113.842C142.38 114.302 142.952 114.6 143.587 114.662C144.452 114.737 145.292 114.364 145.809 113.668L148.684 109.801L148.585 120.903C148.467 134.031 146.68 147.115 143.282 159.802C143.083 160.548 143.238 161.344 143.712 161.959C144.185 162.574 144.913 162.929 145.684 162.929V190.279C145.684 191.652 146.799 192.765 148.174 192.765V263.334L142.996 265.92C140.046 267.393 138.216 270.352 138.216 273.64C138.216 278.402 142.093 282.274 146.861 282.274H164.356C166.784 282.274 168.981 281.274 170.561 279.67C172.13 281.274 174.321 282.274 176.736 282.274H194.231C199.036 282.274 202.944 278.371 202.944 273.572V192.765H205.434C206.809 192.765 207.924 191.652 207.924 190.279V163.227H208.938C209.716 163.215 210.444 162.848 210.905 162.226C211.372 161.605 211.521 160.809 211.309 160.063L210.718 157.956C210.189 156.066 209.716 154.164 209.299 152.25C220.035 145.742 226.738 134.006 226.832 121.431L227.243 66.3582C227.243 66.1034 223.49 53.9077 223.49 53.9077L223.508 53.9139ZM68.5143 81.9166L73.649 76.7885C73.6801 76.8693 73.7175 76.9501 73.7548 77.0309L78.18 85.8637L74.8689 92.4713L68.5143 89.2949V81.9166ZM88.4308 98.9855L78.4725 102.299V96.6422C78.4725 96.5676 78.4601 96.4992 78.4539 96.4308L83.1903 86.964C83.5388 86.2616 83.5388 85.4411 83.1903 84.7387L78.4725 75.3153V57.8051L88.4308 54.492V98.9793V98.9855ZM218.268 101.298L214.365 112.232L203.305 105.376C202.154 104.661 200.642 104.996 199.907 106.134L197.947 109.142L195.974 97.1519L199.341 91.0727C199.608 90.5941 199.453 88.3812 199.453 88.3812L203.598 77.9322C206.629 79.4862 209.542 81.1956 212.274 83.0417C214.95 84.8506 216.973 87.3991 218.131 90.4138C219.475 93.9072 219.519 97.7734 218.261 101.298H218.268ZM174.283 70.2369L180.215 75.8686L168.483 81.8172C167.574 82.2772 167.039 83.2468 167.132 84.26L167.331 86.4605C166.242 86.4729 164.804 86.4978 162.894 86.5289L161.12 86.5599L174.29 70.2369H174.283ZM161.232 35.9624L169.236 35.981L169.366 36.1924C169.833 36.9693 169.97 37.9142 169.74 38.7906C169.354 40.2762 168.016 41.3205 166.479 41.3329L161.792 41.3702C161.941 39.5365 161.755 37.709 161.238 35.9624H161.232ZM206.529 57.053L197.972 78.6098L197.934 78.3798C197.754 77.1739 196.727 76.2788 195.507 76.2664L191.679 76.2104L198.37 57.0033L206.529 57.053ZM193.111 56.9722L189.607 67.0357C184.534 65.5688 173.331 64.1889 173.076 64.2945V57.8486C173.692 57.544 174.296 57.2146 174.875 56.8603L193.111 56.9722ZM187.97 71.7412L186.706 75.3775C186.582 75.1289 186.414 74.8927 186.202 74.6937L181.428 70.1561C183.594 70.585 185.779 71.1134 187.97 71.735V71.7412ZM192.992 51.9994L180.557 51.9248C181.74 50.4828 182.754 48.8977 183.551 47.1883C185.256 43.5458 185.953 39.5117 185.573 35.5086H186.768C188.144 35.5086 189.258 34.396 189.258 33.0222C189.258 32.1334 189.127 31.2693 188.891 30.4426L192.992 30.3743V51.9994ZM180.557 35.5086L180.619 36.0059C180.912 39.1138 180.37 42.2529 179.045 45.0873C177.974 47.381 176.412 49.3888 174.514 51.0049L174.943 50.5263C177.159 48.0399 177.339 44.2855 175.379 41.594C175.092 41.2024 174.763 40.8543 174.408 40.5249C174.458 40.3632 174.514 40.2078 174.557 40.0462C174.943 38.5544 174.893 36.9756 174.451 35.5148H180.563L180.557 35.5086ZM167.468 147.899L167.406 91.4332C168.781 91.4146 169.746 91.4021 169.976 91.4021C170.481 91.4208 171.003 91.2778 171.439 90.9795C172.192 90.4697 172.609 89.5933 172.528 88.692L172.236 85.4908L181.391 80.8537L177.233 86.3237C176.86 86.8148 176.68 87.4302 176.736 88.0455L179.735 122.407C179.735 122.407 179.735 122.463 179.742 122.488C180.084 125.329 180.962 128.039 182.343 130.55C185.051 135.473 190.198 138.5 195.806 138.5C195.88 138.5 195.955 138.5 196.03 138.5C198.196 138.469 200.287 137.978 202.198 137.108C202.633 144.256 203.791 151.361 205.658 158.279L175.634 158.528L167.468 147.899ZM204.5 128.841C202.608 131.725 199.415 133.478 195.961 133.527C192.133 133.583 188.561 131.526 186.706 128.151C185.642 126.217 184.964 124.123 184.69 121.929L181.783 88.5615L187.441 81.121L193.335 81.2018L194.573 89.4006C194.573 89.4006 190.833 96.5489 190.92 97.1021L194.075 116.278C194.243 117.291 195.015 118.1 196.023 118.311C197.032 118.522 198.065 118.093 198.619 117.235L202.751 110.883L212.374 116.85L204.5 128.841ZM215.069 78.9268C213.911 78.1436 212.71 77.3915 211.496 76.6518L222.201 76.7699L222.126 87.1132C220.546 83.8063 218.131 80.9967 215.069 78.9268ZM222.282 66.7187L222.245 71.7971L206.112 71.6169L211.882 57.0841L219.301 57.1276L222.282 66.7125V66.7187ZM213.923 34.5824C215.753 37.0874 216.407 40.2576 215.716 43.2847L213.699 52.1238L207.936 52.0865V30.5234C210.326 31.1388 212.436 32.5436 213.923 34.5824ZM202.951 28.6711V52.0616L197.972 52.0305V28.6711H202.951ZM143.201 18.7256C143.201 11.5276 149.064 5.6722 156.271 5.6722C163.479 5.6722 169.342 11.5276 169.342 18.7256V20.5904H143.201V18.7256ZM131.289 28.8327L141.116 25.5569H171.427L181.254 28.8327C182.194 29.1435 182.978 29.7527 183.507 30.5297H129.023C129.552 29.7527 130.336 29.1435 131.276 28.8327H131.289ZM146.761 41.3702L142.075 41.3329C140.537 41.3205 139.199 40.2762 138.813 38.7906C138.583 37.9142 138.72 36.9693 139.187 36.1924C139.205 36.1675 139.218 36.1364 139.23 36.1115L139.373 35.8505L147.352 35.8318C146.805 37.6158 146.606 39.4868 146.761 41.364V41.3702ZM143.201 47.9404V46.3119L149.662 46.3616H149.68C150.421 46.3616 151.118 46.0322 151.591 45.4665C152.07 44.8946 152.263 44.1425 152.126 43.409L151.859 42.0042C151.435 39.7665 151.79 37.4915 152.854 35.5024H155.674C156.738 37.4915 157.099 39.7665 156.67 42.0042L156.402 43.409C156.265 44.1425 156.458 44.8946 156.937 45.4665C157.41 46.0322 158.107 46.3616 158.848 46.3616H158.867L166.503 46.2994C168.327 46.287 170.032 45.6778 171.42 44.646C171.918 45.4479 171.837 46.5046 171.209 47.2132L168.719 50.0103C168.315 50.4641 168.091 51.0546 168.091 51.6638V69.9759L162.651 76.2726L158.132 70.1188V62.8524C158.132 61.4787 157.018 60.3661 155.643 60.3661C148.778 60.3661 143.195 54.7904 143.195 47.9342L143.201 47.9404ZM153.116 72.1266C154.628 73.9603 157.205 77.3231 159.589 80.5243L158.182 82.2647L149.35 75.0854L153.116 72.1204V72.1266ZM123.285 54.4982L133.243 57.8113V102.299L123.285 98.9855V54.4982ZM108.347 57.8113L118.306 54.4982V98.9855L108.347 102.299V57.8113ZM93.4099 54.4982L103.368 57.8113V102.299L93.4099 98.9855V54.4982ZM124.542 120.58C123.509 121.344 122.289 121.773 121 121.823C118.965 121.904 117.023 120.996 115.772 119.411L106.822 108.048L120.795 103.393C120.795 103.393 135.471 108.229 135.732 108.229C136.249 108.229 136.759 108.067 137.189 107.762C137.674 107.414 138.01 106.905 138.154 106.333L139.654 109.366L124.548 120.573L124.542 120.58ZM144.247 107.439L138.222 95.2374V92.6578L147.819 80.2508L155.064 86.1372L153.9 87.5793C153.296 88.3315 153.178 89.3633 153.601 90.2335C154.018 91.0851 154.89 91.6259 155.836 91.6259C155.848 91.6259 155.861 91.6259 155.879 91.6259C157.852 91.5948 160.205 91.5513 162.421 91.514L162.483 148.303L158.892 157.962H148.896C151.877 145.86 153.446 133.422 153.564 120.953L153.738 102.218C153.751 101.142 153.06 100.179 152.039 99.8371C151.018 99.4953 149.892 99.8496 149.251 100.714L144.247 107.445V107.439ZM197.972 262.39H183.034V252.444H197.972V262.39ZM178.055 192.771V263.341L173.076 265.827V192.771H178.055ZM153.159 252.444H168.097V262.39H153.159V252.444ZM168.097 247.471H153.159V192.771H168.097V247.471ZM164.362 277.308H146.867C144.844 277.308 143.201 275.667 143.201 273.647C143.201 272.254 143.979 270.999 145.224 270.371L151.255 267.362H168.097V273.578C168.097 275.636 166.423 277.308 164.362 277.308ZM197.972 273.578C197.972 275.636 196.297 277.308 194.237 277.308H176.742C174.719 277.308 173.076 275.667 173.076 273.647C173.076 272.254 173.854 270.999 175.099 270.371L181.13 267.362H197.972V273.578ZM197.972 247.471H183.034V192.771H197.972V247.471ZM202.951 187.799H178.055V175.367C178.055 173.993 176.941 172.88 175.565 172.88C174.19 172.88 173.076 173.993 173.076 175.367V187.799H150.67V162.935H160.628C161.667 162.935 162.601 162.288 162.962 161.313L165.744 153.829L172.441 162.543C172.914 163.159 173.642 163.513 174.414 163.513H174.433L202.951 163.277V187.799ZM208.316 146.972C207.594 142.565 207.158 138.109 207.027 133.639C207.625 132.999 217.172 117.204 217.172 117.204C217.272 117.055 221.99 105.817 221.99 105.817L221.871 121.4C221.797 131.625 216.656 141.198 208.316 146.972Z" fill="#61605D"/>
</g>
<defs>
<clipPath id="clip0_955_7831">
<rect width="319" height="326" fill="white" transform="translate(0.5 0.699463)"/>
</clipPath>
</defs>
</svg>
